Oxygen-Light.ufo
<glyph name="exclam" format="1">
  <advance width="644"/>
  <unicode hex="0021"/>
  <outline>
    <contour>
      <point x="289" y="421" type="line"/>
      <point x="356" y="421" type="line"/>
      <point x="408" y="1418" type="line"/>
      <point x="408" y="1512" type="line"/>
      <point x="229" y="1512" type="line"/>
      <point x="229" y="1418" type="line"/>
    </contour>
    <contour>
      <point x="322" y="-8" type="curve" smooth="yes"/>
      <point x="412" y="-8"/>
      <point x="447" y="55"/>
      <point x="447" y="112" type="curve" smooth="yes"/>
      <point x="447" y="168"/>
      <point x="412" y="230"/>
      <point x="322" y="230" type="curve" smooth="yes"/>
      <point x="234" y="230"/>
      <point x="198" y="168"/>
      <point x="198" y="112" type="curve" smooth="yes"/>
      <point x="198" y="55"/>
      <point x="234" y="-8"/>
    </contour>
  </outline>
</glyph>
<glyph name="quotedbl" format="1">
  <advance width="679"/>
  <unicode hex="0022"/>
  <outline>
    <contour>
      <point x="167" y="1032" type="line"/>
      <point x="241" y="1032" type="line"/>
      <point x="273" y="1514" type="line"/>
      <point x="152" y="1514" type="line"/>
    </contour>
    <contour>
      <point x="429" y="1032" type="line"/>
      <point x="503" y="1032" type="line"/>
      <point x="534" y="1514" type="line"/>
      <point x="413" y="1514" type="line"/>
    </contour>
  </outline>
</glyph>
<glyph name="numbersign" format="1">
  <advance width="1111"/>
  <unicode hex="0023"/>
  <outline>
    <contour>
      <point x="181" y="-28" type="line"/>
      <point x="285" y="-28" type="line"/>
      <point x="362" y="414" type="line"/>
      <point x="628" y="414" type="line"/>
      <point x="550" y="-28" type="line"/>
      <point x="659" y="-28" type="line"/>
      <point x="737" y="414" type="line"/>
      <point x="897" y="414" type="line"/>
      <point x="907" y="508" type="line"/>
      <point x="753" y="508" type="line"/>
      <point x="830" y="950" type="line"/>
      <point x="974" y="950" type="line"/>
      <point x="989" y="1042" type="line"/>
      <point x="846" y="1042" type="line"/>
      <point x="919" y="1464" type="line"/>
      <point x="813" y="1464" type="line"/>
      <point x="739" y="1042" type="line"/>
      <point x="473" y="1042" type="line"/>
      <point x="547" y="1464" type="line"/>
      <point x="439" y="1464" type="line"/>
      <point x="364" y="1042" type="line"/>
      <point x="193" y="1042" type="line"/>
      <point x="183" y="949" type="line"/>
      <point x="348" y="949" type="line"/>
      <point x="271" y="508" type="line"/>
      <point x="117" y="508" type="line"/>
      <point x="107" y="414" type="line"/>
      <point x="255" y="414" type="line"/>
    </contour>
    <contour>
      <point x="379" y="508" type="line"/>
      <point x="457" y="950" type="line"/>
      <point x="723" y="950" type="line"/>
      <point x="645" y="508" type="line"/>
    </contour>
  </outline>
</glyph>
<glyph name="dollar" format="1">
  <advance width="1246"/>
  <unicode hex="0024"/>
  <outline>
    <contour>
      <point x="591" y="-211" type="line"/>
      <point x="679" y="-211" type="line"/>
      <point x="679" y="1736" type="line"/>
      <point x="591" y="1736" type="line"/>
    </contour>
    <component base="S"/>
  </outline>
</glyph>
<glyph name="ampersand" format="1">
  <advance width="1494"/>
  <unicode hex="0026"/>
  <outline>
    <contour>
      <point x="636" y="-22" type="curve" smooth="yes"/>
      <point x="867" y="-22"/>
      <point x="1027" y="50"/>
      <point x="1155" y="147" type="curve"/>
      <point x="1307" y="-6" type="line"/>
      <point x="1312" y="-5"/>
      <point x="1385" y="58"/>
      <point x="1390" y="60" type="curve"/>
      <point x="1233" y="220" type="line"/>
      <point x="1284" y="283"/>
      <point x="1326" y="348"/>
      <point x="1357" y="423" type="curve"/>
      <point x="1280" y="484" type="line"/>
      <point x="1251" y="414"/>
      <point x="1210" y="348"/>
      <point x="1162" y="296" type="curve"/>
      <point x="664" y="819" type="line"/>
      <point x="874" y="917"/>
      <point x="1029" y="1031"/>
      <point x="1029" y="1203" type="curve" smooth="yes"/>
      <point x="1029" y="1403"/>
      <point x="872" y="1512"/>
      <point x="676" y="1512" type="curve" smooth="yes"/>
      <point x="431" y="1512"/>
      <point x="299" y="1382"/>
      <point x="299" y="1208" type="curve" smooth="yes"/>
      <point x="299" y="1069"/>
      <point x="371" y="982"/>
      <point x="483" y="848" type="curve"/>
      <point x="270" y="737"/>
      <point x="137" y="607"/>
      <point x="137" y="381" type="curve" smooth="yes"/>
      <point x="137" y="157"/>
      <point x="271" y="-22"/>
    </contour>
    <contour>
      <point x="627" y="80" type="curve" smooth="yes"/>
      <point x="433" y="80"/>
      <point x="264" y="168"/>
      <point x="264" y="379" type="curve" smooth="yes"/>
      <point x="264" y="554"/>
      <point x="393" y="676"/>
      <point x="562" y="768" type="curve"/>
      <point x="576" y="753"/>
      <point x="1064" y="238"/>
      <point x="1079" y="223" type="curve"/>
      <point x="978" y="135"/>
      <point x="797" y="80"/>
    </contour>
    <contour>
      <point x="602" y="893" type="curve"/>
      <point x="517" y="969"/>
      <point x="417" y="1101"/>
      <point x="417" y="1209" type="curve" smooth="yes"/>
      <point x="417" y="1322"/>
      <point x="488" y="1407"/>
      <point x="687" y="1407" type="curve" smooth="yes"/>
      <point x="807" y="1407"/>
      <point x="913" y="1342"/>
      <point x="913" y="1213" type="curve" smooth="yes"/>
      <point x="913" y="1052"/>
      <point x="764" y="975"/>
    </contour>
  </outline>
</glyph>
<glyph name="quotesingle" format="1">
  <advance width="416"/>
  <unicode hex="0027"/>
  <outline>
    <contour>
      <point x="152" y="1016" type="line"/>
      <point x="249" y="1016" type="line"/>
      <point x="269" y="1511" type="line"/>
      <point x="136" y="1511" type="line"/>
    </contour>
  </outline>
</glyph>
<glyph name="parenleft" format="1">
  <advance width="592"/>
  <unicode hex="0028"/>
  <outline>
    <contour>
      <point x="379" y="-242" type="curve"/>
      <point x="498" y="-242" type="line"/>
      <point x="313" y="65"/>
      <point x="245" y="360"/>
      <point x="245" y="630" type="curve" smooth="yes"/>
      <point x="245" y="924"/>
      <point x="307" y="1189"/>
      <point x="498" y="1511" type="curve"/>
      <point x="376" y="1511" type="line"/>
      <point x="203" y="1252"/>
      <point x="108" y="949"/>
      <point x="108" y="624" type="curve" smooth="yes"/>
      <point x="108" y="312"/>
      <point x="210" y="-8"/>
    </contour>
  </outline>
</glyph>
<glyph name="parenright" format="1">
  <advance width="592"/>
  <unicode hex="0029"/>
  <outline>
    <contour>
      <point x="93" y="-242" type="curve"/>
      <point x="212" y="-242" type="line"/>
      <point x="380" y="-7"/>
      <point x="484" y="309"/>
      <point x="484" y="624" type="curve" smooth="yes"/>
      <point x="484" y="947"/>
      <point x="386" y="1251"/>
      <point x="214" y="1511" type="curve"/>
      <point x="92" y="1511" type="line"/>
      <point x="284" y="1189"/>
      <point x="347" y="924"/>
      <point x="347" y="630" type="curve" smooth="yes"/>
      <point x="347" y="359"/>
      <point x="278" y="64"/>
    </contour>
  </outline>
</glyph>
<glyph name="asterisk" format="1">
  <advance width="1106"/>
  <unicode hex="002A"/>
  <outline>
    <contour>
      <point x="353" y="574" type="line"/>
      <point x="548" y="959" type="line"/>
      <point x="755" y="575" type="line"/>
      <point x="821" y="622"/>
      <point x="823" y="609"/>
      <point x="889" y="657" type="curve"/>
      <point x="782" y="818"/>
      <point x="688" y="926"/>
      <point x="635" y="1005" type="curve"/>
      <point x="1008" y="1093" type="line"/>
      <point x="962" y="1242" type="line"/>
      <point x="599" y="1080" type="line"/>
      <point x="636" y="1515" type="line"/>
      <point x="467" y="1515" type="line"/>
      <point x="505" y="1080" type="line"/>
      <point x="142" y="1242" type="line"/>
      <point x="98" y="1092" type="line"/>
      <point x="466" y="1005" type="line"/>
      <point x="216" y="657" type="line"/>
    </contour>
  </outline>
</glyph>
<glyph name="plus" format="1">
  <advance width="1103"/>
  <unicode hex="002B"/>
  <outline>
    <contour>
      <point x="500" y="157" type="line"/>
      <point x="612" y="157" type="line"/>
      <point x="612" y="598" type="line"/>
      <point x="996" y="598" type="line"/>
      <point x="996" y="702" type="line"/>
      <point x="613" y="702" type="line"/>
      <point x="613" y="1136" type="line"/>
      <point x="501" y="1136" type="line"/>
      <point x="501" y="702" type="line"/>
      <point x="108" y="702" type="line"/>
      <point x="108" y="598" type="line"/>
      <point x="500" y="598" type="line"/>
    </contour>
  </outline>
</glyph>
<glyph name="comma" format="1">
  <advance width="504"/>
  <unicode hex="002C"/>
  <outline>
    <contour>
      <point x="128" y="-275" type="curve"/>
      <point x="203" y="-275" type="line"/>
      <point x="250" y="-135"/>
      <point x="309" y="54"/>
      <point x="341" y="194" type="curve"/>
      <point x="341" y="235" type="line"/>
      <point x="205" y="235" type="line"/>
      <point x="204" y="221"/>
      <point x="130" y="-261"/>
    </contour>
  </outline>
</glyph>
<glyph name="period" format="1">
  <advance width="515"/>
  <unicode hex="002E"/>
  <outline>
    <contour>
      <point x="287" y="-8" type="curve" smooth="yes"/>
      <point x="367" y="-8"/>
      <point x="399" y="48"/>
      <point x="399" y="98" type="curve" smooth="yes"/>
      <point x="399" y="148"/>
      <point x="367" y="204"/>
      <point x="287" y="204" type="curve" smooth="yes"/>
      <point x="209" y="204"/>
      <point x="178" y="148"/>
      <point x="178" y="98" type="curve" smooth="yes"/>
      <point x="178" y="48"/>
      <point x="209" y="-8"/>
    </contour>
  </outline>
</glyph>
<glyph name="slash" format="1">
  <advance width="953"/>
  <unicode hex="002F"/>
  <outline>
    <contour>
      <point x="49" y="-178" type="line"/>
      <point x="164" y="-178" type="line"/>
      <point x="864" y="1509" type="line"/>
      <point x="748" y="1509" type="line"/>
    </contour>
  </outline>
</glyph>
<glyph name="zero" format="1">
  <advance width="1218"/>
  <unicode hex="0030"/>
  <outline>
    <contour>
      <point x="609" y="95" type="curve" smooth="yes"/>
      <point x="408" y="95"/>
      <point x="272" y="352"/>
      <point x="272" y="765" type="curve"/>
      <point x="271" y="1171"/>
      <point x="408" y="1427"/>
      <point x="610" y="1427" type="curve" smooth="yes"/>
      <point x="812" y="1427"/>
      <point x="948" y="1171"/>
      <point x="948" y="767" type="curve" smooth="yes"/>
      <point x="948" y="354"/>
      <point x="812" y="95"/>
    </contour>
    <contour>
      <point x="610" y="-24" type="curve" smooth="yes"/>
      <point x="955" y="-24"/>
      <point x="1104" y="298"/>
      <point x="1104" y="762" type="curve" smooth="yes"/>
      <point x="1104" y="1255"/>
      <point x="937" y="1546"/>
      <point x="610" y="1546" type="curve" smooth="yes"/>
      <point x="284" y="1546"/>
      <point x="113" y="1254"/>
      <point x="113" y="762" type="curve" smooth="yes"/>
      <point x="113" y="298"/>
      <point x="264" y="-24"/>
    </contour>
  </outline>
</glyph>
<glyph name="one" format="1">
  <advance width="602"/>
  <unicode hex="0031"/>
  <outline>
    <contour>
      <point x="275" y="0" type="line"/>
      <point x="408" y="0" type="line"/>
      <point x="408" y="1489" type="line"/>
      <point x="297" y="1489" type="line"/>
      <point x="244" y="1446"/>
      <point x="121" y="1390"/>
      <point x="34" y="1351" type="curve"/>
      <point x="34" y="1237" type="line"/>
      <point x="129" y="1270"/>
      <point x="232" y="1321"/>
      <point x="275" y="1352" type="curve"/>
    </contour>
  </outline>
</glyph>
<glyph name="two" format="1">
  <advance width="1141"/>
  <unicode hex="0032"/>
  <outline>
    <contour>
      <point x="130" y="0" type="line"/>
      <point x="978" y="0" type="line"/>
      <point x="986" y="126" type="line"/>
      <point x="275" y="126" type="line"/>
      <point x="723" y="637" type="line" smooth="yes"/>
      <point x="894" y="833"/>
      <point x="975" y="988"/>
      <point x="975" y="1132" type="curve" smooth="yes"/>
      <point x="975" y="1358"/>
      <point x="820" y="1515"/>
      <point x="560" y="1515" type="curve" smooth="yes"/>
      <point x="368" y="1515"/>
      <point x="243" y="1464"/>
      <point x="170" y="1394" type="curve"/>
      <point x="218" y="1292" type="line"/>
      <point x="300" y="1370"/>
      <point x="435" y="1405"/>
      <point x="554" y="1405" type="curve" smooth="yes"/>
      <point x="733" y="1405"/>
      <point x="821" y="1299"/>
      <point x="821" y="1115" type="curve" smooth="yes"/>
      <point x="821" y="1005"/>
      <point x="742" y="876"/>
      <point x="620" y="732" type="curve" smooth="yes"/>
      <point x="101" y="131" type="line"/>
    </contour>
  </outline>
</glyph>
<glyph name="three" format="1">
  <advance width="1114"/>
  <unicode hex="0033"/>
  <outline>
    <contour>
      <point x="529" y="-23" type="curve" smooth="yes"/>
      <point x="809" y="-23"/>
      <point x="999" y="152"/>
      <point x="995" y="410" type="curve" smooth="yes"/>
      <point x="992" y="674"/>
      <point x="829" y="768"/>
      <point x="688" y="803" type="curve"/>
      <point x="848" y="852"/>
      <point x="949" y="958"/>
      <point x="949" y="1165" type="curve" smooth="yes"/>
      <point x="949" y="1406"/>
      <point x="756" y="1517"/>
      <point x="566" y="1517" type="curve" smooth="yes"/>
      <point x="358" y="1517"/>
      <point x="231" y="1474"/>
      <point x="152" y="1407" type="curve"/>
      <point x="199" y="1299" type="line"/>
      <point x="273" y="1364"/>
      <point x="396" y="1406"/>
      <point x="530" y="1406" type="curve" smooth="yes"/>
      <point x="691" y="1406"/>
      <point x="821" y="1343"/>
      <point x="821" y="1146" type="curve" smooth="yes"/>
      <point x="821" y="905"/>
      <point x="610" y="865"/>
      <point x="406" y="858" type="curve" smooth="yes"/>
      <point x="405" y="858"/>
      <point x="363" y="858"/>
      <point x="362" y="858" type="curve"/>
      <point x="362" y="743" type="line"/>
      <point x="387" y="743"/>
      <point x="395" y="744"/>
      <point x="420" y="743" type="curve"/>
      <point x="665" y="735"/>
      <point x="862" y="673"/>
      <point x="862" y="405" type="curve" smooth="yes"/>
      <point x="862" y="198"/>
      <point x="724" y="87"/>
      <point x="518" y="87" type="curve" smooth="yes"/>
      <point x="367" y="87"/>
      <point x="272" y="137"/>
      <point x="199" y="194" type="curve"/>
      <point x="151" y="87" type="line"/>
      <point x="192" y="48"/>
      <point x="332" y="-23"/>
    </contour>
  </outline>
</glyph>
<glyph name="four" format="1">
  <advance width="1194"/>
  <unicode hex="0034"/>
  <outline>
    <contour>
      <point x="797" y="0" type="line"/>
      <point x="925" y="0" type="line"/>
      <point x="925" y="399" type="line"/>
      <point x="1096" y="399" type="line"/>
      <point x="1111" y="512" type="line"/>
      <point x="925" y="512" type="line"/>
      <point x="925" y="1519" type="line"/>
      <point x="798" y="1519" type="line"/>
      <point x="115" y="537" type="line"/>
      <point x="115" y="399" type="line"/>
      <point x="797" y="399" type="line"/>
    </contour>
    <contour>
      <point x="256" y="512" type="line"/>
      <point x="797" y="1310" type="line"/>
      <point x="797" y="512" type="line"/>
    </contour>
  </outline>
</glyph>
<glyph name="five" format="1">
  <advance width="1193"/>
  <unicode hex="0035"/>
  <outline>
    <contour>
      <point x="559" y="-23" type="curve" smooth="yes"/>
      <point x="872" y="-23"/>
      <point x="1067" y="179"/>
      <point x="1067" y="482" type="curve" smooth="yes"/>
      <point x="1067" y="723"/>
      <point x="896" y="936"/>
      <point x="610" y="931" type="curve" smooth="yes"/>
      <point x="512" y="930"/>
      <point x="418" y="903"/>
      <point x="327" y="835" type="curve"/>
      <point x="327" y="849"/>
      <point x="355" y="1359"/>
      <point x="356" y="1373" type="curve"/>
      <point x="992" y="1373" type="line"/>
      <point x="1005" y="1489" type="line"/>
      <point x="243" y="1489" type="line"/>
      <point x="209" y="718" type="line"/>
      <point x="335" y="708" type="line"/>
      <point x="434" y="785"/>
      <point x="504" y="818"/>
      <point x="629" y="818" type="curve" smooth="yes"/>
      <point x="798" y="818"/>
      <point x="924" y="673"/>
      <point x="924" y="478" type="curve" smooth="yes"/>
      <point x="924" y="247"/>
      <point x="784" y="88"/>
      <point x="565" y="88" type="curve" smooth="yes"/>
      <point x="380" y="88"/>
      <point x="260" y="144"/>
      <point x="175" y="212" type="curve"/>
      <point x="128" y="111" type="line"/>
      <point x="239" y="21"/>
      <point x="384" y="-23"/>
    </contour>
  </outline>
</glyph>
<glyph name="six" format="1">
  <advance width="1196"/>
  <unicode hex="0036"/>
  <outline>
    <contour>
      <point x="604" y="-23" type="curve" smooth="yes"/>
      <point x="890" y="-23"/>
      <point x="1086" y="191"/>
      <point x="1086" y="444" type="curve" smooth="yes"/>
      <point x="1086" y="714"/>
      <point x="878" y="917"/>
      <point x="645" y="917" type="curve" smooth="yes"/>
      <point x="543" y="917"/>
      <point x="467" y="894"/>
      <point x="389" y="850" type="curve"/>
      <point x="915" y="1488" type="line"/>
      <point x="768" y="1488" type="line"/>
      <point x="768" y="1488"/>
      <point x="530" y="1221"/>
      <point x="419" y="1082" type="curve"/>
      <point x="183" y="767"/>
      <point x="119" y="675"/>
      <point x="119" y="473" type="curve" smooth="yes"/>
      <point x="119" y="217"/>
      <point x="296" y="-23"/>
    </contour>
    <contour>
      <point x="602" y="92" type="curve" smooth="yes"/>
      <point x="385" y="92"/>
      <point x="257" y="270"/>
      <point x="257" y="448" type="curve" smooth="yes"/>
      <point x="257" y="641"/>
      <point x="373" y="809"/>
      <point x="606" y="809" type="curve" smooth="yes"/>
      <point x="826" y="809"/>
      <point x="951" y="636"/>
      <point x="951" y="443" type="curve" smooth="yes"/>
      <point x="951" y="265"/>
      <point x="818" y="92"/>
    </contour>
  </outline>
</glyph>
<glyph name="seven" format="1">
  <advance width="1058"/>
  <unicode hex="0037"/>
  <outline>
    <contour>
      <point x="275" y="0" type="line"/>
      <point x="417" y="0" type="line"/>
      <point x="945" y="1365" type="line"/>
      <point x="931" y="1489" type="line"/>
      <point x="129" y="1489" type="line"/>
      <point x="114" y="1374" type="line"/>
      <point x="813" y="1374" type="line"/>
    </contour>
  </outline>
</glyph>
<glyph name="eight" format="1">
  <advance width="1195"/>
  <unicode hex="0038"/>
  <outline>
    <contour>
      <point x="600" y="-23" type="curve" smooth="yes"/>
      <point x="863" y="-23"/>
      <point x="1076" y="120"/>
      <point x="1076" y="384" type="curve" smooth="yes"/>
      <point x="1076" y="579"/>
      <point x="954" y="741"/>
      <point x="751" y="802" type="curve"/>
      <point x="931" y="856"/>
      <point x="1044" y="970"/>
      <point x="1044" y="1144" type="curve" smooth="yes"/>
      <point x="1044" y="1376"/>
      <point x="863" y="1515"/>
      <point x="601" y="1515" type="curve" smooth="yes"/>
      <point x="337" y="1515"/>
      <point x="151" y="1375"/>
      <point x="151" y="1144" type="curve" smooth="yes"/>
      <point x="151" y="972"/>
      <point x="267" y="856"/>
      <point x="461" y="802" type="curve"/>
      <point x="242" y="740"/>
      <point x="119" y="577"/>
      <point x="119" y="384" type="curve" smooth="yes"/>
      <point x="119" y="119"/>
      <point x="339" y="-23"/>
    </contour>
    <contour>
      <point x="600" y="87" type="curve" smooth="yes"/>
      <point x="411" y="87"/>
      <point x="258" y="199"/>
      <point x="258" y="381" type="curve" smooth="yes"/>
      <point x="258" y="576"/>
      <point x="406" y="696"/>
      <point x="600" y="745" type="curve"/>
      <point x="797" y="696"/>
      <point x="937" y="575"/>
      <point x="937" y="380" type="curve" smooth="yes"/>
      <point x="937" y="199"/>
      <point x="789" y="87"/>
    </contour>
    <contour>
      <point x="600" y="856" type="curve"/>
      <point x="395" y="897"/>
      <point x="288" y="993"/>
      <point x="288" y="1147" type="curve" smooth="yes"/>
      <point x="288" y="1319"/>
      <point x="441" y="1404"/>
      <point x="600" y="1404" type="curve" smooth="yes"/>
      <point x="759" y="1404"/>
      <point x="908" y="1319"/>
      <point x="908" y="1147" type="curve" smooth="yes"/>
      <point x="908" y="992"/>
      <point x="805" y="896"/>
    </contour>
  </outline>
</glyph>
<glyph name="nine" format="1">
  <advance width="1144"/>
  <unicode hex="0039"/>
  <outline>
    <contour>
      <point x="264" y="0" type="line"/>
      <point x="432" y="0" type="line"/>
      <point x="432" y="0"/>
      <point x="819" y="467"/>
      <point x="829" y="481" type="curve"/>
      <point x="1005" y="731"/>
      <point x="1059" y="827"/>
      <point x="1059" y="1031" type="curve" smooth="yes"/>
      <point x="1059" y="1288"/>
      <point x="900" y="1515"/>
      <point x="582" y="1515" type="curve" smooth="yes"/>
      <point x="279" y="1515"/>
      <point x="92" y="1301"/>
      <point x="92" y="1047" type="curve" smooth="yes"/>
      <point x="92" y="770"/>
      <point x="316" y="596"/>
      <point x="557" y="596" type="curve" smooth="yes"/>
      <point x="649" y="596"/>
      <point x="748" y="629"/>
      <point x="820" y="675" type="curve"/>
    </contour>
    <contour>
      <point x="578" y="708" type="curve" smooth="yes"/>
      <point x="361" y="708"/>
      <point x="224" y="854"/>
      <point x="224" y="1048" type="curve" smooth="yes"/>
      <point x="224" y="1228"/>
      <point x="359" y="1404"/>
      <point x="585" y="1404" type="curve" smooth="yes"/>
      <point x="813" y="1404"/>
      <point x="929" y="1234"/>
      <point x="929" y="1051" type="curve" smooth="yes"/>
      <point x="929" y="875"/>
      <point x="822" y="708"/>
    </contour>
  </outline>
</glyph>
<glyph name="colon" format="1">
  <advance width="508"/>
  <unicode hex="003A"/>
  <outline>
    <contour>
      <point x="165" y="-36" type="line"/>
      <point x="347" y="-36" type="line"/>
      <point x="347" y="177" type="line"/>
      <point x="165" y="177" type="line"/>
    </contour>
    <contour>
      <point x="165" y="924" type="line"/>
      <point x="347" y="924" type="line"/>
      <point x="347" y="1135" type="line"/>
      <point x="165" y="1135" type="line"/>
    </contour>
  </outline>
</glyph>
<glyph name="semicolon" format="1">
  <advance width="547"/>
  <unicode hex="003B"/>
  <outline>
    <contour>
      <point x="151" y="-303" type="line"/>
      <point x="246" y="-303" type="line"/>
      <point x="371" y="168" type="line"/>
      <point x="207" y="168" type="line"/>
    </contour>
    <contour>
      <point x="195" y="925" type="line"/>
      <point x="376" y="925" type="line"/>
      <point x="376" y="1135" type="line"/>
      <point x="195" y="1135" type="line"/>
    </contour>
  </outline>
</glyph>
<glyph name="less" format="1">
  <advance width="1166"/>
  <unicode hex="003C"/>
  <outline>
    <contour>
      <point x="1053" y="116" type="line"/>
      <point x="1053" y="246" type="line"/>
      <point x="251" y="625" type="line"/>
      <point x="1055" y="1032" type="line"/>
      <point x="1055" y="1162" type="line"/>
      <point x="98" y="662" type="line"/>
      <point x="98" y="582" type="line"/>
    </contour>
  </outline>
</glyph>
<glyph name="equal" format="1">
  <advance width="1239"/>
  <unicode hex="003D"/>
  <outline>
    <contour>
      <point x="148" y="430" type="line"/>
      <point x="1091" y="430" type="line"/>
      <point x="1091" y="543" type="line"/>
      <point x="148" y="543" type="line"/>
    </contour>
    <contour>
      <point x="147" y="785" type="line"/>
      <point x="1092" y="785" type="line"/>
      <point x="1092" y="900" type="line"/>
      <point x="147" y="900" type="line"/>
    </contour>
  </outline>
</glyph>
<glyph name="greater" format="1">
  <advance width="1168"/>
  <unicode hex="003E"/>
  <outline>
    <contour>
      <point x="113" y="125" type="line"/>
      <point x="1070" y="580" type="line"/>
      <point x="1070" y="660" type="line"/>
      <point x="116" y="1168" type="line"/>
      <point x="116" y="1042" type="line"/>
      <point x="916" y="625" type="line"/>
      <point x="113" y="256" type="line"/>
    </contour>
  </outline>
</glyph>
<glyph name="question" format="1">
  <advance width="856"/>
  <unicode hex="003F"/>
  <outline>
    <contour>
      <point x="314" y="399" type="curve"/>
      <point x="381" y="399" type="line"/>
      <point x="530" y="750"/>
      <point x="744" y="931"/>
      <point x="744" y="1176" type="curve" smooth="yes"/>
      <point x="744" y="1368"/>
      <point x="616" y="1518"/>
      <point x="395" y="1518" type="curve" smooth="yes"/>
      <point x="306" y="1518"/>
      <point x="168" y="1486"/>
      <point x="82" y="1426" type="curve"/>
      <point x="117" y="1326" type="line"/>
      <point x="161" y="1353"/>
      <point x="268" y="1406"/>
      <point x="382" y="1406" type="curve" smooth="yes"/>
      <point x="515" y="1406"/>
      <point x="606" y="1317"/>
      <point x="608" y="1175" type="curve" smooth="yes"/>
      <point x="608" y="921"/>
      <point x="299" y="599"/>
    </contour>
    <contour>
      <point x="364" y="-2" type="curve" smooth="yes"/>
      <point x="439" y="-2"/>
      <point x="468" y="50"/>
      <point x="468" y="98" type="curve" smooth="yes"/>
      <point x="468" y="145"/>
      <point x="439" y="198"/>
      <point x="364" y="198" type="curve" smooth="yes"/>
      <point x="291" y="198"/>
      <point x="260" y="145"/>
      <point x="260" y="98" type="curve" smooth="yes"/>
      <point x="260" y="50"/>
      <point x="291" y="-2"/>
    </contour>
  </outline>
</glyph>
<glyph name="at" format="1">
  <advance width="1862"/>
  <unicode hex="0040"/>
  <outline>
    <contour>
      <point x="882" y="-87" type="curve" smooth="yes"/>
      <point x="1050" y="-87"/>
      <point x="1220" y="-49"/>
      <point x="1334" y="4" type="curve"/>
      <point x="1308" y="103" type="line"/>
      <point x="1186" y="50"/>
      <point x="1043" y="15"/>
      <point x="885" y="15" type="curve" smooth="yes"/>
      <point x="490" y="15"/>
      <point x="250" y="263"/>
      <point x="250" y="668" type="curve" smooth="yes"/>
      <point x="250" y="1164"/>
      <point x="588" y="1403"/>
      <point x="983" y="1403" type="curve" smooth="yes"/>
      <point x="1347" y="1403"/>
      <point x="1612" y="1197"/>
      <point x="1612" y="842" type="curve" smooth="yes"/>
      <point x="1612" y="574"/>
      <point x="1440" y="413"/>
      <point x="1293" y="413" type="curve" smooth="yes"/>
      <point x="1225" y="413"/>
      <point x="1192" y="496"/>
      <point x="1192" y="592" type="curve"/>
      <point x="1192" y="706"/>
      <point x="1267" y="899"/>
      <point x="1325" y="1090" type="curve"/>
      <point x="1244" y="1117"/>
      <point x="1117" y="1139"/>
      <point x="1034" y="1139" type="curve" smooth="yes"/>
      <point x="739" y="1139"/>
      <point x="568" y="839"/>
      <point x="568" y="600" type="curve" smooth="yes"/>
      <point x="568" y="446"/>
      <point x="639" y="326"/>
      <point x="788" y="326" type="curve" smooth="yes"/>
      <point x="938" y="326"/>
      <point x="1038" y="404"/>
      <point x="1085" y="488" type="curve"/>
      <point x="1102" y="391"/>
      <point x="1177" y="319"/>
      <point x="1282" y="319" type="curve" smooth="yes"/>
      <point x="1506" y="319"/>
      <point x="1732" y="516"/>
      <point x="1732" y="834" type="curve" smooth="yes"/>
      <point x="1732" y="1254"/>
      <point x="1407" y="1512"/>
      <point x="975" y="1512" type="curve" smooth="yes"/>
      <point x="474" y="1512"/>
      <point x="129" y="1149"/>
      <point x="129" y="678" type="curve" smooth="yes"/>
      <point x="129" y="196"/>
      <point x="429" y="-87"/>
    </contour>
    <contour>
      <point x="809" y="420" type="curve" smooth="yes"/>
      <point x="729" y="420"/>
      <point x="690" y="503"/>
      <point x="690" y="610" type="curve" smooth="yes"/>
      <point x="690" y="799"/>
      <point x="807" y="1052"/>
      <point x="1028" y="1052" type="curve" smooth="yes"/>
      <point x="1079" y="1052"/>
      <point x="1148" y="1043"/>
      <point x="1184" y="1027" type="curve"/>
      <point x="1157" y="929"/>
      <point x="1131" y="836"/>
      <point x="1103" y="746" type="curve" smooth="yes"/>
      <point x="1053" y="579"/>
      <point x="1009" y="420"/>
    </contour>
  </outline>
</glyph>
<glyph name="A" format="1">
  <advance width="1279"/>
  <unicode hex="0041"/>
  <outline>
    <contour>
      <point x="6" y="0" type="line"/>
      <point x="137" y="0" type="line"/>
      <point x="334" y="502" type="line"/>
      <point x="948" y="502" type="line"/>
      <point x="1136" y="0" type="line"/>
      <point x="1273" y="0" type="line"/>
      <point x="714" y="1487" type="line"/>
      <point x="585" y="1487" type="line"/>
    </contour>
    <contour>
      <point x="383" y="600" type="line"/>
      <point x="383" y="600"/>
      <point x="622" y="1258"/>
      <point x="648" y="1354" type="curve"/>
      <point x="677" y="1243"/>
      <point x="901" y="600"/>
      <point x="901" y="600" type="curve"/>
    </contour>
    <contour>
      <point x="640" y="1487" type="move" name="top"/>
    </contour>
    <contour>
      <point x="1151" y="10" type="move" name="ogonek"/>
    </contour>
  </outline>
</glyph>
<glyph name="B" format="1">
  <advance width="1267"/>
  <unicode hex="0042"/>
  <outline>
    <contour>
      <point x="181" y="0" type="line"/>
      <point x="686" y="0" type="line" smooth="yes"/>
      <point x="1044" y="0"/>
      <point x="1197" y="167"/>
      <point x="1197" y="419" type="curve" smooth="yes"/>
      <point x="1197" y="594"/>
      <point x="1092" y="752"/>
      <point x="877" y="785" type="curve"/>
      <point x="1127" y="862"/>
      <point x="1124" y="1057"/>
      <point x="1124" y="1116" type="curve" smooth="yes"/>
      <point x="1124" y="1364"/>
      <point x="963" y="1487"/>
      <point x="589" y="1487" type="curve" smooth="yes"/>
      <point x="181" y="1487" type="line"/>
    </contour>
    <contour>
      <point x="314" y="104" type="line"/>
      <point x="314" y="725" type="line"/>
      <point x="597" y="725" type="line" smooth="yes"/>
      <point x="897" y="725"/>
      <point x="1055" y="657"/>
      <point x="1055" y="420" type="curve" smooth="yes"/>
      <point x="1055" y="204"/>
      <point x="918" y="104"/>
      <point x="653" y="104" type="curve" smooth="yes"/>
    </contour>
    <contour>
      <point x="314" y="827" type="line"/>
      <point x="314" y="1379" type="line"/>
      <point x="583" y="1379" type="line" smooth="yes"/>
      <point x="846" y="1379"/>
      <point x="983" y="1320"/>
      <point x="983" y="1105" type="curve" smooth="yes"/>
      <point x="983" y="880"/>
      <point x="850" y="827"/>
      <point x="652" y="827" type="curve" smooth="yes"/>
    </contour>
  </outline>
</glyph>
<glyph name="C" format="1">
  <advance width="1286"/>
  <unicode hex="0043"/>
  <outline>
    <contour>
      <point x="812" y="-23" type="curve" smooth="yes"/>
      <point x="991" y="-23"/>
      <point x="1119" y="13"/>
      <point x="1208" y="68" type="curve"/>
      <point x="1182" y="176" type="line"/>
      <point x="1079" y="129"/>
      <point x="960" y="88"/>
      <point x="832" y="88" type="curve" smooth="yes"/>
      <point x="433" y="88"/>
      <point x="264" y="387"/>
      <point x="264" y="742" type="curve" smooth="yes"/>
      <point x="264" y="1110"/>
      <point x="455" y="1402"/>
      <point x="827" y="1402" type="curve" smooth="yes"/>
      <point x="955" y="1402"/>
      <point x="1080" y="1366"/>
      <point x="1178" y="1307" type="curve"/>
      <point x="1240" y="1410" type="line"/>
      <point x="1140" y="1470"/>
      <point x="1010" y="1513"/>
      <point x="826" y="1513" type="curve" smooth="yes"/>
      <point x="373" y="1513"/>
      <point x="117" y="1189"/>
      <point x="117" y="749" type="curve" smooth="yes"/>
      <point x="117" y="306"/>
      <point x="346" y="-23"/>
    </contour>
    <contour>
      <point x="643" y="1487" type="move" name="top"/>
    </contour>
    <contour>
      <point x="643" y="0" type="move" name="bottom"/>
    </contour>
  </outline>
</glyph>
<glyph name="D" format="1">
  <advance width="1498"/>
  <unicode hex="0044"/>
  <outline>
    <contour>
      <point x="352" y="111" type="line"/>
      <point x="352" y="1377" type="line"/>
      <point x="585" y="1377" type="line" smooth="yes"/>
      <point x="993" y="1377"/>
      <point x="1248" y="1200"/>
      <point x="1248" y="738" type="curve" smooth="yes"/>
      <point x="1248" y="318"/>
      <point x="1020" y="111"/>
      <point x="614" y="111" type="curve" smooth="yes"/>
    </contour>
    <contour>
      <point x="192" y="0" type="line"/>
      <point x="627" y="0" type="line" smooth="yes"/>
      <point x="1101" y="0"/>
      <point x="1408" y="248"/>
      <point x="1408" y="743" type="curve" smooth="yes"/>
      <point x="1408" y="1267"/>
      <point x="1072" y="1487"/>
      <point x="596" y="1487" type="curve" smooth="yes"/>
      <point x="192" y="1487" type="line"/>
    </contour>
    <contour>
      <point x="760" y="1487" type="move" name="top"/>
    </contour>
    <contour>
      <point x="760" y="744" type="move" name="center"/>
    </contour>
  </outline>
</glyph>
<glyph name="E" format="1">
  <advance width="1142"/>
  <unicode hex="0045"/>
  <outline>
    <contour>
      <point x="181" y="0" type="line"/>
      <point x="1018" y="0" type="line"/>
      <point x="1029" y="111" type="line"/>
      <point x="314" y="111" type="line"/>
      <point x="314" y="711" type="line"/>
      <point x="973" y="711" type="line"/>
      <point x="973" y="824" type="line"/>
      <point x="314" y="824" type="line"/>
      <point x="314" y="1377" type="line"/>
      <point x="1007" y="1377" type="line"/>
      <point x="1012" y="1487" type="line"/>
      <point x="181" y="1487" type="line"/>
    </contour>
    <contour>
      <point x="571" y="1487" type="move" name="top"/>
    </contour>
    <contour>
      <point x="571" y="0" type="move" name="bottom"/>
    </contour>
    <contour>
      <point x="1028" y="10" type="move" name="ogonek"/>
    </contour>
  </outline>
</glyph>
<glyph name="F" format="1">
  <advance width="1027"/>
  <unicode hex="0046"/>
  <outline>
    <contour>
      <point x="181" y="0" type="line"/>
      <point x="314" y="0" type="line"/>
      <point x="314" y="683" type="line"/>
      <point x="947" y="683" type="line"/>
      <point x="947" y="791" type="line"/>
      <point x="314" y="791" type="line"/>
      <point x="314" y="1372" type="line"/>
      <point x="977" y="1372" type="line"/>
      <point x="983" y="1487" type="line"/>
      <point x="181" y="1487" type="line"/>
    </contour>
  </outline>
</glyph>
<glyph name="G" format="1">
  <advance width="1468"/>
  <unicode hex="0047"/>
  <outline>
    <contour>
      <point x="821" y="-23" type="curve" smooth="yes"/>
      <point x="1025" y="-23"/>
      <point x="1162" y="4"/>
      <point x="1329" y="89" type="curve"/>
      <point x="1329" y="747" type="line"/>
      <point x="847" y="747" type="line"/>
      <point x="839" y="632" type="line"/>
      <point x="1206" y="632" type="line"/>
      <point x="1206" y="161" type="line"/>
      <point x="1119" y="127"/>
      <point x="983" y="87"/>
      <point x="863" y="87" type="curve" smooth="yes"/>
      <point x="454" y="87"/>
      <point x="262" y="351"/>
      <point x="262" y="742" type="curve" smooth="yes"/>
      <point x="262" y="1106"/>
      <point x="450" y="1402"/>
      <point x="848" y="1402" type="curve" smooth="yes"/>
      <point x="981" y="1402"/>
      <point x="1128" y="1355"/>
      <point x="1234" y="1291" type="curve"/>
      <point x="1292" y="1398" type="line"/>
      <point x="1168" y="1471"/>
      <point x="1021" y="1513"/>
      <point x="847" y="1513" type="curve" smooth="yes"/>
      <point x="381" y="1513"/>
      <point x="118" y="1186"/>
      <point x="118" y="740" type="curve" smooth="yes"/>
      <point x="118" y="313"/>
      <point x="358" y="-23"/>
    </contour>
    <contour>
      <point x="734" y="1487" type="move" name="top"/>
    </contour>
    <contour>
      <point x="734" y="0" type="move" name="bottom"/>
    </contour>
  </outline>
</glyph>
<glyph name="H" format="1">
  <advance width="1475"/>
  <unicode hex="0048"/>
  <outline>
    <contour>
      <point x="181" y="0" type="line"/>
      <point x="314" y="0" type="line"/>
      <point x="314" y="715" type="line"/>
      <point x="1162" y="715" type="line"/>
      <point x="1162" y="0" type="line"/>
      <point x="1294" y="0" type="line"/>
      <point x="1294" y="1487" type="line"/>
      <point x="1162" y="1487" type="line"/>
      <point x="1162" y="831" type="line"/>
      <point x="314" y="831" type="line"/>
      <point x="314" y="1487" type="line"/>
      <point x="181" y="1487" type="line"/>
    </contour>
    <contour>
      <point x="738" y="1487" type="move" name="top"/>
    </contour>
    <contour>
      <point x="738" y="744" type="move" name="center"/>
    </contour>
  </outline>
</glyph>
<glyph name="I" format="1">
  <advance width="517"/>
  <unicode hex="0049"/>
  <outline>
    <contour>
      <point x="192" y="0" type="line"/>
      <point x="324" y="0" type="line"/>
      <point x="324" y="1487" type="line"/>
      <point x="192" y="1487" type="line"/>
    </contour>
    <contour>
      <point x="259" y="1487" type="move" name="top"/>
    </contour>
    <contour>
      <point x="465" y="10" type="move" name="ogonek"/>
    </contour>
  </outline>
</glyph>
<glyph name="J" format="1">
  <advance width="516"/>
  <unicode hex="004A"/>
  <outline>
    <contour>
      <point x="-1" y="-145" type="line"/>
      <point x="13" y="-145" type="line" smooth="yes"/>
      <point x="366" y="-145"/>
      <point x="370" y="0"/>
      <point x="370" y="297" type="curve" smooth="yes"/>
      <point x="370" y="1512" type="line"/>
      <point x="233" y="1512" type="line"/>
      <point x="233" y="213" type="line" smooth="yes"/>
      <point x="233" y="74"/>
      <point x="232" y="-46"/>
      <point x="39" y="-46" type="curve" smooth="yes"/>
      <point x="-22" y="-49" type="line"/>
    </contour>
    <contour>
      <point x="258" y="1487" type="move" name="top"/>
    </contour>
  </outline>
</glyph>
<glyph name="K" format="1">
  <advance width="1226"/>
  <unicode hex="004B"/>
  <outline>
    <contour>
      <point x="181" y="0" type="line"/>
      <point x="314" y="0" type="line"/>
      <point x="314" y="601" type="line"/>
      <point x="459" y="736" type="line"/>
      <point x="1062" y="0" type="line"/>
      <point x="1229" y="0" type="line"/>
      <point x="560" y="817" type="line"/>
      <point x="1179" y="1487" type="line"/>
      <point x="1005" y="1487" type="line"/>
      <point x="1006" y="1487"/>
      <point x="314" y="722"/>
      <point x="314" y="722" type="curve"/>
      <point x="314" y="1487" type="line"/>
      <point x="181" y="1487" type="line"/>
    </contour>
    <contour>
      <point x="613" y="1487" type="move" name="top"/>
    </contour>
    <contour>
      <point x="613" y="0" type="move" name="bottom"/>
    </contour>
  </outline>
</glyph>
<glyph name="L" format="1">
  <advance width="1000"/>
  <unicode hex="004C"/>
  <outline>
    <contour>
      <point x="181" y="0" type="line"/>
      <point x="976" y="0" type="line"/>
      <point x="982" y="117" type="line"/>
      <point x="315" y="117" type="line"/>
      <point x="315" y="1487" type="line"/>
      <point x="181" y="1487" type="line"/>
    </contour>
    <contour>
      <point x="500" y="1487" type="move" name="top"/>
    </contour>
    <contour>
      <point x="500" y="0" type="move" name="bottom"/>
    </contour>
  </outline>
</glyph>
<glyph name="M" format="1">
  <advance width="1805"/>
  <unicode hex="004D"/>
  <outline>
    <contour>
      <point x="181" y="0" type="line"/>
      <point x="312" y="0" type="line"/>
      <point x="312" y="985" type="line"/>
      <point x="305" y="1333" type="line"/>
      <point x="344" y="1215" type="line"/>
      <point x="835" y="86" type="line"/>
      <point x="977" y="86" type="line"/>
      <point x="1463" y="1212" type="line"/>
      <point x="1500" y="1330" type="line"/>
      <point x="1493" y="990" type="line"/>
      <point x="1493" y="0" type="line"/>
      <point x="1624" y="0" type="line"/>
      <point x="1624" y="1487" type="line"/>
      <point x="1447" y="1487" type="line"/>
      <point x="913" y="238" type="line"/>
      <point x="366" y="1487" type="line"/>
      <point x="181" y="1487" type="line"/>
    </contour>
  </outline>
</glyph>
<glyph name="N" format="1">
  <advance width="1501"/>
  <unicode hex="004E"/>
  <outline>
    <contour>
      <point x="181" y="0" type="line"/>
      <point x="308" y="0" type="line"/>
      <point x="308" y="930" type="line"/>
      <point x="308" y="1102"/>
      <point x="307" y="1126"/>
      <point x="300" y="1317" type="curve"/>
      <point x="351" y="1244" type="line"/>
      <point x="1163" y="0" type="line"/>
      <point x="1319" y="0" type="line"/>
      <point x="1319" y="1487" type="line"/>
      <point x="1195" y="1487" type="line"/>
      <point x="1195" y="550" type="line"/>
      <point x="1195" y="477"/>
      <point x="1202" y="168"/>
      <point x="1202" y="168" type="curve"/>
      <point x="1149" y="241" type="line"/>
      <point x="334" y="1487" type="line"/>
      <point x="181" y="1487" type="line"/>
    </contour>
    <contour>
      <point x="751" y="1487" type="move" name="top"/>
    </contour>
    <contour>
      <point x="751" y="0" type="move" name="bottom"/>
    </contour>
  </outline>
</glyph>
<glyph name="O" format="1">
  <advance width="1627"/>
  <unicode hex="004F"/>
  <outline>
    <contour>
      <point x="815" y="87" type="curve" smooth="yes"/>
      <point x="442" y="87"/>
      <point x="262" y="350"/>
      <point x="262" y="744" type="curve" smooth="yes"/>
      <point x="262" y="1159"/>
      <point x="451" y="1402"/>
      <point x="816" y="1402" type="curve" smooth="yes"/>
      <point x="1180" y="1402"/>
      <point x="1363" y="1157"/>
      <point x="1363" y="744" type="curve" smooth="yes"/>
      <point x="1363" y="351"/>
      <point x="1189" y="87"/>
    </contour>
    <contour>
      <point x="815" y="-23" type="curve" smooth="yes"/>
      <point x="1269" y="-23"/>
      <point x="1509" y="303"/>
      <point x="1509" y="743" type="curve" smooth="yes"/>
      <point x="1509" y="1205"/>
      <point x="1259" y="1513"/>
      <point x="816" y="1513" type="curve" smooth="yes"/>
      <point x="364" y="1513"/>
      <point x="117" y="1208"/>
      <point x="117" y="744" type="curve" smooth="yes"/>
      <point x="117" y="295"/>
      <point x="353" y="-23"/>
    </contour>
    <contour>
      <point x="814" y="1487" type="move" name="top"/>
    </contour>
  </outline>
</glyph>
<glyph name="P" format="1">
  <advance width="1166"/>
  <unicode hex="0050"/>
  <outline>
    <contour>
      <point x="179" y="0" type="line"/>
      <point x="312" y="0" type="line"/>
      <point x="312" y="677" type="line"/>
      <point x="398" y="668"/>
      <point x="478" y="664"/>
      <point x="545" y="664" type="curve" smooth="yes"/>
      <point x="1013" y="664"/>
      <point x="1092" y="865"/>
      <point x="1092" y="1114" type="curve" smooth="yes"/>
      <point x="1092" y="1387"/>
      <point x="887" y="1489"/>
      <point x="636" y="1489" type="curve" smooth="yes"/>
      <point x="179" y="1489" type="line"/>
    </contour>
    <contour>
      <point x="559" y="779" type="curve" smooth="yes"/>
      <point x="490" y="779"/>
      <point x="398" y="778"/>
      <point x="312" y="790" type="curve"/>
      <point x="312" y="1372" type="line"/>
      <point x="641" y="1372" type="line" smooth="yes"/>
      <point x="817" y="1372"/>
      <point x="960" y="1298"/>
      <point x="960" y="1114" type="curve" smooth="yes"/>
      <point x="960" y="974"/>
      <point x="962" y="779"/>
    </contour>
  </outline>
</glyph>
<glyph name="Q" format="1">
  <advance width="1613"/>
  <unicode hex="0051"/>
  <outline>
    <contour>
      <point x="1254" y="-470" type="curve"/>
      <point x="1354" y="-383" type="line"/>
      <point x="1234" y="-262"/>
      <point x="1073" y="18"/>
      <point x="1073" y="18" type="curve"/>
      <point x="1363" y="129"/>
      <point x="1496" y="407"/>
      <point x="1496" y="744" type="curve" smooth="yes"/>
      <point x="1496" y="1208"/>
      <point x="1256" y="1513"/>
      <point x="810" y="1513" type="curve" smooth="yes"/>
      <point x="353" y="1513"/>
      <point x="117" y="1212"/>
      <point x="117" y="745" type="curve" smooth="yes"/>
      <point x="117" y="294"/>
      <point x="342" y="-23"/>
      <point x="808" y="-23" type="curve" smooth="yes"/>
      <point x="857" y="-23"/>
      <point x="903" y="-19"/>
      <point x="947" y="-12" type="curve"/>
      <point x="1033" y="-199"/>
      <point x="1248" y="-459"/>
    </contour>
    <contour>
      <point x="808" y="95" type="curve" smooth="yes"/>
      <point x="441" y="95"/>
      <point x="265" y="348"/>
      <point x="265" y="746" type="curve" smooth="yes"/>
      <point x="265" y="1166"/>
      <point x="452" y="1395"/>
      <point x="809" y="1395" type="curve" smooth="yes"/>
      <point x="1165" y="1395"/>
      <point x="1345" y="1164"/>
      <point x="1345" y="746" type="curve" smooth="yes"/>
      <point x="1345" y="348"/>
      <point x="1175" y="95"/>
    </contour>
  </outline>
</glyph>
<glyph name="R" format="1">
  <advance width="1334"/>
  <unicode hex="0052"/>
  <outline>
    <contour>
      <point x="179" y="0" type="line"/>
      <point x="311" y="0" type="line"/>
      <point x="311" y="725" type="line"/>
      <point x="311" y="725"/>
      <point x="500" y="719"/>
      <point x="628" y="718" type="curve" smooth="yes"/>
      <point x="694" y="718"/>
      <point x="757" y="719"/>
      <point x="778" y="722" type="curve"/>
      <point x="798" y="678"/>
      <point x="835" y="596"/>
      <point x="873" y="505" type="curve"/>
      <point x="1083" y="0" type="line"/>
      <point x="1237" y="0" type="line"/>
      <point x="993" y="555" type="line"/>
      <point x="963" y="620"/>
      <point x="901" y="743"/>
      <point x="901" y="744" type="curve"/>
      <point x="1092" y="793"/>
      <point x="1174" y="939"/>
      <point x="1174" y="1113" type="curve" smooth="yes"/>
      <point x="1174" y="1446"/>
      <point x="953" y="1489"/>
      <point x="607" y="1489" type="curve" smooth="yes"/>
      <point x="179" y="1489" type="line"/>
    </contour>
    <contour>
      <point x="687" y="829" type="curve" smooth="yes"/>
      <point x="533" y="829"/>
      <point x="465" y="830"/>
      <point x="311" y="832" type="curve"/>
      <point x="311" y="1377" type="line"/>
      <point x="728" y="1377" type="line" smooth="yes"/>
      <point x="969" y="1377"/>
      <point x="1043" y="1272"/>
      <point x="1043" y="1111" type="curve" smooth="yes"/>
      <point x="1043" y="930"/>
      <point x="964" y="829"/>
    </contour>
    <contour>
      <point x="667" y="1487" type="move" name="top"/>
    </contour>
    <contour>
      <point x="667" y="0" type="move" name="bottom"/>
    </contour>
  </outline>
</glyph>
<glyph name="S" format="1">
  <advance width="1245"/>
  <unicode hex="0053"/>
  <outline>
    <contour>
      <point x="655" y="-23" type="curve" smooth="yes"/>
      <point x="950" y="-23"/>
      <point x="1158" y="132"/>
      <point x="1158" y="420" type="curve" smooth="yes"/>
      <point x="1158" y="674"/>
      <point x="1012" y="770"/>
      <point x="763" y="823" type="curve" smooth="yes"/>
      <point x="493" y="879" type="line" smooth="yes"/>
      <point x="327" y="915"/>
      <point x="233" y="985"/>
      <point x="233" y="1115" type="curve" smooth="yes"/>
      <point x="233" y="1317"/>
      <point x="377" y="1404"/>
      <point x="650" y="1404" type="curve" smooth="yes"/>
      <point x="833" y="1404"/>
      <point x="999" y="1346"/>
      <point x="1062" y="1311" type="curve"/>
      <point x="1097" y="1413" type="line"/>
      <point x="1011" y="1458"/>
      <point x="838" y="1515"/>
      <point x="653" y="1515" type="curve" smooth="yes"/>
      <point x="323" y="1515"/>
      <point x="97" y="1406"/>
      <point x="97" y="1125" type="curve" smooth="yes"/>
      <point x="97" y="906"/>
      <point x="244" y="806"/>
      <point x="493" y="755" type="curve" smooth="yes"/>
      <point x="738" y="705" type="line" smooth="yes"/>
      <point x="975" y="656"/>
      <point x="1019" y="568"/>
      <point x="1019" y="422" type="curve" smooth="yes"/>
      <point x="1019" y="208"/>
      <point x="894" y="87"/>
      <point x="666" y="87" type="curve" smooth="yes"/>
      <point x="459" y="87"/>
      <point x="288" y="125"/>
      <point x="147" y="201" type="curve"/>
      <point x="99" y="105" type="line"/>
      <point x="179" y="57"/>
      <point x="374" y="-23"/>
    </contour>
    <contour>
      <point x="623" y="1487" type="move" name="top"/>
    </contour>
    <contour>
      <point x="623" y="0" type="move" name="bottom"/>
    </contour>
  </outline>
</glyph>
<glyph name="T" format="1">
  <advance width="1084"/>
  <unicode hex="0054"/>
  <outline>
    <contour>
      <point x="475" y="0" type="line"/>
      <point x="609" y="0" type="line"/>
      <point x="609" y="1373" type="line"/>
      <point x="1076" y="1373" type="line"/>
      <point x="1076" y="1487" type="line"/>
      <point x="8" y="1487" type="line"/>
      <point x="8" y="1373" type="line"/>
      <point x="475" y="1373" type="line"/>
    </contour>
    <contour>
      <point x="542" y="1487" type="move" name="top"/>
    </contour>
    <contour>
      <point x="542" y="0" type="move" name="bottom"/>
    </contour>
    <contour>
      <point x="542" y="744" type="move" name="center"/>
    </contour>
  </outline>
</glyph>
<glyph name="U" format="1">
  <advance width="1411"/>
  <unicode hex="0055"/>
  <outline>
    <contour>
      <point x="700" y="-23" type="curve" smooth="yes"/>
      <point x="1095" y="-23"/>
      <point x="1254" y="196"/>
      <point x="1254" y="515" type="curve" smooth="yes"/>
      <point x="1254" y="1487" type="line"/>
      <point x="1121" y="1487" type="line"/>
      <point x="1121" y="500" type="line" smooth="yes"/>
      <point x="1121" y="217"/>
      <point x="980" y="84"/>
      <point x="708" y="84" type="curve" smooth="yes"/>
      <point x="429" y="84"/>
      <point x="289" y="215"/>
      <point x="289" y="499" type="curve" smooth="yes"/>
      <point x="289" y="1487" type="line"/>
      <point x="157" y="1487" type="line"/>
      <point x="157" y="517" type="line" smooth="yes"/>
      <point x="157" y="197"/>
      <point x="306" y="-23"/>
    </contour>
    <contour>
      <point x="706" y="1487" type="move" name="top"/>
    </contour>
    <contour>
      <point x="1270" y="10" type="move" name="ogonek"/>
    </contour>
  </outline>
</glyph>
<glyph name="V" format="1">
  <advance width="1209"/>
  <unicode hex="0056"/>
  <outline>
    <contour>
      <point x="531" y="0" type="line"/>
      <point x="-5" y="1487" type="line"/>
      <point x="141" y="1487" type="line"/>
      <point x="478" y="530" type="line"/>
      <point x="532" y="360"/>
      <point x="558" y="308"/>
      <point x="601" y="143" type="curve"/>
      <point x="616" y="221"/>
      <point x="652" y="302"/>
      <point x="727" y="536" type="curve"/>
      <point x="864" y="970"/>
      <point x="934" y="1076"/>
      <point x="1067" y="1487" type="curve"/>
      <point x="1214" y="1487" type="line"/>
      <point x="672" y="0" type="line"/>
    </contour>
  </outline>
</glyph>
<glyph name="W" format="1">
  <advance width="1997"/>
  <unicode hex="0057"/>
  <outline>
    <contour>
      <point x="462" y="0" type="line"/>
      <point x="609" y="0" type="line"/>
      <point x="1007" y="1313" type="line"/>
      <point x="1387" y="0" type="line"/>
      <point x="1535" y="0" type="line"/>
      <point x="1995" y="1487" type="line"/>
      <point x="1851" y="1487" type="line"/>
      <point x="1458" y="149" type="line"/>
      <point x="1089" y="1448" type="line"/>
      <point x="918" y="1448" type="line"/>
      <point x="540" y="148" type="line"/>
      <point x="147" y="1487" type="line"/>
      <point x="2" y="1487" type="line"/>
    </contour>
    <contour>
      <point x="999" y="1487" type="move" name="top"/>
    </contour>
  </outline>
</glyph>
<glyph name="X" format="1">
  <advance width="1200"/>
  <unicode hex="0058"/>
  <outline>
    <contour>
      <point x="17" y="0" type="line"/>
      <point x="160" y="0" type="line"/>
      <point x="602" y="702" type="line"/>
      <point x="1032" y="0" type="line"/>
      <point x="1183" y="0" type="line"/>
      <point x="691" y="792" type="line"/>
      <point x="1163" y="1487" type="line"/>
      <point x="1021" y="1487" type="line"/>
      <point x="605" y="854" type="line"/>
      <point x="206" y="1487" type="line"/>
      <point x="48" y="1487" type="line"/>
      <point x="520" y="785" type="line"/>
    </contour>
  </outline>
</glyph>
<glyph name="Y" format="1">
  <advance width="1169"/>
  <unicode hex="0059"/>
  <outline>
    <contour>
      <point x="501" y="0" type="line"/>
      <point x="636" y="0" type="line"/>
      <point x="636" y="593" type="line"/>
      <point x="1164" y="1487" type="line"/>
      <point x="1019" y="1487" type="line"/>
      <point x="577" y="708" type="line"/>
      <point x="148" y="1487" type="line"/>
      <point x="4" y="1487" type="line"/>
      <point x="501" y="589" type="line"/>
    </contour>
    <contour>
      <point x="585" y="1487" type="move" name="top"/>
    </contour>
  </outline>
</glyph>
<glyph name="Z" format="1">
  <advance width="1174"/>
  <unicode hex="005A"/>
  <outline>
    <contour>
      <point x="96" y="0" type="line"/>
      <point x="1093" y="0" type="line"/>
      <point x="1101" y="117" type="line"/>
      <point x="263" y="117" type="line"/>
      <point x="1093" y="1381" type="line"/>
      <point x="1093" y="1487" type="line"/>
      <point x="126" y="1487" type="line"/>
      <point x="126" y="1371" type="line"/>
      <point x="920" y="1371" type="line"/>
      <point x="96" y="113" type="line"/>
    </contour>
    <contour>
      <point x="587" y="1487" type="move" name="top"/>
    </contour>
  </outline>
</glyph>
<glyph name="bracketleft" format="1">
  <advance width="687"/>
  <unicode hex="005B"/>
  <outline>
    <contour>
      <point x="147" y="-267" type="line"/>
      <point x="595" y="-267" type="line"/>
      <point x="595" y="-164" type="line"/>
      <point x="286" y="-164" type="line"/>
      <point x="286" y="1408" type="line"/>
      <point x="595" y="1408" type="line"/>
      <point x="595" y="1511" type="line"/>
      <point x="147" y="1511" type="line"/>
    </contour>
  </outline>
</glyph>
<glyph name="bracketright" format="1">
  <advance width="687"/>
  <unicode hex="005D"/>
  <outline>
    <contour>
      <point x="92" y="-267" type="line"/>
      <point x="540" y="-267" type="line"/>
      <point x="540" y="1511" type="line"/>
      <point x="92" y="1511" type="line"/>
      <point x="92" y="1408" type="line"/>
      <point x="401" y="1408" type="line"/>
      <point x="401" y="-164" type="line"/>
      <point x="92" y="-164" type="line"/>
    </contour>
  </outline>
</glyph>
<glyph name="asciicircum" format="1">
  <advance width="1158"/>
  <unicode hex="005E"/>
  <outline>
    <contour>
      <point x="83" y="561" type="line"/>
      <point x="201" y="561" type="line"/>
      <point x="565" y="1354" type="line"/>
      <point x="957" y="561" type="line"/>
      <point x="1072" y="561" type="line"/>
      <point x="611" y="1491" type="line"/>
      <point x="520" y="1491" type="line"/>
    </contour>
  </outline>
</glyph>
<glyph name="underscore" format="1">
  <advance width="1056"/>
  <unicode hex="005F"/>
  <outline>
    <contour>
      <point x="73" y="-127" type="line"/>
      <point x="981" y="-127" type="line"/>
      <point x="981" y="-17" type="line"/>
      <point x="73" y="-17" type="line"/>
    </contour>
  </outline>
</glyph>
<glyph name="grave" format="1">
  <advance width="696"/>
  <unicode hex="0060"/>
  <outline>
    <contour>
      <point x="455" y="1284" type="line"/>
      <point x="532" y="1284" type="line"/>
      <point x="341" y="1671" type="line"/>
      <point x="174" y="1671" type="line"/>
    </contour>
    <contour>
      <point x="353" y="1096" type="move" name="_top"/>
    </contour>
  </outline>
</glyph>
<glyph name="a" format="1">
  <advance width="1079"/>
  <unicode hex="0061"/>
  <outline>
    <contour>
      <point x="440" y="-24" type="curve" smooth="yes"/>
      <point x="575" y="-24"/>
      <point x="704" y="21"/>
      <point x="804" y="159" type="curve"/>
      <point x="810" y="121"/>
      <point x="821" y="38"/>
      <point x="828" y="0" type="curve"/>
      <point x="929" y="0" type="line"/>
      <point x="929" y="731" type="line" smooth="yes"/>
      <point x="929" y="1024"/>
      <point x="815" y="1116"/>
      <point x="558" y="1116" type="curve" smooth="yes"/>
      <point x="427" y="1116"/>
      <point x="280" y="1076"/>
      <point x="198" y="1023" type="curve"/>
      <point x="208" y="992"/>
      <point x="226" y="955"/>
      <point x="238" y="924" type="curve"/>
      <point x="340" y="980"/>
      <point x="455" y="1007"/>
      <point x="563" y="1007" type="curve" smooth="yes"/>
      <point x="735" y="1007"/>
      <point x="803" y="919"/>
      <point x="803" y="757" type="curve" smooth="yes"/>
      <point x="803" y="637" type="line"/>
      <point x="741" y="632"/>
      <point x="677" y="628"/>
      <point x="612" y="624" type="curve"/>
      <point x="308" y="600"/>
      <point x="99" y="513"/>
      <point x="99" y="278" type="curve" smooth="yes"/>
      <point x="99" y="79"/>
      <point x="239" y="-24"/>
    </contour>
    <contour>
      <point x="446" y="79" type="curve" smooth="yes"/>
      <point x="320" y="79"/>
      <point x="227" y="139"/>
      <point x="227" y="276" type="curve" smooth="yes"/>
      <point x="227" y="438"/>
      <point x="332" y="505"/>
      <point x="657" y="534" type="curve"/>
      <point x="695" y="535"/>
      <point x="765" y="543"/>
      <point x="800" y="546" type="curve"/>
      <point x="800" y="359" type="line"/>
      <point x="758" y="180"/>
      <point x="610" y="79"/>
    </contour>
    <contour>
      <point x="540" y="1096" type="move" name="top"/>
    </contour>
    <contour>
      <point x="971" y="10" type="move" name="ogonek"/>
    </contour>
  </outline>
</glyph>
<glyph name="b" format="1">
  <advance width="1190"/>
  <unicode hex="0062"/>
  <outline>
    <contour>
      <point x="623" y="-24" type="curve" smooth="yes"/>
      <point x="935" y="-24"/>
      <point x="1093" y="218"/>
      <point x="1093" y="549" type="curve" smooth="yes"/>
      <point x="1093" y="873"/>
      <point x="927" y="1116"/>
      <point x="623" y="1116" type="curve" smooth="yes"/>
      <point x="495" y="1116"/>
      <point x="356" y="1061"/>
      <point x="271" y="931" type="curve"/>
      <point x="274" y="996"/>
      <point x="274" y="1074"/>
      <point x="274" y="1164" type="curve" smooth="yes"/>
      <point x="274" y="1532" type="line"/>
      <point x="147" y="1521" type="line"/>
      <point x="147" y="0" type="line"/>
      <point x="255" y="0" type="line"/>
      <point x="268" y="158" type="line"/>
      <point x="357" y="35"/>
      <point x="478" y="-24"/>
    </contour>
    <contour>
      <point x="627" y="79" type="curve" smooth="yes"/>
      <point x="371" y="79"/>
      <point x="274" y="266"/>
      <point x="274" y="538" type="curve"/>
      <point x="273" y="839"/>
      <point x="397" y="1012"/>
      <point x="627" y="1012" type="curve" smooth="yes"/>
      <point x="880" y="1012"/>
      <point x="957" y="779"/>
      <point x="957" y="544" type="curve" smooth="yes"/>
      <point x="957" y="310"/>
      <point x="880" y="79"/>
    </contour>
  </outline>
</glyph>
<glyph name="c" format="1">
  <advance width="965"/>
  <unicode hex="0063"/>
  <outline>
    <contour>
      <point x="604" y="-24" type="curve" smooth="yes"/>
      <point x="703" y="-24"/>
      <point x="812" y="2"/>
      <point x="878" y="51" type="curve"/>
      <point x="859" y="144" type="line"/>
      <point x="780" y="109"/>
      <point x="690" y="83"/>
      <point x="600" y="83" type="curve" smooth="yes"/>
      <point x="369" y="83"/>
      <point x="231" y="270"/>
      <point x="231" y="538" type="curve" smooth="yes"/>
      <point x="231" y="818"/>
      <point x="372" y="1007"/>
      <point x="600" y="1007" type="curve" smooth="yes"/>
      <point x="667" y="1007"/>
      <point x="764" y="993"/>
      <point x="844" y="948" type="curve"/>
      <point x="884" y="1045" type="line"/>
      <point x="834" y="1083"/>
      <point x="716" y="1116"/>
      <point x="608" y="1116" type="curve" smooth="yes"/>
      <point x="276" y="1116"/>
      <point x="98" y="852"/>
      <point x="97" y="538" type="curve" smooth="yes"/>
      <point x="97" y="233"/>
      <point x="275" y="-24"/>
    </contour>
    <contour>
      <point x="483" y="1096" type="move" name="top"/>
    </contour>
    <contour>
      <point x="483" y="0" type="move" name="bottom"/>
    </contour>
  </outline>
</glyph>
<glyph name="d" format="1">
  <advance width="1186"/>
  <unicode hex="0064"/>
  <outline>
    <contour>
      <point x="560" y="-23" type="curve" smooth="yes"/>
      <point x="688" y="-23"/>
      <point x="834" y="36"/>
      <point x="914" y="164" type="curve"/>
      <point x="932" y="0" type="line"/>
      <point x="1039" y="0" type="line"/>
      <point x="1039" y="1532" type="line"/>
      <point x="914" y="1521" type="line"/>
      <point x="914" y="975" type="line" smooth="yes"/>
      <point x="915" y="936" type="line"/>
      <point x="839" y="1069"/>
      <point x="674" y="1116"/>
      <point x="557" y="1116" type="curve" smooth="yes"/>
      <point x="278" y="1116"/>
      <point x="97" y="883"/>
      <point x="97" y="549" type="curve" smooth="yes"/>
      <point x="97" y="193"/>
      <point x="269" y="-23"/>
    </contour>
    <contour>
      <point x="559" y="79" type="curve" smooth="yes"/>
      <point x="323" y="79"/>
      <point x="233" y="299"/>
      <point x="233" y="547" type="curve" smooth="yes"/>
      <point x="233" y="775"/>
      <point x="323" y="1011"/>
      <point x="557" y="1011" type="curve" smooth="yes"/>
      <point x="820" y="1011"/>
      <point x="914" y="819"/>
      <point x="914" y="526" type="curve"/>
      <point x="915" y="270"/>
      <point x="811" y="79"/>
    </contour>
    <contour>
      <point x="593" y="548" type="move" name="center"/>
    </contour>
  </outline>
</glyph>
<glyph name="e" format="1">
  <advance width="1094"/>
  <unicode hex="0065"/>
  <outline>
    <contour>
      <point x="593" y="-24" type="curve" smooth="yes"/>
      <point x="751" y="-24"/>
      <point x="862" y="13"/>
      <point x="968" y="78" type="curve"/>
      <point x="947" y="175" type="line"/>
      <point x="853" y="125"/>
      <point x="752" y="80"/>
      <point x="596" y="80" type="curve" smooth="yes"/>
      <point x="379" y="80"/>
      <point x="235" y="252"/>
      <point x="232" y="532" type="curve"/>
      <point x="994" y="532" type="line"/>
      <point x="994" y="553"/>
      <point x="995" y="589"/>
      <point x="995" y="608" type="curve" smooth="yes"/>
      <point x="995" y="919"/>
      <point x="824" y="1116"/>
      <point x="566" y="1116" type="curve" smooth="yes"/>
      <point x="289" y="1111"/>
      <point x="97" y="876"/>
      <point x="97" y="540" type="curve" smooth="yes"/>
      <point x="97" y="192"/>
      <point x="289" y="-24"/>
    </contour>
    <contour>
      <point x="237" y="634" type="line"/>
      <point x="257" y="853"/>
      <point x="373" y="1008"/>
      <point x="562" y="1008" type="curve" smooth="yes"/>
      <point x="741" y="1008"/>
      <point x="856" y="879"/>
      <point x="856" y="634" type="curve"/>
    </contour>
    <contour>
      <point x="547" y="1096" type="move" name="top"/>
    </contour>
    <contour>
      <point x="547" y="0" type="move" name="bottom"/>
    </contour>
    <contour>
      <point x="985" y="10" type="move" name="ogonek"/>
    </contour>
  </outline>
</glyph>
<glyph name="f" format="1">
  <advance width="641"/>
  <unicode hex="0066"/>
  <outline>
    <contour>
      <point x="216" y="0" type="line"/>
      <point x="344" y="0" type="line"/>
      <point x="344" y="1002" type="line"/>
      <point x="610" y="1002" type="line"/>
      <point x="610" y="1096" type="line"/>
      <point x="344" y="1096" type="line"/>
      <point x="344" y="1133" type="line" smooth="yes"/>
      <point x="344" y="1369"/>
      <point x="385" y="1459"/>
      <point x="539" y="1459" type="curve"/>
      <point x="583" y="1459"/>
      <point x="625" y="1453"/>
      <point x="670" y="1447" type="curve"/>
      <point x="679" y="1534" type="line"/>
      <point x="619" y="1543"/>
      <point x="576" y="1549"/>
      <point x="525" y="1549" type="curve"/>
      <point x="318" y="1549"/>
      <point x="216" y="1428"/>
      <point x="216" y="1138" type="curve" smooth="yes"/>
      <point x="216" y="1096" type="line"/>
      <point x="44" y="1082" type="line"/>
      <point x="36" y="1002" type="line"/>
      <point x="216" y="1002" type="line"/>
    </contour>
  </outline>
</glyph>
<glyph name="g" format="1">
  <advance width="1174"/>
  <unicode hex="0067"/>
  <outline>
    <contour>
      <point x="316" y="-508" type="line"/>
      <point x="515" y="-508" type="line" smooth="yes"/>
      <point x="1026" y="-508"/>
      <point x="1036" y="-156"/>
      <point x="1036" y="80" type="curve" smooth="yes"/>
      <point x="1036" y="1096" type="line"/>
      <point x="921" y="1096" type="line"/>
      <point x="910" y="943" type="line"/>
      <point x="818" y="1065"/>
      <point x="714" y="1116"/>
      <point x="575" y="1116" type="curve" smooth="yes"/>
      <point x="209" y="1116"/>
      <point x="89" y="821"/>
      <point x="89" y="540" type="curve" smooth="yes"/>
      <point x="89" y="316"/>
      <point x="213" y="0"/>
      <point x="552" y="0" type="curve" smooth="yes"/>
      <point x="726" y="0"/>
      <point x="832" y="80"/>
      <point x="909" y="196" type="curve"/>
      <point x="909" y="196"/>
      <point x="916" y="96"/>
      <point x="916" y="120" type="curve" smooth="yes"/>
      <point x="916" y="-188"/>
      <point x="892" y="-393"/>
      <point x="530" y="-393" type="curve" smooth="yes"/>
      <point x="301" y="-393" type="line"/>
    </contour>
    <contour>
      <point x="569" y="105" type="curve" smooth="yes"/>
      <point x="302" y="105"/>
      <point x="226" y="349"/>
      <point x="226" y="539" type="curve" smooth="yes"/>
      <point x="226" y="757"/>
      <point x="312" y="1011"/>
      <point x="566" y="1011" type="curve"/>
      <point x="817" y="1012"/>
      <point x="910" y="811"/>
      <point x="910" y="611" type="curve" smooth="yes"/>
      <point x="910" y="501" type="line" smooth="yes"/>
      <point x="911" y="310"/>
      <point x="819" y="105"/>
    </contour>
    <contour>
      <point x="587" y="1096" type="move" name="top"/>
    </contour>
  </outline>
</glyph>
<glyph name="h" format="1">
  <advance width="1145"/>
  <unicode hex="0068"/>
  <outline>
    <contour>
      <point x="147" y="0" type="line"/>
      <point x="275" y="0" type="line"/>
      <point x="275" y="618" type="line" smooth="yes"/>
      <point x="275" y="659"/>
      <point x="275" y="701"/>
      <point x="278" y="742" type="curve"/>
      <point x="306" y="895"/>
      <point x="437" y="1008"/>
      <point x="630" y="1008" type="curve" smooth="yes"/>
      <point x="826" y="1008"/>
      <point x="886" y="897"/>
      <point x="886" y="661" type="curve" smooth="yes"/>
      <point x="886" y="0" type="line"/>
      <point x="1013" y="0" type="line"/>
      <point x="1013" y="685" type="line" smooth="yes"/>
      <point x="1013" y="958"/>
      <point x="907" y="1116"/>
      <point x="655" y="1116" type="curve" smooth="yes"/>
      <point x="493" y="1116"/>
      <point x="363" y="1057"/>
      <point x="272" y="932" type="curve"/>
      <point x="274" y="993"/>
      <point x="275" y="957"/>
      <point x="275" y="1017" type="curve" smooth="yes"/>
      <point x="275" y="1532" type="line"/>
      <point x="147" y="1521" type="line"/>
    </contour>
    <contour>
      <point x="573" y="1096" type="move" name="top"/>
    </contour>
    <contour>
      <point x="573" y="548" type="move" name="center"/>
    </contour>
  </outline>
</glyph>
<glyph name="i" format="1">
  <advance width="447"/>
  <unicode hex="0069"/>
  <outline>
    <contour>
      <point x="168" y="0" type="line"/>
      <point x="297" y="0" type="line"/>
      <point x="297" y="1096" type="line"/>
      <point x="168" y="1096" type="line"/>
    </contour>
    <contour>
      <point x="168" y="1318" type="line"/>
      <point x="296" y="1318" type="line"/>
      <point x="296" y="1489" type="line"/>
      <point x="168" y="1489" type="line"/>
    </contour>
  </outline>
</glyph>
<glyph name="j" format="1">
  <advance width="412"/>
  <unicode hex="006A"/>
  <outline>
    <contour>
      <point x="-58" y="-545" type="line"/>
      <point x="-8" y="-545" type="line" smooth="yes"/>
      <point x="232" y="-545"/>
      <point x="290" y="-480"/>
      <point x="290" y="-237" type="curve" smooth="yes"/>
      <point x="290" y="1096" type="line"/>
      <point x="161" y="1096" type="line"/>
      <point x="161" y="-209" type="line" smooth="yes"/>
      <point x="161" y="-374"/>
      <point x="162" y="-440"/>
      <point x="-28" y="-440" type="curve" smooth="yes"/>
      <point x="-77" y="-440" type="line"/>
    </contour>
    <contour>
      <point x="161" y="1319" type="line"/>
      <point x="290" y="1319" type="line"/>
      <point x="290" y="1489" type="line"/>
      <point x="161" y="1489" type="line"/>
    </contour>
  </outline>
</glyph>
<glyph name="k" format="1">
  <advance width="991"/>
  <unicode hex="006B"/>
  <outline>
    <contour>
      <point x="149" y="0" type="line"/>
      <point x="276" y="0" type="line"/>
      <point x="276" y="449" type="line"/>
      <point x="403" y="565" type="line"/>
      <point x="820" y="0" type="line"/>
      <point x="982" y="0" type="line"/>
      <point x="492" y="638" type="line"/>
      <point x="950" y="1096" type="line"/>
      <point x="779" y="1096" type="line"/>
      <point x="765" y="1082"/>
      <point x="521" y="835"/>
      <point x="393" y="700" type="curve"/>
      <point x="376" y="680"/>
      <point x="291" y="590"/>
      <point x="276" y="571" type="curve"/>
      <point x="276" y="670" type="line"/>
      <point x="276" y="1532" type="line"/>
      <point x="149" y="1522" type="line"/>
    </contour>
    <contour>
      <point x="496" y="0" type="move" name="bottom"/>
    </contour>
  </outline>
</glyph>
<glyph name="l" format="1">
  <advance width="576"/>
  <unicode hex="006C"/>
  <outline>
    <contour>
      <point x="424" y="-23" type="curve" smooth="yes"/>
      <point x="462" y="-23"/>
      <point x="540" y="-10"/>
      <point x="584" y="1" type="curve"/>
      <point x="579" y="100" type="line"/>
      <point x="535" y="90"/>
      <point x="491" y="78"/>
      <point x="431" y="78" type="curve" smooth="yes"/>
      <point x="334" y="78"/>
      <point x="282" y="117"/>
      <point x="282" y="268" type="curve" smooth="yes"/>
      <point x="282" y="1532" type="line"/>
      <point x="156" y="1522" type="line"/>
      <point x="156" y="255" type="line" smooth="yes"/>
      <point x="156" y="56"/>
      <point x="240" y="-23"/>
    </contour>
    <contour>
      <point x="288" y="1096" type="move" name="top"/>
    </contour>
    <contour>
      <point x="288" y="0" type="move" name="bottom"/>
    </contour>
    <contour>
      <point x="556" y="1096" type="move" name="topright"/>
    </contour>
  </outline>
</glyph>
<glyph name="m" format="1">
  <advance width="1802"/>
  <unicode hex="006D"/>
  <outline>
    <contour>
      <point x="150" y="0" type="curve"/>
      <point x="278" y="0" type="line"/>
      <point x="278" y="620" type="line" smooth="yes"/>
      <point x="278" y="660"/>
      <point x="278" y="699"/>
      <point x="280" y="741" type="curve"/>
      <point x="315" y="902"/>
      <point x="441" y="1007"/>
      <point x="623" y="1007" type="curve" smooth="yes"/>
      <point x="822" y="1007"/>
      <point x="856" y="817"/>
      <point x="856" y="561" type="curve" smooth="yes"/>
      <point x="856" y="0" type="line"/>
      <point x="983" y="0" type="line"/>
      <point x="983" y="571" type="line"/>
      <point x="981" y="626"/>
      <point x="980" y="677"/>
      <point x="980" y="729" type="curve" smooth="yes"/>
      <point x="1025" y="904"/>
      <point x="1145" y="1007"/>
      <point x="1311" y="1007" type="curve" smooth="yes"/>
      <point x="1525" y="1007"/>
      <point x="1541" y="798"/>
      <point x="1541" y="539" type="curve" smooth="yes"/>
      <point x="1541" y="0" type="line"/>
      <point x="1669" y="0" type="line"/>
      <point x="1669" y="708" type="line" smooth="yes"/>
      <point x="1669" y="973"/>
      <point x="1564" y="1116"/>
      <point x="1319" y="1116" type="curve" smooth="yes"/>
      <point x="1161" y="1116"/>
      <point x="1032" y="1054"/>
      <point x="950" y="911" type="curve"/>
      <point x="920" y="1002"/>
      <point x="842" y="1116"/>
      <point x="621" y="1116" type="curve" smooth="yes"/>
      <point x="473" y="1116"/>
      <point x="337" y="1035"/>
      <point x="274" y="929" type="curve"/>
      <point x="258" y="1096" type="line"/>
      <point x="147" y="1096" type="line"/>
      <point x="147" y="997"/>
      <point x="150" y="0"/>
    </contour>
  </outline>
</glyph>
<glyph name="n" format="1">
  <advance width="1155"/>
  <unicode hex="006E"/>
  <outline>
    <contour>
      <point x="147" y="0" type="line"/>
      <point x="276" y="0" type="line"/>
      <point x="276" y="639" type="line" smooth="yes"/>
      <point x="276" y="671"/>
      <point x="277" y="706"/>
      <point x="280" y="742" type="curve"/>
      <point x="311" y="892"/>
      <point x="436" y="1007"/>
      <point x="639" y="1007" type="curve" smooth="yes"/>
      <point x="813" y="1007"/>
      <point x="880" y="925"/>
      <point x="886" y="733" type="curve" smooth="yes"/>
      <point x="887" y="729"/>
      <point x="887" y="0"/>
      <point x="887" y="0" type="curve"/>
      <point x="1016" y="0" type="line"/>
      <point x="1016" y="681" type="line" smooth="yes"/>
      <point x="1016" y="986"/>
      <point x="898" y="1116"/>
      <point x="648" y="1116" type="curve" smooth="yes"/>
      <point x="495" y="1116"/>
      <point x="354" y="1044"/>
      <point x="275" y="928" type="curve"/>
      <point x="258" y="1096" type="line"/>
      <point x="147" y="1096" type="line"/>
    </contour>
    <contour>
      <point x="578" y="1096" type="move" name="top"/>
    </contour>
    <contour>
      <point x="578" y="0" type="move" name="bottom"/>
    </contour>
  </outline>
</glyph>
<glyph name="o" format="1">
  <advance width="1191"/>
  <unicode hex="006F"/>
  <outline>
    <contour>
      <point x="608" y="80" type="curve" smooth="yes"/>
      <point x="359" y="80"/>
      <point x="224" y="284"/>
      <point x="224" y="542" type="curve" smooth="yes"/>
      <point x="224" y="805"/>
      <point x="368" y="1012"/>
      <point x="608" y="1012" type="curve" smooth="yes"/>
      <point x="864" y="1012"/>
      <point x="992" y="810"/>
      <point x="992" y="545" type="curve" smooth="yes"/>
      <point x="992" y="283"/>
      <point x="854" y="80"/>
    </contour>
    <contour>
      <point x="608" y="-24" type="curve" smooth="yes"/>
      <point x="927" y="-24"/>
      <point x="1120" y="221"/>
      <point x="1120" y="547" type="curve" smooth="yes"/>
      <point x="1120" y="870"/>
      <point x="925" y="1116"/>
      <point x="608" y="1116" type="curve" smooth="yes"/>
      <point x="293" y="1116"/>
      <point x="96" y="871"/>
      <point x="96" y="545" type="curve" smooth="yes"/>
      <point x="96" y="222"/>
      <point x="303" y="-24"/>
    </contour>
    <contour>
      <point x="595" y="1096" type="move" name="top"/>
    </contour>
  </outline>
</glyph>
<glyph name="p" format="1">
  <advance width="1178"/>
  <unicode hex="0070"/>
  <outline>
    <contour>
      <point x="147" y="-487" type="line"/>
      <point x="275" y="-478" type="line"/>
      <point x="275" y="-79" type="line" smooth="yes"/>
      <point x="275" y="7"/>
      <point x="273" y="86"/>
      <point x="270" y="160" type="curve"/>
      <point x="343" y="52"/>
      <point x="479" y="-24"/>
      <point x="625" y="-24" type="curve" smooth="yes"/>
      <point x="910" y="-24"/>
      <point x="1081" y="213"/>
      <point x="1081" y="536" type="curve" smooth="yes"/>
      <point x="1081" y="881"/>
      <point x="936" y="1116"/>
      <point x="615" y="1116" type="curve" smooth="yes"/>
      <point x="465" y="1116"/>
      <point x="366" y="1049"/>
      <point x="273" y="941" type="curve"/>
      <point x="261" y="1096" type="line"/>
      <point x="147" y="1096" type="line"/>
    </contour>
    <contour>
      <point x="615" y="82" type="curve" smooth="yes"/>
      <point x="353" y="82"/>
      <point x="274" y="274"/>
      <point x="274" y="563" type="curve"/>
      <point x="274" y="818"/>
      <point x="362" y="1008"/>
      <point x="614" y="1008" type="curve" smooth="yes"/>
      <point x="852" y="1008"/>
      <point x="947" y="770"/>
      <point x="947" y="544" type="curve" smooth="yes"/>
      <point x="947" y="321"/>
      <point x="849" y="82"/>
    </contour>
  </outline>
</glyph>
<glyph name="q" format="1">
  <advance width="1182"/>
  <unicode hex="0071"/>
  <outline>
    <contour>
      <point x="907" y="-487" type="line"/>
      <point x="1035" y="-480" type="line"/>
      <point x="1035" y="1096" type="line"/>
      <point x="921" y="1096" type="line"/>
      <point x="912" y="932" type="line"/>
      <point x="819" y="1050"/>
      <point x="703" y="1116"/>
      <point x="562" y="1116" type="curve" smooth="yes"/>
      <point x="256" y="1116"/>
      <point x="97" y="874"/>
      <point x="97" y="533" type="curve" smooth="yes"/>
      <point x="97" y="214"/>
      <point x="258" y="-24"/>
      <point x="554" y="-24" type="curve" smooth="yes"/>
      <point x="678" y="-24"/>
      <point x="830" y="35"/>
      <point x="912" y="164" type="curve"/>
      <point x="909" y="123"/>
      <point x="907" y="73"/>
      <point x="907" y="13" type="curve" smooth="yes"/>
    </contour>
    <contour>
      <point x="556" y="88" type="curve" smooth="yes"/>
      <point x="314" y="88"/>
      <point x="232" y="309"/>
      <point x="232" y="544" type="curve" smooth="yes"/>
      <point x="232" y="769"/>
      <point x="314" y="1006"/>
      <point x="555" y="1006" type="curve" smooth="yes"/>
      <point x="816" y="1006"/>
      <point x="904" y="813"/>
      <point x="904" y="525" type="curve"/>
      <point x="901" y="266"/>
      <point x="809" y="88"/>
    </contour>
  </outline>
</glyph>
<glyph name="r" format="1">
  <advance width="718"/>
  <unicode hex="0072"/>
  <outline>
    <contour>
      <point x="149" y="0" type="curve"/>
      <point x="276" y="0" type="line"/>
      <point x="276" y="628" type="line" smooth="yes"/>
      <point x="276" y="823"/>
      <point x="415" y="994"/>
      <point x="603" y="994" type="curve" smooth="yes"/>
      <point x="625" y="994"/>
      <point x="649" y="993"/>
      <point x="679" y="988" type="curve"/>
      <point x="688" y="1096" type="line"/>
      <point x="661" y="1100"/>
      <point x="632" y="1102"/>
      <point x="601" y="1102" type="curve" smooth="yes"/>
      <point x="465" y="1102"/>
      <point x="336" y="1006"/>
      <point x="261" y="882" type="curve"/>
      <point x="253" y="1096" type="line"/>
      <point x="147" y="1096" type="line"/>
      <point x="147" y="969"/>
      <point x="149" y="0"/>
    </contour>
    <contour>
      <point x="359" y="1096" type="move" name="top"/>
    </contour>
    <contour>
      <point x="359" y="0" type="move" name="bottom"/>
    </contour>
  </outline>
</glyph>
<glyph name="s" format="1">
  <advance width="945"/>
  <unicode hex="0073"/>
  <outline>
    <contour>
      <point x="467" y="-25" type="curve" smooth="yes"/>
      <point x="695" y="-25"/>
      <point x="850" y="83"/>
      <point x="854" y="279" type="curve" smooth="yes"/>
      <point x="854" y="443"/>
      <point x="777" y="530"/>
      <point x="544" y="602" type="curve" smooth="yes"/>
      <point x="529" y="607"/>
      <point x="477" y="627"/>
      <point x="452" y="635" type="curve" smooth="yes"/>
      <point x="277" y="684"/>
      <point x="236" y="727"/>
      <point x="236" y="822" type="curve" smooth="yes"/>
      <point x="236" y="938"/>
      <point x="329" y="1011"/>
      <point x="483" y="1011" type="curve" smooth="yes"/>
      <point x="588" y="1011"/>
      <point x="684" y="985"/>
      <point x="769" y="953" type="curve"/>
      <point x="812" y="1048" type="line"/>
      <point x="717" y="1090"/>
      <point x="610" y="1116"/>
      <point x="485" y="1116" type="curve" smooth="yes"/>
      <point x="240" y="1116"/>
      <point x="108" y="968"/>
      <point x="108" y="824" type="curve" smooth="yes"/>
      <point x="109" y="707"/>
      <point x="170" y="605"/>
      <point x="368" y="545" type="curve" smooth="yes"/>
      <point x="376" y="542"/>
      <point x="462" y="512"/>
      <point x="462" y="512" type="curve" smooth="yes"/>
      <point x="685" y="441"/>
      <point x="733" y="389"/>
      <point x="733" y="282" type="curve" smooth="yes"/>
      <point x="727" y="146"/>
      <point x="625" y="84"/>
      <point x="455" y="84" type="curve" smooth="yes"/>
      <point x="320" y="84"/>
      <point x="208" y="134"/>
      <point x="138" y="171" type="curve"/>
      <point x="120" y="63" type="line"/>
      <point x="185" y="20"/>
      <point x="315" y="-25"/>
    </contour>
    <contour>
      <point x="473" y="1096" type="move" name="top"/>
    </contour>
    <contour>
      <point x="473" y="0" type="move" name="bottom"/>
    </contour>
  </outline>
</glyph>
<glyph name="t" format="1">
  <advance width="675"/>
  <unicode hex="0074"/>
  <outline>
    <contour>
      <point x="460" y="-23" type="curve" smooth="yes"/>
      <point x="499" y="-23"/>
      <point x="543" y="-19"/>
      <point x="646" y="1" type="curve"/>
      <point x="641" y="100" type="line"/>
      <point x="596" y="90"/>
      <point x="537" y="78"/>
      <point x="488" y="78" type="curve" smooth="yes"/>
      <point x="366" y="78"/>
      <point x="316" y="115"/>
      <point x="316" y="276" type="curve" smooth="yes"/>
      <point x="316" y="1002" type="line"/>
      <point x="635" y="1002" type="line"/>
      <point x="635" y="1096" type="line"/>
      <point x="316" y="1096" type="line"/>
      <point x="316" y="1351" type="line"/>
      <point x="227" y="1345" type="line"/>
      <point x="192" y="1094" type="line"/>
      <point x="43" y="1080" type="line"/>
      <point x="34" y="1002" type="line"/>
      <point x="190" y="1002" type="line"/>
      <point x="190" y="1002"/>
      <point x="190" y="254"/>
      <point x="190" y="250" type="curve" smooth="yes"/>
      <point x="191" y="56"/>
      <point x="274" y="-23"/>
    </contour>
    <contour>
      <point x="338" y="0" type="move" name="bottom"/>
    </contour>
    <contour>
      <point x="338" y="548" type="move" name="center"/>
    </contour>
  </outline>
</glyph>
<glyph name="u" format="1">
  <advance width="1096"/>
  <unicode hex="0075"/>
  <outline>
    <contour>
      <point x="550" y="-27" type="curve" smooth="yes"/>
      <point x="768" y="-27"/>
      <point x="980" y="62"/>
      <point x="980" y="352" type="curve" smooth="yes"/>
      <point x="980" y="1096" type="line"/>
      <point x="851" y="1096" type="line"/>
      <point x="851" y="349" type="line" smooth="yes"/>
      <point x="851" y="136"/>
      <point x="714" y="87"/>
      <point x="550" y="87" type="curve" smooth="yes"/>
      <point x="385" y="87"/>
      <point x="245" y="134"/>
      <point x="245" y="349" type="curve" smooth="yes"/>
      <point x="245" y="1096" type="line"/>
      <point x="117" y="1096" type="line"/>
      <point x="117" y="352" type="line" smooth="yes"/>
      <point x="117" y="66"/>
      <point x="332" y="-27"/>
    </contour>
    <contour>
      <point x="548" y="1096" type="move" name="top"/>
    </contour>
    <contour>
      <point x="986" y="10" type="move" name="ogonek"/>
    </contour>
  </outline>
</glyph>
<glyph name="v" format="1">
  <advance width="993"/>
  <unicode hex="0076"/>
  <outline>
    <contour>
      <point x="419" y="0" type="line"/>
      <point x="567" y="0" type="line"/>
      <point x="992" y="1096" type="line"/>
      <point x="855" y="1096" type="line"/>
      <point x="707" y="645"/>
      <point x="671" y="621"/>
      <point x="603" y="406" type="curve"/>
      <point x="553" y="250"/>
      <point x="535" y="240"/>
      <point x="499" y="116" type="curve"/>
      <point x="499" y="116"/>
      <point x="436" y="267"/>
      <point x="391" y="409" type="curve"/>
      <point x="138" y="1096" type="line"/>
      <point x="1" y="1096" type="line"/>
    </contour>
  </outline>
</glyph>
<glyph name="w" format="1">
  <advance width="1562"/>
  <unicode hex="0077"/>
  <outline>
    <contour>
      <point x="328" y="0" type="line"/>
      <point x="476" y="0" type="line"/>
      <point x="486" y="29"/>
      <point x="758" y="857"/>
      <point x="790" y="996" type="curve"/>
      <point x="824" y="875"/>
      <point x="1077" y="29"/>
      <point x="1090" y="0" type="curve"/>
      <point x="1238" y="0" type="line"/>
      <point x="1540" y="1096" type="line"/>
      <point x="1407" y="1096" type="line"/>
      <point x="1166" y="128" type="line"/>
      <point x="1156" y="157"/>
      <point x="906" y="967"/>
      <point x="866" y="1096" type="curve"/>
      <point x="710" y="1096" type="line"/>
      <point x="672" y="976"/>
      <point x="416" y="154"/>
      <point x="407" y="125" type="curve"/>
      <point x="156" y="1096" type="line"/>
      <point x="22" y="1096" type="line"/>
    </contour>
    <contour>
      <point x="781" y="1096" type="move" name="top"/>
    </contour>
  </outline>
</glyph>
<glyph name="x" format="1">
  <advance width="1016"/>
  <unicode hex="0078"/>
  <outline>
    <contour>
      <point x="36" y="0" type="line"/>
      <point x="181" y="0" type="line"/>
      <point x="511" y="463" type="line"/>
      <point x="842" y="0" type="line"/>
      <point x="980" y="0" type="line"/>
      <point x="577" y="551" type="line"/>
      <point x="972" y="1096" type="line"/>
      <point x="826" y="1096" type="line"/>
      <point x="510" y="647" type="line"/>
      <point x="193" y="1096" type="line"/>
      <point x="50" y="1096" type="line"/>
      <point x="445" y="555" type="line"/>
    </contour>
  </outline>
</glyph>
<glyph name="y" format="1">
  <advance width="985"/>
  <unicode hex="0079"/>
  <outline>
    <contour>
      <point x="101" y="-518" type="curve" smooth="yes"/>
      <point x="319" y="-518"/>
      <point x="426" y="-397"/>
      <point x="512" y="-189" type="curve" smooth="yes"/>
      <point x="532" y="-134"/>
      <point x="970" y="1096"/>
      <point x="970" y="1096" type="curve"/>
      <point x="836" y="1096" type="line"/>
      <point x="862" y="1213"/>
      <point x="512" y="117"/>
      <point x="512" y="117" type="curve"/>
      <point x="141" y="1096" type="line"/>
      <point x="7" y="1096" type="line"/>
      <point x="444" y="-6" type="line"/>
      <point x="421" y="-74"/>
      <point x="396" y="-138"/>
      <point x="374" y="-197" type="curve" smooth="yes"/>
      <point x="309" y="-365"/>
      <point x="240" y="-407"/>
      <point x="76" y="-407" type="curve" smooth="yes"/>
      <point x="53" y="-407"/>
      <point x="30" y="-405"/>
      <point x="5" y="-404" type="curve"/>
      <point x="14" y="-510" type="line"/>
      <point x="42" y="-515"/>
      <point x="71" y="-518"/>
    </contour>
    <contour>
      <point x="493" y="1096" type="move" name="top"/>
    </contour>
  </outline>
</glyph>
<glyph name="z" format="1">
  <advance width="885"/>
  <unicode hex="007A"/>
  <outline>
    <contour>
      <point x="88" y="0" type="line"/>
      <point x="819" y="0" type="line"/>
      <point x="819" y="97" type="line"/>
      <point x="222" y="97" type="line"/>
      <point x="801" y="978" type="line"/>
      <point x="801" y="1096" type="line"/>
      <point x="99" y="1096" type="line"/>
      <point x="99" y="994" type="line"/>
      <point x="666" y="994" type="line"/>
      <point x="88" y="106" type="line"/>
    </contour>
    <contour>
      <point x="443" y="1096" type="move" name="top"/>
    </contour>
  </outline>
</glyph>
<glyph name="braceleft" format="1">
  <advance width="711"/>
  <unicode hex="007B"/>
  <outline>
    <contour>
      <point x="616" y="-277" type="curve"/>
      <point x="616" y="-177" type="line"/>
      <point x="469" y="-175"/>
      <point x="423" y="-110"/>
      <point x="423" y="82" type="curve" smooth="yes"/>
      <point x="423" y="343" type="line" smooth="yes"/>
      <point x="423" y="450"/>
      <point x="381" y="584"/>
      <point x="249" y="636" type="curve"/>
      <point x="368" y="725"/>
      <point x="423" y="819"/>
      <point x="423" y="931" type="curve"/>
      <point x="423" y="1195" type="line" smooth="yes"/>
      <point x="423" y="1380"/>
      <point x="467" y="1453"/>
      <point x="616" y="1455" type="curve"/>
      <point x="616" y="1555" type="line"/>
      <point x="409" y="1555"/>
      <point x="294" y="1432"/>
      <point x="294" y="1235" type="curve" smooth="yes"/>
      <point x="294" y="1021" type="line" smooth="yes"/>
      <point x="294" y="818"/>
      <point x="306" y="695"/>
      <point x="85" y="690" type="curve"/>
      <point x="85" y="587" type="line"/>
      <point x="274" y="587"/>
      <point x="294" y="436"/>
      <point x="294" y="256" type="curve" smooth="yes"/>
      <point x="294" y="92" type="line" smooth="yes"/>
      <point x="294" y="-138"/>
      <point x="378" y="-276"/>
    </contour>
  </outline>
</glyph>
<glyph name="bar" format="1">
  <advance width="815"/>
  <unicode hex="007C"/>
  <outline>
    <contour>
      <point x="347" y="-412" type="line"/>
      <point x="468" y="-412" type="line"/>
      <point x="468" y="1603" type="line"/>
      <point x="347" y="1603" type="line"/>
    </contour>
  </outline>
</glyph>
<glyph name="braceright" format="1">
  <advance width="718"/>
  <unicode hex="007D"/>
  <outline>
    <contour>
      <point x="99" y="-277" type="line"/>
      <point x="310" y="-276"/>
      <point x="421" y="-152"/>
      <point x="421" y="41" type="curve" smooth="yes"/>
      <point x="421" y="256" type="line" smooth="yes"/>
      <point x="421" y="434"/>
      <point x="440" y="587"/>
      <point x="631" y="587" type="curve"/>
      <point x="631" y="690" type="line"/>
      <point x="435" y="694"/>
      <point x="421" y="839"/>
      <point x="421" y="1021" type="curve" smooth="yes"/>
      <point x="421" y="1185" type="line" smooth="yes"/>
      <point x="421" y="1412"/>
      <point x="332" y="1555"/>
      <point x="99" y="1555" type="curve"/>
      <point x="99" y="1455" type="line"/>
      <point x="246" y="1453"/>
      <point x="292" y="1380"/>
      <point x="292" y="1195" type="curve" smooth="yes"/>
      <point x="292" y="931" type="line"/>
      <point x="291" y="824"/>
      <point x="334" y="685"/>
      <point x="464" y="645" type="curve"/>
      <point x="325" y="521"/>
      <point x="292" y="462"/>
      <point x="292" y="343" type="curve" smooth="yes"/>
      <point x="292" y="82" type="line" smooth="yes"/>
      <point x="292" y="-109"/>
      <point x="244" y="-175"/>
      <point x="99" y="-177" type="curve"/>
    </contour>
  </outline>
</glyph>
<glyph name="asciitilde" format="1">
  <advance width="1238"/>
  <unicode hex="007E"/>
  <outline>
    <contour>
      <point x="158" y="522" type="line"/>
      <point x="205" y="615"/>
      <point x="290" y="689"/>
      <point x="378" y="689" type="curve" smooth="yes"/>
      <point x="447" y="689"/>
      <point x="527" y="650"/>
      <point x="639" y="597" type="curve"/>
      <point x="721" y="560"/>
      <point x="794" y="535"/>
      <point x="862" y="535" type="curve" smooth="yes"/>
      <point x="986" y="535"/>
      <point x="1060" y="605"/>
      <point x="1109" y="742" type="curve"/>
      <point x="1059" y="814" type="line"/>
      <point x="1028" y="731"/>
      <point x="944" y="646"/>
      <point x="862" y="646" type="curve" smooth="yes"/>
      <point x="802" y="646"/>
      <point x="720" y="691"/>
      <point x="620" y="735" type="curve"/>
      <point x="516" y="783"/>
      <point x="460" y="803"/>
      <point x="380" y="803" type="curve" smooth="yes"/>
      <point x="251" y="803"/>
      <point x="161" y="717"/>
      <point x="116" y="603" type="curve"/>
    </contour>
  </outline>
</glyph>
<glyph name="exclamdown" format="1">
  <advance width="644"/>
  <unicode hex="00A1"/>
  <outline>
    <contour>
      <point x="231" y="-363" type="line"/>
      <point x="410" y="-363" type="line"/>
      <point x="410" y="-268" type="line"/>
      <point x="349" y="730" type="line"/>
      <point x="282" y="730" type="line"/>
      <point x="231" y="-268" type="line"/>
    </contour>
    <contour>
      <point x="322" y="926" type="curve" smooth="yes"/>
      <point x="410" y="926"/>
      <point x="447" y="989"/>
      <point x="447" y="1045" type="curve" smooth="yes"/>
      <point x="447" y="1101"/>
      <point x="410" y="1164"/>
      <point x="322" y="1164" type="curve" smooth="yes"/>
      <point x="232" y="1164"/>
      <point x="198" y="1101"/>
      <point x="198" y="1045" type="curve" smooth="yes"/>
      <point x="198" y="989"/>
      <point x="232" y="926"/>
    </contour>
  </outline>
</glyph>
<glyph name="cent" format="1">
  <advance width="996"/>
  <unicode hex="00A2"/>
  <outline>
    <contour>
      <point x="565" y="-146" type="line"/>
      <point x="644" y="-146" type="line"/>
      <point x="644" y="-9" type="line"/>
      <point x="740" y="-2"/>
      <point x="847" y="32"/>
      <point x="907" y="92" type="curve"/>
      <point x="869" y="179" type="line"/>
      <point x="811" y="141"/>
      <point x="733" y="107"/>
      <point x="644" y="98" type="curve"/>
      <point x="644" y="1038" type="line"/>
      <point x="713" y="1033"/>
      <point x="787" y="1019"/>
      <point x="868" y="965" type="curve"/>
      <point x="910" y="1051" type="line"/>
      <point x="857" y="1103"/>
      <point x="757" y="1140"/>
      <point x="644" y="1145" type="curve"/>
      <point x="644" y="1302" type="line"/>
      <point x="565" y="1302" type="line"/>
      <point x="565" y="1144" type="line"/>
      <point x="256" y="1112"/>
      <point x="96" y="811"/>
      <point x="94" y="557" type="curve" smooth="yes"/>
      <point x="94" y="305"/>
      <point x="251" y="20"/>
      <point x="565" y="-9" type="curve"/>
    </contour>
    <contour>
      <point x="565" y="100" type="line"/>
      <point x="364" y="131"/>
      <point x="234" y="328"/>
      <point x="234" y="555" type="curve" smooth="yes"/>
      <point x="234" y="794"/>
      <point x="373" y="1008"/>
      <point x="565" y="1037" type="curve"/>
    </contour>
  </outline>
</glyph>
<glyph name="sterling" format="1">
  <advance width="1125"/>
  <unicode hex="00A3"/>
  <outline>
    <contour>
      <point x="101" y="0" type="line"/>
      <point x="1056" y="0" type="line"/>
      <point x="1044" y="118" type="line"/>
      <point x="506" y="118" type="line"/>
      <point x="390" y="118"/>
      <point x="382" y="108"/>
      <point x="263" y="102" type="curve"/>
      <point x="395" y="193"/>
      <point x="408" y="337"/>
      <point x="408" y="525" type="curve" smooth="yes"/>
      <point x="408" y="694" type="line"/>
      <point x="834" y="694" type="line"/>
      <point x="834" y="801" type="line"/>
      <point x="408" y="801" type="line"/>
      <point x="408" y="979" type="line" smooth="yes"/>
      <point x="408" y="1233"/>
      <point x="471" y="1402"/>
      <point x="691" y="1402" type="curve" smooth="yes"/>
      <point x="794" y="1402"/>
      <point x="883" y="1368"/>
      <point x="971" y="1298" type="curve"/>
      <point x="1039" y="1388" type="line"/>
      <point x="953" y="1460"/>
      <point x="840" y="1514"/>
      <point x="693" y="1514" type="curve" smooth="yes"/>
      <point x="325" y="1514"/>
      <point x="276" y="1192"/>
      <point x="276" y="892" type="curve" smooth="yes"/>
      <point x="276" y="801" type="line"/>
      <point x="90" y="801" type="line"/>
      <point x="90" y="695" type="line"/>
      <point x="276" y="695" type="line"/>
      <point x="276" y="437" type="line" smooth="yes"/>
      <point x="276" y="276"/>
      <point x="229" y="157"/>
      <point x="91" y="108" type="curve"/>
    </contour>
  </outline>
</glyph>
<glyph name="currency" format="1">
  <advance width="1146"/>
  <unicode hex="00A4"/>
  <outline>
    <contour>
      <point x="1027" y="234" type="line"/>
      <point x="1088" y="296" type="line"/>
      <point x="906" y="475" type="line"/>
      <point x="960" y="547"/>
      <point x="990" y="634"/>
      <point x="990" y="732" type="curve" smooth="yes"/>
      <point x="990" y="822"/>
      <point x="959" y="910"/>
      <point x="905" y="988" type="curve"/>
      <point x="1089" y="1167" type="line"/>
      <point x="1027" y="1230" type="line"/>
      <point x="840" y="1053" type="line"/>
      <point x="766" y="1116"/>
      <point x="676" y="1151"/>
      <point x="574" y="1151" type="curve" smooth="yes"/>
      <point x="473" y="1151"/>
      <point x="381" y="1117"/>
      <point x="307" y="1053" type="curve"/>
      <point x="122" y="1230" type="line"/>
      <point x="57" y="1170" type="line"/>
      <point x="243" y="988" type="line"/>
      <point x="188" y="913"/>
      <point x="157" y="826"/>
      <point x="157" y="732" type="curve" smooth="yes"/>
      <point x="157" y="637"/>
      <point x="188" y="549"/>
      <point x="243" y="475" type="curve"/>
      <point x="58" y="295" type="line"/>
      <point x="122" y="235" type="line"/>
      <point x="307" y="412" type="line"/>
      <point x="380" y="348"/>
      <point x="471" y="314"/>
      <point x="574" y="314" type="curve" smooth="yes"/>
      <point x="676" y="314"/>
      <point x="766" y="350"/>
      <point x="840" y="412" type="curve"/>
    </contour>
    <contour>
      <point x="574" y="404" type="curve" smooth="yes"/>
      <point x="397" y="404"/>
      <point x="253" y="550"/>
      <point x="253" y="732" type="curve" smooth="yes"/>
      <point x="253" y="913"/>
      <point x="396" y="1061"/>
      <point x="574" y="1061" type="curve" smooth="yes"/>
      <point x="751" y="1061"/>
      <point x="895" y="912"/>
      <point x="895" y="732" type="curve" smooth="yes"/>
      <point x="895" y="552"/>
      <point x="752" y="404"/>
    </contour>
  </outline>
</glyph>
<glyph name="yen" format="1">
  <advance width="1163"/>
  <unicode hex="00A5"/>
  <outline>
    <contour>
      <point x="500" y="0" type="line"/>
      <point x="633" y="0" type="line"/>
      <point x="633" y="334" type="line"/>
      <point x="1032" y="334" type="line"/>
      <point x="1032" y="446" type="line"/>
      <point x="633" y="446" type="line"/>
      <point x="633" y="627" type="line"/>
      <point x="1033" y="627" type="line"/>
      <point x="1033" y="740" type="line"/>
      <point x="716" y="740" type="line"/>
      <point x="1156" y="1487" type="line"/>
      <point x="1012" y="1487" type="line"/>
      <point x="574" y="715" type="line"/>
      <point x="150" y="1487" type="line"/>
      <point x="7" y="1487" type="line"/>
      <point x="431" y="740" type="line"/>
      <point x="99" y="740" type="line"/>
      <point x="99" y="627" type="line"/>
      <point x="500" y="627" type="line"/>
      <point x="500" y="446" type="line"/>
      <point x="100" y="446" type="line"/>
      <point x="100" y="334" type="line"/>
      <point x="500" y="334" type="line"/>
    </contour>
  </outline>
</glyph>
<glyph name="brokenbar" format="1">
  <advance width="776"/>
  <unicode hex="00A6"/>
  <outline>
    <contour>
      <point x="328" y="-219" type="line"/>
      <point x="451" y="-219" type="line"/>
      <point x="451" y="484" type="line"/>
      <point x="328" y="484" type="line"/>
    </contour>
    <contour>
      <point x="328" y="852" type="line"/>
      <point x="451" y="852" type="line"/>
      <point x="451" y="1552" type="line"/>
      <point x="328" y="1552" type="line"/>
    </contour>
  </outline>
</glyph>
<glyph name="dieresis" format="1">
  <advance width="769"/>
  <unicode hex="00A8"/>
  <outline>
    <contour>
      <point x="134" y="1265" type="line"/>
      <point x="272" y="1265" type="line"/>
      <point x="272" y="1445" type="line"/>
      <point x="134" y="1445" type="line"/>
    </contour>
    <contour>
      <point x="512" y="1265" type="line"/>
      <point x="650" y="1265" type="line"/>
      <point x="650" y="1445" type="line"/>
      <point x="512" y="1445" type="line"/>
    </contour>
    <contour>
      <point x="392" y="1096" type="move" name="_top"/>
    </contour>
  </outline>
</glyph>
<glyph name="copyright" format="1">
  <advance width="1882"/>
  <unicode hex="00A9"/>
  <outline>
    <contour>
      <point x="928" y="183" type="curve" smooth="yes"/>
      <point x="1053" y="183"/>
      <point x="1189" y="226"/>
      <point x="1256" y="266" type="curve"/>
      <point x="1219" y="369" type="line"/>
      <point x="1171" y="333"/>
      <point x="1054" y="291"/>
      <point x="957" y="291" type="curve" smooth="yes"/>
      <point x="699" y="291"/>
      <point x="580" y="478"/>
      <point x="580" y="721" type="curve" smooth="yes"/>
      <point x="580" y="936"/>
      <point x="693" y="1135"/>
      <point x="938" y="1135" type="curve" smooth="yes"/>
      <point x="1043" y="1135"/>
      <point x="1165" y="1093"/>
      <point x="1224" y="1040" type="curve"/>
      <point x="1252" y="1149" type="line"/>
      <point x="1170" y="1207"/>
      <point x="1063" y="1243"/>
      <point x="943" y="1243" type="curve" smooth="yes"/>
      <point x="643" y="1243"/>
      <point x="448" y="1022"/>
      <point x="448" y="715" type="curve" smooth="yes"/>
      <point x="448" y="411"/>
      <point x="649" y="183"/>
    </contour>
    <contour>
      <point x="925" y="-15" type="curve" smooth="yes"/>
      <point x="573" y="-15"/>
      <point x="240" y="233"/>
      <point x="240" y="709" type="curve" smooth="yes"/>
      <point x="240" y="1186"/>
      <point x="566" y="1431"/>
      <point x="913" y="1431" type="curve" smooth="yes"/>
      <point x="1271" y="1431"/>
      <point x="1611" y="1175"/>
      <point x="1611" y="702" type="curve" smooth="yes"/>
      <point x="1612" y="234"/>
      <point x="1280" y="-14"/>
    </contour>
    <contour>
      <point x="922" y="-107" type="curve" smooth="yes"/>
      <point x="1324" y="-107"/>
      <point x="1724" y="165"/>
      <point x="1724" y="706" type="curve" smooth="yes"/>
      <point x="1724" y="1246"/>
      <point x="1319" y="1521"/>
      <point x="916" y="1521" type="curve" smooth="yes"/>
      <point x="520" y="1521"/>
      <point x="128" y="1253"/>
      <point x="128" y="706" type="curve" smooth="yes"/>
      <point x="128" y="163"/>
      <point x="524" y="-107"/>
    </contour>
  </outline>
</glyph>
<glyph name="ordfeminine" format="1">
  <advance width="867"/>
  <unicode hex="00AA"/>
  <outline>
    <contour>
      <point x="411" y="917" type="curve" smooth="yes"/>
      <point x="508" y="917"/>
      <point x="537" y="957"/>
      <point x="574" y="1019" type="curve"/>
      <point x="560" y="947" type="line"/>
      <point x="657" y="947" type="line"/>
      <point x="647" y="1120"/>
      <point x="645" y="1077"/>
      <point x="645" y="1102" type="curve"/>
      <point x="649" y="1405" type="line" smooth="yes"/>
      <point x="649" y="1596"/>
      <point x="553" y="1682"/>
      <point x="443" y="1682" type="curve" smooth="yes"/>
      <point x="325" y="1682"/>
      <point x="247" y="1651"/>
      <point x="193" y="1496" type="curve"/>
      <point x="277" y="1456" type="line"/>
      <point x="315" y="1588"/>
      <point x="368" y="1580"/>
      <point x="450" y="1580" type="curve" smooth="yes"/>
      <point x="564" y="1580"/>
      <point x="583" y="1518"/>
      <point x="588" y="1384" type="curve" smooth="yes"/>
      <point x="588" y="1373"/>
      <point x="588" y="1395"/>
      <point x="588" y="1383" type="curve"/>
      <point x="287" y="1375"/>
      <point x="192" y="1325"/>
      <point x="192" y="1155" type="curve" smooth="yes"/>
      <point x="192" y="1021"/>
      <point x="277" y="917"/>
    </contour>
    <contour>
      <point x="160" y="754" type="line"/>
      <point x="687" y="754" type="line"/>
      <point x="687" y="844" type="line"/>
      <point x="160" y="844" type="line"/>
    </contour>
    <contour>
      <point x="431" y="1008" type="curve" smooth="yes"/>
      <point x="330" y="1008"/>
      <point x="266" y="1040"/>
      <point x="266" y="1145" type="curve" smooth="yes"/>
      <point x="266" y="1333"/>
      <point x="513" y="1300"/>
      <point x="588" y="1302" type="curve"/>
      <point x="588" y="1377" type="line"/>
      <point x="636" y="1199"/>
      <point x="612" y="1008"/>
    </contour>
  </outline>
</glyph>
<glyph name="guillemotleft" format="1">
  <advance width="966"/>
  <unicode hex="00AB"/>
  <outline>
    <contour>
      <point x="391" y="156" type="line"/>
      <point x="506" y="182" type="line"/>
      <point x="239" y="561" type="line"/>
      <point x="511" y="935" type="line"/>
      <point x="394" y="960" type="line"/>
      <point x="106" y="554" type="line"/>
      <point x="139" y="505" type="line"/>
    </contour>
    <contour>
      <point x="754" y="156" type="curve"/>
      <point x="851" y="182" type="line"/>
      <point x="601" y="561" type="line"/>
      <point x="854" y="935" type="line"/>
      <point x="756" y="960" type="line"/>
      <point x="461" y="572" type="line"/>
      <point x="461" y="572"/>
      <point x="745" y="168"/>
    </contour>
  </outline>
</glyph>
<glyph name="logicalnot" format="1">
  <advance width="1200"/>
  <unicode hex="00AC"/>
  <outline>
    <contour>
      <point x="967" y="267" type="line"/>
      <point x="1078" y="267" type="line"/>
      <point x="1078" y="818" type="line"/>
      <point x="100" y="818" type="line"/>
      <point x="100" y="704" type="line"/>
      <point x="967" y="704" type="line"/>
    </contour>
  </outline>
</glyph>
<glyph name="uni00AD" format="1">
  <advance width="1029"/>
  <unicode hex="00AD"/>
  <outline>
    <contour>
      <point x="122" y="149" type="line"/>
      <point x="914" y="149" type="line"/>
      <point x="914" y="268" type="line"/>
      <point x="122" y="268" type="line"/>
    </contour>
  </outline>
</glyph>
<glyph name="registered" format="1">
  <advance width="1861"/>
  <unicode hex="00AE"/>
  <outline>
    <contour>
      <point x="621" y="221" type="line"/>
      <point x="735" y="221" type="line"/>
      <point x="735" y="664" type="line"/>
      <point x="938" y="664" type="line" smooth="yes"/>
      <point x="1015" y="560"/>
      <point x="1129" y="359"/>
      <point x="1210" y="221" type="curve"/>
      <point x="1346" y="221" type="line"/>
      <point x="1190" y="477"/>
      <point x="1123" y="596"/>
      <point x="1056" y="684" type="curve"/>
      <point x="1244" y="700"/>
      <point x="1302" y="830"/>
      <point x="1302" y="943" type="curve" smooth="yes"/>
      <point x="1302" y="1107"/>
      <point x="1199" y="1209"/>
      <point x="961" y="1209" type="curve" smooth="yes"/>
      <point x="621" y="1209" type="line"/>
    </contour>
    <contour>
      <point x="736" y="763" type="line"/>
      <point x="736" y="1111" type="line"/>
      <point x="928" y="1111" type="line" smooth="yes"/>
      <point x="1114" y="1111"/>
      <point x="1185" y="1081"/>
      <point x="1185" y="931" type="curve" smooth="yes"/>
      <point x="1185" y="797"/>
      <point x="1101" y="763"/>
      <point x="938" y="763" type="curve" smooth="yes"/>
    </contour>
    <contour>
      <point x="925" y="-15" type="curve" smooth="yes"/>
      <point x="573" y="-15"/>
      <point x="240" y="233"/>
      <point x="240" y="709" type="curve" smooth="yes"/>
      <point x="240" y="1186"/>
      <point x="566" y="1431"/>
      <point x="913" y="1431" type="curve" smooth="yes"/>
      <point x="1271" y="1431"/>
      <point x="1611" y="1175"/>
      <point x="1611" y="702" type="curve" smooth="yes"/>
      <point x="1612" y="234"/>
      <point x="1280" y="-14"/>
    </contour>
    <contour>
      <point x="922" y="-107" type="curve" smooth="yes"/>
      <point x="1324" y="-107"/>
      <point x="1724" y="165"/>
      <point x="1724" y="706" type="curve" smooth="yes"/>
      <point x="1724" y="1246"/>
      <point x="1319" y="1521"/>
      <point x="916" y="1521" type="curve" smooth="yes"/>
      <point x="520" y="1521"/>
      <point x="128" y="1253"/>
      <point x="128" y="706" type="curve" smooth="yes"/>
      <point x="128" y="163"/>
      <point x="524" y="-107"/>
    </contour>
  </outline>
</glyph>
<glyph name="macron" format="1">
  <advance width="1124"/>
  <unicode hex="00AF"/>
  <outline>
    <contour>
      <point x="244" y="1291" type="line"/>
      <point x="880" y="1291" type="line"/>
      <point x="880" y="1400" type="line"/>
      <point x="244" y="1400" type="line"/>
    </contour>
    <contour>
      <point x="562" y="1096" type="move" name="_top"/>
    </contour>
  </outline>
</glyph>
<glyph name="degree" format="1">
  <advance width="844"/>
  <unicode hex="00B0"/>
  <outline>
    <contour>
      <point x="423" y="1011" type="curve" smooth="yes"/>
      <point x="321" y="1011"/>
      <point x="221" y="1085"/>
      <point x="221" y="1228" type="curve" smooth="yes"/>
      <point x="221" y="1373"/>
      <point x="321" y="1448"/>
      <point x="422" y="1448" type="curve" smooth="yes"/>
      <point x="525" y="1448"/>
      <point x="626" y="1373"/>
      <point x="626" y="1228" type="curve" smooth="yes"/>
      <point x="626" y="1086"/>
      <point x="525" y="1011"/>
    </contour>
    <contour>
      <point x="419" y="928" type="curve" smooth="yes"/>
      <point x="577" y="928"/>
      <point x="732" y="1034"/>
      <point x="732" y="1228" type="curve" smooth="yes"/>
      <point x="732" y="1427"/>
      <point x="579" y="1532"/>
      <point x="423" y="1532" type="curve" smooth="yes"/>
      <point x="266" y="1532"/>
      <point x="112" y="1427"/>
      <point x="112" y="1228" type="curve" smooth="yes"/>
      <point x="112" y="1030"/>
      <point x="263" y="928"/>
    </contour>
  </outline>
</glyph>
<glyph name="plusminus" format="1">
  <advance width="1167"/>
  <unicode hex="00B1"/>
  <outline>
    <contour>
      <point x="527" y="217" type="line"/>
      <point x="638" y="217" type="line"/>
      <point x="638" y="653" type="line"/>
      <point x="1069" y="653" type="line"/>
      <point x="1069" y="767" type="line"/>
      <point x="635" y="767" type="line"/>
      <point x="635" y="1212" type="line"/>
      <point x="526" y="1212" type="line"/>
      <point x="526" y="767" type="line"/>
      <point x="97" y="767" type="line"/>
      <point x="97" y="653" type="line"/>
      <point x="527" y="653" type="line"/>
    </contour>
    <contour>
      <point x="97" y="0" type="line"/>
      <point x="1072" y="0" type="line"/>
      <point x="1072" y="123" type="line"/>
      <point x="97" y="123" type="line"/>
    </contour>
  </outline>
</glyph>
<glyph name="uni00B3" format="1">
  <advance width="703"/>
  <unicode hex="00B3"/>
  <outline>
    <contour>
      <point x="314" y="665" type="curve" smooth="yes"/>
      <point x="435" y="665"/>
      <point x="529" y="778"/>
      <point x="529" y="927" type="curve" smooth="yes"/>
      <point x="529" y="1039"/>
      <point x="519" y="1096"/>
      <point x="450" y="1149" type="curve"/>
      <point x="481" y="1203"/>
      <point x="510" y="1282"/>
      <point x="507" y="1381" type="curve"/>
      <point x="507" y="1534"/>
      <point x="408" y="1653"/>
      <point x="310" y="1653" type="curve" smooth="yes"/>
      <point x="244" y="1653"/>
      <point x="170" y="1589"/>
      <point x="133" y="1516" type="curve"/>
      <point x="192" y="1422" type="line"/>
      <point x="254" y="1497"/>
      <point x="263" y="1533"/>
      <point x="316" y="1533" type="curve" smooth="yes"/>
      <point x="382" y="1533"/>
      <point x="458" y="1501"/>
      <point x="458" y="1382" type="curve" smooth="yes"/>
      <point x="458" y="1239"/>
      <point x="350" y="1216"/>
      <point x="262" y="1216" type="curve" smooth="yes"/>
      <point x="260" y="1216" type="line"/>
      <point x="260" y="1097" type="line"/>
      <point x="274" y="1096" type="line"/>
      <point x="395" y="1096"/>
      <point x="465" y="1062"/>
      <point x="465" y="935" type="curve" smooth="yes"/>
      <point x="465" y="844"/>
      <point x="386" y="770"/>
      <point x="307" y="770" type="curve" smooth="yes"/>
      <point x="261" y="770"/>
      <point x="259" y="800"/>
      <point x="203" y="871" type="curve"/>
      <point x="141" y="795" type="line"/>
      <point x="177" y="711"/>
      <point x="236" y="665"/>
    </contour>
  </outline>
</glyph>
<glyph name="acute" format="1">
  <advance width="647"/>
  <unicode hex="00B4"/>
  <outline>
    <contour>
      <point x="126" y="1283" type="line"/>
      <point x="205" y="1283" type="line"/>
      <point x="483" y="1671" type="line"/>
      <point x="319" y="1671" type="line"/>
    </contour>
    <contour>
      <point x="304.5" y="1096" type="move" name="_top"/>
    </contour>
  </outline>
</glyph>
<glyph name="paragraph" format="1">
  <advance width="1013"/>
  <unicode hex="00B6"/>
  <outline>
    <contour>
      <point x="485" y="-15" type="curve"/>
      <point x="582" y="-15" type="line"/>
      <point x="582" y="1418" type="line"/>
      <point x="760" y="1418" type="line"/>
      <point x="760" y="-15" type="line"/>
      <point x="854" y="-15" type="line"/>
      <point x="854" y="1418" type="line"/>
      <point x="926" y="1418" type="line"/>
      <point x="926" y="1519" type="line"/>
      <point x="486" y="1519" type="line" smooth="yes"/>
      <point x="204" y="1519"/>
      <point x="74" y="1362"/>
      <point x="74" y="1202" type="curve" smooth="yes"/>
      <point x="74" y="1034"/>
      <point x="219" y="862"/>
      <point x="482" y="862" type="curve"/>
      <point x="483" y="862"/>
      <point x="485" y="-15"/>
    </contour>
  </outline>
</glyph>
<glyph name="periodcentered" format="1">
  <advance width="487"/>
  <unicode hex="00B7"/>
  <outline>
    <contour>
      <point x="168" y="605" type="line"/>
      <point x="319" y="605" type="line"/>
      <point x="319" y="771" type="line"/>
      <point x="168" y="771" type="line"/>
    </contour>
  </outline>
</glyph>
<glyph name="cedilla" format="1">
  <advance width="599"/>
  <unicode hex="00B8"/>
  <outline>
    <contour>
      <point x="136" y="-410" type="line"/>
      <point x="267" y="-410" type="line"/>
      <point x="305" y="11" type="line"/>
      <point x="243" y="11" type="line"/>
    </contour>
    <contour>
      <point x="220.5" y="0" type="move" name="_bottom"/>
    </contour>
  </outline>
</glyph>
<glyph name="uni00B9" format="1">
  <advance width="651"/>
  <unicode hex="00B9"/>
  <outline>
    <contour>
      <point x="177" y="678" type="line"/>
      <point x="486" y="678" type="line"/>
      <point x="486" y="747" type="line"/>
      <point x="377" y="747" type="line"/>
      <point x="377" y="1516" type="line"/>
      <point x="291" y="1516" type="line"/>
      <point x="260" y="1479"/>
      <point x="189" y="1439"/>
      <point x="166" y="1426" type="curve"/>
      <point x="166" y="1343" type="line"/>
      <point x="224" y="1377"/>
      <point x="247" y="1389"/>
      <point x="282" y="1415" type="curve"/>
      <point x="282" y="747" type="line"/>
      <point x="177" y="747" type="line"/>
    </contour>
  </outline>
</glyph>
<glyph name="guillemotright" format="1">
  <advance width="948"/>
  <unicode hex="00BB"/>
  <outline>
    <contour>
      <point x="196" y="156" type="line"/>
      <point x="491" y="548" type="line"/>
      <point x="196" y="960" type="line"/>
      <point x="99" y="935" type="line"/>
      <point x="350" y="562" type="line"/>
      <point x="97" y="182" type="line"/>
    </contour>
    <contour>
      <point x="570" y="156" type="line"/>
      <point x="851" y="548" type="line"/>
      <point x="573" y="960" type="line"/>
      <point x="463" y="935" type="line"/>
      <point x="724" y="562" type="line"/>
      <point x="458" y="182" type="line"/>
    </contour>
  </outline>
</glyph>
<glyph name="onequarter" format="1">
  <advance width="1558"/>
  <unicode hex="00BC"/>
  <outline>
    <contour>
      <point x="148" y="678" type="line"/>
      <point x="457" y="678" type="line"/>
      <point x="457" y="747" type="line"/>
      <point x="348" y="747" type="line"/>
      <point x="348" y="1516" type="line"/>
      <point x="262" y="1516" type="line"/>
      <point x="231" y="1479"/>
      <point x="160" y="1439"/>
      <point x="137" y="1426" type="curve"/>
      <point x="137" y="1343" type="line"/>
      <point x="195" y="1377"/>
      <point x="218" y="1389"/>
      <point x="253" y="1415" type="curve"/>
      <point x="253" y="747" type="line"/>
      <point x="148" y="747" type="line"/>
    </contour>
    <contour>
      <point x="1274" y="4" type="line"/>
      <point x="1369" y="4" type="line"/>
      <point x="1369" y="220" type="line"/>
      <point x="1469" y="220" type="line"/>
      <point x="1461" y="306" type="line"/>
      <point x="1369" y="306" type="line"/>
      <point x="1369" y="865" type="line"/>
      <point x="1273" y="865" type="line"/>
      <point x="898" y="294" type="line"/>
      <point x="898" y="220" type="line"/>
      <point x="1274" y="220" type="line"/>
    </contour>
    <contour>
      <point x="278" y="0" type="line"/>
      <point x="381" y="0" type="line"/>
      <point x="1266" y="1517" type="line"/>
      <point x="1169" y="1517" type="line"/>
    </contour>
    <contour>
      <point x="1002" y="306" type="line"/>
      <point x="1274" y="726" type="line"/>
      <point x="1273" y="685"/>
      <point x="1274" y="306"/>
      <point x="1274" y="306" type="curve"/>
    </contour>
  </outline>
</glyph>
<glyph name="onehalf" format="1">
  <advance width="1503"/>
  <unicode hex="00BD"/>
  <outline>
    <contour>
      <point x="148" y="678" type="line"/>
      <point x="457" y="678" type="line"/>
      <point x="457" y="747" type="line"/>
      <point x="348" y="747" type="line"/>
      <point x="348" y="1516" type="line"/>
      <point x="262" y="1516" type="line"/>
      <point x="231" y="1479"/>
      <point x="160" y="1439"/>
      <point x="137" y="1426" type="curve"/>
      <point x="137" y="1343" type="line"/>
      <point x="195" y="1377"/>
      <point x="218" y="1389"/>
      <point x="253" y="1415" type="curve"/>
      <point x="253" y="747" type="line"/>
      <point x="148" y="747" type="line"/>
    </contour>
    <contour>
      <point x="896" y="-3" type="line"/>
      <point x="1447" y="-3" type="line"/>
      <point x="1440" y="81" type="line"/>
      <point x="1028" y="81" type="line"/>
      <point x="1275" y="339"/>
      <point x="1457" y="486"/>
      <point x="1457" y="667" type="curve" smooth="yes"/>
      <point x="1457" y="828"/>
      <point x="1330" y="915"/>
      <point x="1194" y="915" type="curve" smooth="yes"/>
      <point x="1077" y="915"/>
      <point x="963" y="852"/>
      <point x="912" y="732" type="curve"/>
      <point x="994" y="697" type="line"/>
      <point x="1057" y="799"/>
      <point x="1126" y="825"/>
      <point x="1196" y="825" type="curve" smooth="yes"/>
      <point x="1272" y="825"/>
      <point x="1351" y="770"/>
      <point x="1351" y="673" type="curve" smooth="yes"/>
      <point x="1351" y="566"/>
      <point x="1241" y="444"/>
      <point x="896" y="76" type="curve"/>
    </contour>
    <contour>
      <point x="268" y="0" type="line"/>
      <point x="371" y="0" type="line"/>
      <point x="1256" y="1517" type="line"/>
      <point x="1159" y="1517" type="line"/>
    </contour>
  </outline>
</glyph>
<glyph name="threequarters" format="1">
  <advance width="1608"/>
  <unicode hex="00BE"/>
  <outline>
    <contour>
      <point x="356" y="626" type="curve" smooth="yes"/>
      <point x="494" y="626"/>
      <point x="606" y="711"/>
      <point x="606" y="873" type="curve" smooth="yes"/>
      <point x="606" y="983"/>
      <point x="557" y="1049"/>
      <point x="455" y="1079" type="curve"/>
      <point x="519" y="1115"/>
      <point x="586" y="1154"/>
      <point x="586" y="1276" type="curve"/>
      <point x="586" y="1430"/>
      <point x="461" y="1491"/>
      <point x="335" y="1491" type="curve" smooth="yes"/>
      <point x="257" y="1491"/>
      <point x="174" y="1464"/>
      <point x="131" y="1430" type="curve"/>
      <point x="173" y="1356" type="line"/>
      <point x="205" y="1385"/>
      <point x="276" y="1410"/>
      <point x="336" y="1410" type="curve" smooth="yes"/>
      <point x="424" y="1410"/>
      <point x="481" y="1353"/>
      <point x="485" y="1274" type="curve" smooth="yes"/>
      <point x="490" y="1155"/>
      <point x="410" y="1115"/>
      <point x="313" y="1115" type="curve" smooth="yes"/>
      <point x="237" y="1115" type="line"/>
      <point x="237" y="1036" type="line"/>
      <point x="322" y="1036" type="line"/>
      <point x="440" y="1036"/>
      <point x="515" y="987"/>
      <point x="515" y="867" type="curve" smooth="yes"/>
      <point x="515" y="772"/>
      <point x="435" y="708"/>
      <point x="352" y="708" type="curve" smooth="yes"/>
      <point x="300" y="708"/>
      <point x="247" y="715"/>
      <point x="167" y="778" type="curve"/>
      <point x="128" y="706" type="line"/>
      <point x="182" y="651"/>
      <point x="274" y="626"/>
    </contour>
    <contour>
      <point x="1339" y="4" type="line"/>
      <point x="1434" y="4" type="line"/>
      <point x="1434" y="221" type="line"/>
      <point x="1534" y="221" type="line"/>
      <point x="1526" y="306" type="line"/>
      <point x="1434" y="306" type="line"/>
      <point x="1434" y="865" type="line"/>
      <point x="1338" y="865" type="line"/>
      <point x="963" y="294" type="line"/>
      <point x="963" y="221" type="line"/>
      <point x="1339" y="221" type="line"/>
    </contour>
    <contour>
      <point x="349" y="0" type="line"/>
      <point x="452" y="0" type="line"/>
      <point x="1338" y="1517" type="line"/>
      <point x="1240" y="1517" type="line"/>
    </contour>
    <contour>
      <point x="1067" y="306" type="line"/>
      <point x="1339" y="726" type="line"/>
      <point x="1338" y="683"/>
      <point x="1339" y="330"/>
      <point x="1339" y="306" type="curve"/>
    </contour>
  </outline>
</glyph>
<glyph name="AE" format="1">
  <advance width="1932"/>
  <unicode hex="00C6"/>
  <outline>
    <contour>
      <point x="14" y="0" type="line"/>
      <point x="159" y="0" type="line"/>
      <point x="447" y="497" type="line"/>
      <point x="1027" y="497" type="line"/>
      <point x="1066" y="0" type="line"/>
      <point x="1807" y="0" type="line"/>
      <point x="1817" y="116" type="line"/>
      <point x="1176" y="116" type="line"/>
      <point x="1128" y="714" type="line"/>
      <point x="1760" y="714" type="line"/>
      <point x="1760" y="828" type="line"/>
      <point x="1118" y="828" type="line"/>
      <point x="1078" y="1380" type="line"/>
      <point x="1795" y="1380" type="line"/>
      <point x="1802" y="1496" type="line"/>
      <point x="903" y="1496" type="line"/>
    </contour>
    <contour>
      <point x="503" y="599" type="line"/>
      <point x="962" y="1381" type="line"/>
      <point x="1018" y="599" type="line"/>
    </contour>
    <contour>
      <point x="966" y="1487" type="move" name="top"/>
    </contour>
  </outline>
</glyph>
<glyph name="Eth" format="1">
  <advance width="1500"/>
  <unicode hex="00D0"/>
  <outline>
    <contour>
      <point x="311" y="112" type="line"/>
      <point x="311" y="733" type="line"/>
      <point x="553" y="733" type="line"/>
      <point x="553" y="833" type="line"/>
      <point x="311" y="833" type="line"/>
      <point x="311" y="1378" type="line"/>
      <point x="570" y="1378" type="line" smooth="yes"/>
      <point x="980" y="1378"/>
      <point x="1236" y="1204"/>
      <point x="1236" y="738" type="curve" smooth="yes"/>
      <point x="1236" y="318"/>
      <point x="1010" y="112"/>
      <point x="606" y="112" type="curve" smooth="yes"/>
    </contour>
    <contour>
      <point x="179" y="0" type="line"/>
      <point x="616" y="0" type="line" smooth="yes"/>
      <point x="1090" y="0"/>
      <point x="1383" y="247"/>
      <point x="1383" y="743" type="curve" smooth="yes"/>
      <point x="1383" y="1273"/>
      <point x="1058" y="1489"/>
      <point x="579" y="1489" type="curve" smooth="yes"/>
      <point x="179" y="1489" type="line"/>
      <point x="179" y="833" type="line"/>
      <point x="39" y="833" type="line"/>
      <point x="39" y="733" type="line"/>
      <point x="179" y="733" type="line"/>
    </contour>
  </outline>
</glyph>
<glyph name="multiply" format="1">
  <advance width="1091"/>
  <unicode hex="00D7"/>
  <outline>
    <contour>
      <point x="855" y="253" type="line"/>
      <point x="935" y="332" type="line"/>
      <point x="630" y="642" type="line"/>
      <point x="936" y="951" type="line"/>
      <point x="856" y="1030" type="line"/>
      <point x="551" y="722" type="line"/>
      <point x="247" y="1031" type="line"/>
      <point x="167" y="952" type="line"/>
      <point x="472" y="642" type="line"/>
      <point x="167" y="333" type="line"/>
      <point x="247" y="254" type="line"/>
      <point x="551" y="562" type="line"/>
    </contour>
  </outline>
</glyph>
<glyph name="Oslash" format="1">
  <advance width="1630"/>
  <unicode hex="00D8"/>
  <outline>
    <contour>
      <point x="484" y="-224" type="line"/>
      <point x="580" y="10" type="line"/>
      <point x="651" y="-12"/>
      <point x="730" y="-23"/>
      <point x="816" y="-23" type="curve" smooth="yes"/>
      <point x="1274" y="-23"/>
      <point x="1514" y="306"/>
      <point x="1514" y="746" type="curve" smooth="yes"/>
      <point x="1514" y="1072"/>
      <point x="1391" y="1322"/>
      <point x="1165" y="1443" type="curve"/>
      <point x="1260" y="1676" type="line"/>
      <point x="1162" y="1710" type="line"/>
      <point x="1071" y="1484" type="line"/>
      <point x="995" y="1510"/>
      <point x="910" y="1524"/>
      <point x="817" y="1524" type="curve" smooth="yes"/>
      <point x="364" y="1524"/>
      <point x="116" y="1214"/>
      <point x="116" y="747" type="curve" smooth="yes"/>
      <point x="116" y="421"/>
      <point x="241" y="163"/>
      <point x="486" y="45" type="curve"/>
      <point x="392" y="-187" type="line"/>
    </contour>
    <contour>
      <point x="531" y="157" type="line"/>
      <point x="350" y="261"/>
      <point x="261" y="474"/>
      <point x="261" y="749" type="curve" smooth="yes"/>
      <point x="261" y="1160"/>
      <point x="451" y="1410"/>
      <point x="817" y="1410" type="curve" smooth="yes"/>
      <point x="895" y="1410"/>
      <point x="965" y="1398"/>
      <point x="1027" y="1377" type="curve"/>
    </contour>
    <contour>
      <point x="816" y="89" type="curve" smooth="yes"/>
      <point x="745" y="89"/>
      <point x="681" y="99"/>
      <point x="624" y="117" type="curve"/>
      <point x="1119" y="1331" type="line"/>
      <point x="1285" y="1227"/>
      <point x="1367" y="1023"/>
      <point x="1367" y="749" type="curve" smooth="yes"/>
      <point x="1367" y="357"/>
      <point x="1192" y="89"/>
    </contour>
    <contour>
      <point x="815" y="1487" type="move" name="top"/>
    </contour>
  </outline>
</glyph>
<glyph name="Thorn" format="1">
  <advance width="1277"/>
  <unicode hex="00DE"/>
  <outline>
    <contour>
      <point x="179" y="0" type="line"/>
      <point x="311" y="0" type="line"/>
      <point x="311" y="355" type="line"/>
      <point x="311" y="355"/>
      <point x="735" y="355"/>
      <point x="736" y="355" type="curve" smooth="yes"/>
      <point x="1107" y="355"/>
      <point x="1215" y="537"/>
      <point x="1215" y="768" type="curve" smooth="yes"/>
      <point x="1215" y="1088"/>
      <point x="1039" y="1194"/>
      <point x="676" y="1194" type="curve" smooth="yes"/>
      <point x="311" y="1194" type="line"/>
      <point x="311" y="1489" type="line"/>
      <point x="179" y="1489" type="line"/>
    </contour>
    <contour>
      <point x="311" y="461" type="line"/>
      <point x="311" y="1083" type="line"/>
      <point x="692" y="1083" type="line" smooth="yes"/>
      <point x="990" y="1083"/>
      <point x="1081" y="984"/>
      <point x="1081" y="776" type="curve" smooth="yes"/>
      <point x="1081" y="603"/>
      <point x="1008" y="461"/>
      <point x="741" y="461" type="curve" smooth="yes"/>
    </contour>
  </outline>
</glyph>
<glyph name="germandbls" format="1">
  <advance width="1207"/>
  <unicode hex="00DF"/>
  <outline>
    <contour>
      <point x="123" y="0" type="line"/>
      <point x="254" y="0" type="line"/>
      <point x="254" y="1079" type="line" smooth="yes"/>
      <point x="254" y="1280"/>
      <point x="334" y="1442"/>
      <point x="567" y="1442" type="curve" smooth="yes"/>
      <point x="741" y="1442"/>
      <point x="832" y="1349"/>
      <point x="832" y="1215" type="curve" smooth="yes"/>
      <point x="832" y="1067"/>
      <point x="714" y="1032"/>
      <point x="576" y="944" type="curve" smooth="yes"/>
      <point x="518" y="907"/>
      <point x="512" y="869"/>
      <point x="512" y="844" type="curve" smooth="yes"/>
      <point x="512" y="804"/>
      <point x="545" y="787"/>
      <point x="595" y="750" type="curve"/>
      <point x="720" y="663"/>
      <point x="1021" y="520"/>
      <point x="1021" y="347" type="curve" smooth="yes"/>
      <point x="1021" y="215"/>
      <point x="944" y="112"/>
      <point x="804" y="112" type="curve" smooth="yes"/>
      <point x="431" y="112" type="line"/>
      <point x="419" y="0" type="line" smooth="yes"/>
      <point x="783" y="0" type="line" smooth="yes"/>
      <point x="992" y="0"/>
      <point x="1152" y="87"/>
      <point x="1152" y="351" type="curve" smooth="yes"/>
      <point x="1152" y="613"/>
      <point x="845" y="707"/>
      <point x="653" y="861" type="curve"/>
      <point x="816" y="966"/>
      <point x="959" y="1006"/>
      <point x="959" y="1203" type="curve" smooth="yes"/>
      <point x="959" y="1409"/>
      <point x="815" y="1546"/>
      <point x="562" y="1546" type="curve" smooth="yes"/>
      <point x="254" y="1546"/>
      <point x="123" y="1358"/>
      <point x="123" y="1059" type="curve" smooth="yes"/>
    </contour>
  </outline>
</glyph>
<glyph name="ae" format="1">
  <advance width="1669"/>
  <unicode hex="00E6"/>
  <outline>
    <contour>
      <point x="396" y="-31" type="curve" smooth="yes"/>
      <point x="507" y="-31"/>
      <point x="731" y="23"/>
      <point x="879" y="80" type="curve"/>
      <point x="960" y="4"/>
      <point x="1050" y="-30"/>
      <point x="1143" y="-30" type="curve" smooth="yes"/>
      <point x="1313" y="-30"/>
      <point x="1469" y="55"/>
      <point x="1543" y="133" type="curve"/>
      <point x="1515" y="205" type="line"/>
      <point x="1422" y="144"/>
      <point x="1277" y="60"/>
      <point x="1148" y="60" type="curve"/>
      <point x="902" y="59"/>
      <point x="836" y="260"/>
      <point x="811" y="520" type="curve"/>
      <point x="693" y="511"/>
      <point x="1330" y="533"/>
      <point x="1286" y="530" type="curve"/>
      <point x="1519" y="544"/>
      <point x="1509" y="616"/>
      <point x="1509" y="755" type="curve" smooth="yes"/>
      <point x="1509" y="926"/>
      <point x="1423" y="1110"/>
      <point x="1172" y="1110" type="curve" smooth="yes"/>
      <point x="1043" y="1110"/>
      <point x="898" y="1068"/>
      <point x="824" y="899" type="curve"/>
      <point x="805" y="1047"/>
      <point x="671" y="1109"/>
      <point x="527" y="1111" type="curve"/>
      <point x="403" y="1116"/>
      <point x="191" y="1055"/>
      <point x="130" y="1009" type="curve"/>
      <point x="150" y="920" type="line"/>
      <point x="265" y="989"/>
      <point x="398" y="1009"/>
      <point x="545" y="1009" type="curve"/>
      <point x="678" y="1015"/>
      <point x="739" y="957"/>
      <point x="739" y="822" type="curve" smooth="yes"/>
      <point x="739" y="599" type="line"/>
      <point x="702" y="601" type="line"/>
      <point x="431" y="607"/>
      <point x="90" y="570"/>
      <point x="90" y="280" type="curve" smooth="yes"/>
      <point x="90" y="-20"/>
      <point x="263" y="-31"/>
    </contour>
    <contour>
      <point x="376" y="69" type="curve" smooth="yes"/>
      <point x="277" y="69"/>
      <point x="178" y="102"/>
      <point x="178" y="274" type="curve" smooth="yes"/>
      <point x="178" y="405"/>
      <point x="228" y="508"/>
      <point x="696" y="533" type="curve" smooth="yes"/>
      <point x="734" y="537"/>
      <point x="685" y="526"/>
      <point x="727" y="528" type="curve"/>
      <point x="739" y="372"/>
      <point x="753" y="284"/>
      <point x="838" y="129" type="curve"/>
      <point x="691" y="126"/>
      <point x="495" y="69"/>
    </contour>
    <contour>
      <point x="821" y="580" type="line"/>
      <point x="826" y="758"/>
      <point x="866" y="1032"/>
      <point x="1167" y="1032" type="curve" smooth="yes"/>
      <point x="1318" y="1032"/>
      <point x="1427" y="956"/>
      <point x="1431" y="582" type="curve" smooth="yes"/>
      <point x="1431" y="603"/>
      <point x="1433" y="597"/>
      <point x="1433" y="597" type="curve"/>
    </contour>
    <contour>
      <point x="835" y="1096" type="move" name="top"/>
    </contour>
  </outline>
</glyph>
<glyph name="eth" format="1">
  <advance width="1195"/>
  <unicode hex="00F0"/>
  <outline>
    <contour>
      <point x="594" y="-28" type="curve" smooth="yes"/>
      <point x="937" y="-28"/>
      <point x="1098" y="214"/>
      <point x="1098" y="492" type="curve"/>
      <point x="1098" y="508"/>
      <point x="1095" y="522"/>
      <point x="1088" y="536" type="curve" smooth="yes"/>
      <point x="1081" y="897"/>
      <point x="867" y="1073"/>
      <point x="651" y="1301" type="curve"/>
      <point x="899" y="1408" type="line"/>
      <point x="868" y="1504" type="line"/>
      <point x="579" y="1379" type="line"/>
      <point x="394" y="1550" type="line"/>
      <point x="230" y="1550" type="line"/>
      <point x="479" y="1328" type="line"/>
      <point x="244" y="1234" type="line"/>
      <point x="272" y="1134" type="line"/>
      <point x="553" y="1252" type="line"/>
      <point x="683" y="1130"/>
      <point x="857" y="939"/>
      <point x="921" y="822" type="curve"/>
      <point x="842" y="891"/>
      <point x="753" y="970"/>
      <point x="584" y="970" type="curve" smooth="yes"/>
      <point x="294" y="970"/>
      <point x="100" y="775"/>
      <point x="100" y="487" type="curve" smooth="yes"/>
      <point x="100" y="226"/>
      <point x="266" y="-28"/>
    </contour>
    <contour>
      <point x="599" y="76" type="curve" smooth="yes"/>
      <point x="351" y="76"/>
      <point x="236" y="289"/>
      <point x="236" y="490" type="curve" smooth="yes"/>
      <point x="236" y="686"/>
      <point x="367" y="868"/>
      <point x="593" y="868" type="curve" smooth="yes"/>
      <point x="839" y="868"/>
      <point x="970" y="656"/>
      <point x="970" y="472" type="curve" smooth="yes"/>
      <point x="970" y="257"/>
      <point x="839" y="76"/>
    </contour>
  </outline>
</glyph>
<glyph name="divide" format="1">
  <advance width="1110"/>
  <unicode hex="00F7"/>
  <outline>
    <contour>
      <point x="450" y="76" type="line"/>
      <point x="641" y="76" type="line"/>
      <point x="641" y="281" type="line"/>
      <point x="450" y="281" type="line"/>
    </contour>
    <contour>
      <point x="64" y="551" type="line"/>
      <point x="1025" y="551" type="line"/>
      <point x="1025" y="675" type="line"/>
      <point x="64" y="675" type="line"/>
    </contour>
    <contour>
      <point x="450" y="916" type="line"/>
      <point x="645" y="916" type="line"/>
      <point x="645" y="1120" type="line"/>
      <point x="450" y="1120" type="line"/>
    </contour>
  </outline>
</glyph>
<glyph name="oslash" format="1">
  <advance width="1189"/>
  <unicode hex="00F8"/>
  <outline>
    <contour>
      <point x="284" y="-308" type="line"/>
      <point x="413" y="7" type="line"/>
      <point x="467" y="-13"/>
      <point x="527" y="-24"/>
      <point x="592" y="-24" type="curve" smooth="yes"/>
      <point x="911" y="-24"/>
      <point x="1094" y="224"/>
      <point x="1094" y="547" type="curve" smooth="yes"/>
      <point x="1094" y="773"/>
      <point x="1006" y="963"/>
      <point x="845" y="1055" type="curve"/>
      <point x="978" y="1381" type="line"/>
      <point x="908" y="1406" type="line"/>
      <point x="778" y="1087" type="line"/>
      <point x="725" y="1106"/>
      <point x="665" y="1117"/>
      <point x="600" y="1117" type="curve" smooth="yes"/>
      <point x="283" y="1117"/>
      <point x="95" y="869"/>
      <point x="95" y="545" type="curve" smooth="yes"/>
      <point x="95" y="320"/>
      <point x="188" y="131"/>
      <point x="349" y="38" type="curve"/>
      <point x="220" y="-279" type="line"/>
    </contour>
    <contour>
      <point x="392" y="143" type="line"/>
      <point x="284" y="224"/>
      <point x="232" y="373"/>
      <point x="232" y="542" type="curve" smooth="yes"/>
      <point x="232" y="801"/>
      <point x="350" y="1012"/>
      <point x="597" y="1012" type="curve" smooth="yes"/>
      <point x="650" y="1012"/>
      <point x="697" y="1003"/>
      <point x="737" y="987" type="curve"/>
    </contour>
    <contour>
      <point x="601" y="79" type="curve" smooth="yes"/>
      <point x="546" y="79"/>
      <point x="497" y="89"/>
      <point x="455" y="107" type="curve"/>
      <point x="801" y="952" type="line"/>
      <point x="911" y="872"/>
      <point x="958" y="722"/>
      <point x="958" y="545" type="curve" smooth="yes"/>
      <point x="958" y="286"/>
      <point x="848" y="79"/>
    </contour>
    <contour>
      <point x="595" y="1096" type="move" name="top"/>
    </contour>
  </outline>
</glyph>
<glyph name="gcommaaccent" format="1">
  <advance width="1154"/>
  <unicode hex="0123"/>
  <outline>
    <contour>
      <point x="506" y="1273" type="line"/>
      <point x="663" y="1273" type="line"/>
      <point x="773" y="1761" type="line"/>
      <point x="671" y="1761" type="line"/>
    </contour>
    <component base="g"/>
  </outline>
</glyph>
<glyph name="Hbar" format="1">
  <advance width="1451"/>
  <unicode hex="0126"/>
  <outline>
    <contour>
      <point x="154" y="0" type="line"/>
      <point x="293" y="0" type="line"/>
      <point x="293" y="719" type="line"/>
      <point x="1160" y="719" type="line"/>
      <point x="1160" y="0" type="line"/>
      <point x="1299" y="0" type="line"/>
      <point x="1299" y="1127" type="line"/>
      <point x="1391" y="1127" type="line"/>
      <point x="1391" y="1216" type="line"/>
      <point x="1299" y="1216" type="line"/>
      <point x="1299" y="1519" type="line"/>
      <point x="1160" y="1519" type="line"/>
      <point x="1160" y="1216" type="line"/>
      <point x="293" y="1216" type="line"/>
      <point x="293" y="1519" type="line"/>
      <point x="154" y="1519" type="line"/>
      <point x="154" y="1216" type="line"/>
      <point x="62" y="1216" type="line"/>
      <point x="62" y="1127" type="line"/>
      <point x="154" y="1127" type="line"/>
    </contour>
    <contour>
      <point x="293" y="845" type="line"/>
      <point x="293" y="1127" type="line"/>
      <point x="1160" y="1127" type="line"/>
      <point x="1160" y="845" type="line"/>
    </contour>
  </outline>
</glyph>
<glyph name="hbar" format="1">
  <advance width="1080"/>
  <unicode hex="0127"/>
  <outline>
    <contour>
      <point x="117" y="0" type="line"/>
      <point x="249" y="0" type="line"/>
      <point x="249" y="750" type="line"/>
      <point x="267" y="858"/>
      <point x="415" y="1012"/>
      <point x="602" y="1012" type="curve" smooth="yes"/>
      <point x="805" y="1012"/>
      <point x="839" y="881"/>
      <point x="839" y="595" type="curve" smooth="yes"/>
      <point x="839" y="0" type="line"/>
      <point x="971" y="0" type="line"/>
      <point x="971" y="662" type="line" smooth="yes"/>
      <point x="971" y="923"/>
      <point x="891" y="1127"/>
      <point x="654" y="1127" type="curve" smooth="yes"/>
      <point x="480" y="1127"/>
      <point x="343" y="1056"/>
      <point x="249" y="935" type="curve"/>
      <point x="249" y="1297" type="line"/>
      <point x="516" y="1297" type="line"/>
      <point x="516" y="1401" type="line"/>
      <point x="249" y="1401" type="line"/>
      <point x="249" y="1507" type="line"/>
      <point x="117" y="1486" type="line"/>
      <point x="117" y="1401" type="line"/>
      <point x="27" y="1401" type="line"/>
      <point x="27" y="1297" type="line"/>
      <point x="117" y="1297" type="line"/>
    </contour>
  </outline>
</glyph>
<glyph name="dotlessi" format="1">
  <advance width="381"/>
  <unicode hex="0131"/>
  <outline>
    <contour>
      <point x="138" y="0" type="line"/>
      <point x="267" y="0" type="line"/>
      <point x="267" y="1096" type="line"/>
      <point x="138" y="1096" type="line"/>
    </contour>
    <contour>
      <point x="191" y="1096" type="move" name="top"/>
    </contour>
    <contour>
      <point x="343" y="10" type="move" name="ogonek"/>
    </contour>
  </outline>
</glyph>
<glyph name="Lslash" format="1">
  <advance width="938"/>
  <unicode hex="0141"/>
  <outline>
    <contour>
      <point x="155" y="0" type="line"/>
      <point x="956" y="0" type="line"/>
      <point x="968" y="127" type="line"/>
      <point x="294" y="127" type="line"/>
      <point x="294" y="675" type="line"/>
      <point x="655" y="865" type="line"/>
      <point x="655" y="1003" type="line"/>
      <point x="294" y="806" type="line"/>
      <point x="294" y="1516" type="line"/>
      <point x="155" y="1516" type="line"/>
      <point x="155" y="745" type="line"/>
      <point x="8" y="670" type="line"/>
      <point x="8" y="543" type="line"/>
      <point x="155" y="617" type="line"/>
    </contour>
  </outline>
</glyph>
<glyph name="lslash" format="1">
  <advance width="552"/>
  <unicode hex="0142"/>
  <outline>
    <contour>
      <point x="399" y="-25" type="curve" smooth="yes"/>
      <point x="407" y="-25"/>
      <point x="517" y="-19"/>
      <point x="582" y="-12" type="curve"/>
      <point x="567" y="92" type="line"/>
      <point x="504" y="86"/>
      <point x="448" y="80"/>
      <point x="416" y="80" type="curve" smooth="yes"/>
      <point x="278" y="80"/>
      <point x="276" y="162"/>
      <point x="276" y="427" type="curve" smooth="yes"/>
      <point x="276" y="617" type="line"/>
      <point x="459" y="777" type="line"/>
      <point x="459" y="901" type="line"/>
      <point x="276" y="741" type="line"/>
      <point x="276" y="1507" type="line"/>
      <point x="143" y="1487" type="line"/>
      <point x="143" y="623" type="line"/>
      <point x="31" y="525" type="line"/>
      <point x="31" y="403" type="line"/>
      <point x="143" y="501" type="line"/>
      <point x="143" y="473" type="line" smooth="yes"/>
      <point x="143" y="89"/>
      <point x="152" y="-25"/>
    </contour>
  </outline>
</glyph>
<glyph name="Eng" format="1">
  <advance width="1420"/>
  <unicode hex="014A"/>
  <outline>
    <contour>
      <point x="846" y="-339" type="curve"/>
      <point x="1197" y="-339"/>
      <point x="1253" y="-125"/>
      <point x="1253" y="177" type="curve" smooth="yes"/>
      <point x="1253" y="1040" type="line" smooth="yes"/>
      <point x="1253" y="1371"/>
      <point x="1112" y="1538"/>
      <point x="861" y="1538" type="curve" smooth="yes"/>
      <point x="684" y="1538"/>
      <point x="507" y="1522"/>
      <point x="294" y="1284" type="curve"/>
      <point x="280" y="1516" type="line"/>
      <point x="150" y="1516" type="line"/>
      <point x="152" y="0" type="line"/>
      <point x="290" y="0" type="line"/>
      <point x="290" y="1109" type="line"/>
      <point x="387" y="1244"/>
      <point x="548" y="1406"/>
      <point x="804" y="1406" type="curve" smooth="yes"/>
      <point x="1037" y="1406"/>
      <point x="1116" y="1321"/>
      <point x="1116" y="1038" type="curve" smooth="yes"/>
      <point x="1116" y="189" type="line" smooth="yes"/>
      <point x="1116" y="-134"/>
      <point x="1094" y="-214"/>
      <point x="781" y="-214" type="curve" smooth="yes"/>
      <point x="753" y="-214"/>
      <point x="752" y="-212"/>
      <point x="574" y="-200" type="curve"/>
      <point x="598" y="-319" type="line"/>
      <point x="758" y="-336"/>
      <point x="809" y="-339"/>
    </contour>
  </outline>
</glyph>
<glyph name="eng" format="1">
  <advance width="1089"/>
  <unicode hex="014B"/>
  <outline>
    <contour>
      <point x="617" y="-230" type="line"/>
      <point x="691" y="-230" type="line" smooth="yes"/>
      <point x="964" y="-230"/>
      <point x="977" y="-108"/>
      <point x="977" y="188" type="curve" smooth="yes"/>
      <point x="977" y="651" type="line" smooth="yes"/>
      <point x="977" y="977"/>
      <point x="873" y="1120"/>
      <point x="639" y="1118" type="curve" smooth="yes"/>
      <point x="490" y="1117"/>
      <point x="332" y="1050"/>
      <point x="248" y="925" type="curve"/>
      <point x="234" y="1098" type="line"/>
      <point x="119" y="1098" type="line"/>
      <point x="123" y="-3" type="line"/>
      <point x="254" y="-3" type="line"/>
      <point x="254" y="748" type="line"/>
      <point x="275" y="852"/>
      <point x="412" y="1003"/>
      <point x="620" y="1003" type="curve" smooth="yes"/>
      <point x="833" y="1003"/>
      <point x="844" y="852"/>
      <point x="844" y="509" type="curve" smooth="yes"/>
      <point x="844" y="139" type="line" smooth="yes"/>
      <point x="844" y="-95"/>
      <point x="825" y="-118"/>
      <point x="648" y="-118" type="curve" smooth="yes"/>
      <point x="611" y="-118" type="line"/>
    </contour>
  </outline>
</glyph>
<glyph name="OE" format="1">
  <advance width="1952"/>
  <unicode hex="0152"/>
  <outline>
    <contour>
      <point x="818" y="-23" type="curve" smooth="yes"/>
      <point x="930" y="-23"/>
      <point x="1114" y="31"/>
      <point x="1140" y="62" type="curve"/>
      <point x="1140" y="0" type="line"/>
      <point x="1827" y="0" type="line"/>
      <point x="1841" y="112" type="line"/>
      <point x="1273" y="112" type="line"/>
      <point x="1273" y="711" type="line"/>
      <point x="1764" y="711" type="line"/>
      <point x="1764" y="824" type="line"/>
      <point x="1273" y="824" type="line"/>
      <point x="1273" y="1378" type="line"/>
      <point x="1803" y="1378" type="line"/>
      <point x="1819" y="1489" type="line"/>
      <point x="1140" y="1489" type="line"/>
      <point x="1140" y="1433" type="line"/>
      <point x="1074" y="1480"/>
      <point x="948" y="1515"/>
      <point x="799" y="1515" type="curve" smooth="yes"/>
      <point x="405" y="1515"/>
      <point x="117" y="1228"/>
      <point x="116" y="784" type="curve" smooth="yes"/>
      <point x="116" y="297"/>
      <point x="337" y="-23"/>
    </contour>
    <contour>
      <point x="819" y="87" type="curve" smooth="yes"/>
      <point x="387" y="87"/>
      <point x="261" y="405"/>
      <point x="261" y="771" type="curve" smooth="yes"/>
      <point x="262" y="1179"/>
      <point x="476" y="1404"/>
      <point x="808" y="1404" type="curve" smooth="yes"/>
      <point x="941" y="1404"/>
      <point x="1058" y="1367"/>
      <point x="1140" y="1312" type="curve"/>
      <point x="1140" y="180" type="line"/>
      <point x="1102" y="155"/>
      <point x="1000" y="87"/>
    </contour>
    <contour>
      <point x="976" y="1487" type="move" name="top"/>
    </contour>
  </outline>
</glyph>
<glyph name="oe" format="1">
  <advance width="1929"/>
  <unicode hex="0153"/>
  <outline>
    <contour>
      <point x="586" y="-24" type="curve" smooth="yes"/>
      <point x="800" y="-24"/>
      <point x="945" y="88"/>
      <point x="1017" y="259" type="curve"/>
      <point x="1088" y="81"/>
      <point x="1236" y="-24"/>
      <point x="1443" y="-24" type="curve" smooth="yes"/>
      <point x="1603" y="-24"/>
      <point x="1706" y="15"/>
      <point x="1811" y="81" type="curve"/>
      <point x="1787" y="184" type="line"/>
      <point x="1692" y="135"/>
      <point x="1613" y="79"/>
      <point x="1446" y="79" type="curve" smooth="yes"/>
      <point x="1231" y="79"/>
      <point x="1086" y="252"/>
      <point x="1083" y="532" type="curve"/>
      <point x="1835" y="532" type="line"/>
      <point x="1835" y="552"/>
      <point x="1836" y="589"/>
      <point x="1836" y="607" type="curve" smooth="yes"/>
      <point x="1836" y="919"/>
      <point x="1676" y="1117"/>
      <point x="1419" y="1117" type="curve" smooth="yes"/>
      <point x="1231" y="1113"/>
      <point x="1090" y="1007"/>
      <point x="1019" y="834" type="curve"/>
      <point x="949" y="1005"/>
      <point x="807" y="1117"/>
      <point x="594" y="1117" type="curve" smooth="yes"/>
      <point x="277" y="1117"/>
      <point x="96" y="869"/>
      <point x="96" y="545" type="curve" smooth="yes"/>
      <point x="96" y="223"/>
      <point x="278" y="-24"/>
    </contour>
    <contour>
      <point x="595" y="79" type="curve" smooth="yes"/>
      <point x="345" y="79"/>
      <point x="232" y="287"/>
      <point x="232" y="542" type="curve" smooth="yes"/>
      <point x="232" y="801"/>
      <point x="344" y="1012"/>
      <point x="591" y="1012" type="curve" smooth="yes"/>
      <point x="848" y="1012"/>
      <point x="948" y="808"/>
      <point x="948" y="545" type="curve" smooth="yes"/>
      <point x="948" y="286"/>
      <point x="841" y="79"/>
    </contour>
    <contour>
      <point x="1088" y="633" type="line"/>
      <point x="1109" y="853"/>
      <point x="1225" y="1009"/>
      <point x="1414" y="1009" type="curve" smooth="yes"/>
      <point x="1590" y="1009"/>
      <point x="1695" y="884"/>
      <point x="1698" y="644" type="curve" smooth="yes"/>
      <point x="1698" y="640"/>
      <point x="1698" y="637"/>
      <point x="1698" y="633" type="curve"/>
    </contour>
    <contour>
      <point x="965" y="1096" type="move" name="top"/>
    </contour>
  </outline>
</glyph>
<glyph name="uni018F" format="1">
  <advance width="1423"/>
  <unicode hex="018F"/>
  <outline>
    <contour>
      <point x="666" y="-24" type="curve" smooth="yes"/>
      <point x="1080" y="-24"/>
      <point x="1312" y="327"/>
      <point x="1312" y="768" type="curve" smooth="yes"/>
      <point x="1312" y="1175"/>
      <point x="1078" y="1515"/>
      <point x="618" y="1515" type="curve" smooth="yes"/>
      <point x="406" y="1515"/>
      <point x="294" y="1467"/>
      <point x="163" y="1374" type="curve"/>
      <point x="215" y="1272" type="line"/>
      <point x="323" y="1341"/>
      <point x="421" y="1404"/>
      <point x="610" y="1404" type="curve" smooth="yes"/>
      <point x="1024" y="1404"/>
      <point x="1164" y="1072"/>
      <point x="1165" y="773" type="curve"/>
      <point x="35" y="773" type="line"/>
      <point x="35" y="773"/>
      <point x="36" y="685"/>
      <point x="36" y="640" type="curve" smooth="yes"/>
      <point x="49" y="432"/>
      <point x="142" y="-24"/>
    </contour>
    <contour>
      <point x="666" y="87" type="curve" smooth="yes"/>
      <point x="244" y="87"/>
      <point x="175" y="455"/>
      <point x="163" y="666" type="curve"/>
      <point x="1162" y="666" type="line"/>
      <point x="1145" y="321"/>
      <point x="950" y="87"/>
    </contour>
  </outline>
</glyph>
<glyph name="florin" format="1">
  <advance width="946"/>
  <unicode hex="0192"/>
  <outline>
    <contour>
      <point x="103" y="-359" type="curve" smooth="yes"/>
      <point x="312" y="-359"/>
      <point x="353" y="-188"/>
      <point x="400" y="88" type="curve" smooth="yes"/>
      <point x="543" y="947" type="line"/>
      <point x="753" y="947" type="line"/>
      <point x="763" y="1043" type="line"/>
      <point x="562" y="1043" type="line"/>
      <point x="599" y="1281" type="line" smooth="yes"/>
      <point x="617" y="1394"/>
      <point x="669" y="1481"/>
      <point x="768" y="1481" type="curve" smooth="yes"/>
      <point x="795" y="1481"/>
      <point x="826" y="1475"/>
      <point x="862" y="1461" type="curve"/>
      <point x="869" y="1564" type="line"/>
      <point x="813" y="1581"/>
      <point x="789" y="1584"/>
      <point x="755" y="1584" type="curve" smooth="yes"/>
      <point x="546" y="1584"/>
      <point x="489" y="1410"/>
      <point x="460" y="1226" type="curve" smooth="yes"/>
      <point x="433" y="1043" type="line"/>
      <point x="252" y="1043" type="line"/>
      <point x="243" y="946" type="line"/>
      <point x="410" y="946" type="line"/>
      <point x="405" y="919"/>
      <point x="263" y="50"/>
      <point x="250" y="-9" type="curve" smooth="yes"/>
      <point x="226" y="-139"/>
      <point x="183" y="-255"/>
      <point x="97" y="-255" type="curve" smooth="yes"/>
      <point x="66" y="-255"/>
      <point x="37" y="-243"/>
      <point x="34" y="-242" type="curve"/>
      <point x="13" y="-335" type="line"/>
      <point x="38" y="-349"/>
      <point x="80" y="-359"/>
    </contour>
  </outline>
</glyph>
<glyph name="uni0237" format="1">
  <advance width="410"/>
  <unicode hex="0237"/>
  <outline>
    <contour>
      <point x="-62" y="-585" type="line"/>
      <point x="-5" y="-585" type="line" smooth="yes"/>
      <point x="243" y="-585"/>
      <point x="297" y="-521"/>
      <point x="297" y="-281" type="curve" smooth="yes"/>
      <point x="297" y="1103" type="line"/>
      <point x="157" y="1103" type="line"/>
      <point x="157" y="-226" type="line" smooth="yes"/>
      <point x="157" y="-389"/>
      <point x="157" y="-461"/>
      <point x="-32" y="-461" type="curve" smooth="yes"/>
      <point x="-91" y="-461" type="line"/>
    </contour>
  </outline>
</glyph>
<glyph name="uni0259" format="1">
  <advance width="1081"/>
  <unicode hex="0259"/>
  <outline>
    <contour>
      <point x="514" y="-27" type="curve" smooth="yes"/>
      <point x="793" y="-27"/>
      <point x="989" y="213"/>
      <point x="989" y="543" type="curve" smooth="yes"/>
      <point x="989" y="896"/>
      <point x="802" y="1118"/>
      <point x="508" y="1118" type="curve" smooth="yes"/>
      <point x="334" y="1118"/>
      <point x="190" y="1063"/>
      <point x="102" y="983" type="curve"/>
      <point x="145" y="886" type="line"/>
      <point x="227" y="940"/>
      <point x="342" y="1001"/>
      <point x="505" y="1001" type="curve" smooth="yes"/>
      <point x="698" y="1001"/>
      <point x="852" y="825"/>
      <point x="851" y="560" type="curve"/>
      <point x="92" y="560" type="line"/>
      <point x="92" y="545"/>
      <point x="90" y="503"/>
      <point x="90" y="492" type="curve" smooth="yes"/>
      <point x="90" y="154"/>
      <point x="258" y="-27"/>
    </contour>
    <contour>
      <point x="521" y="77" type="curve" smooth="yes"/>
      <point x="346" y="77"/>
      <point x="223" y="203"/>
      <point x="223" y="460" type="curve"/>
      <point x="844" y="460" type="line"/>
      <point x="830" y="244"/>
      <point x="710" y="77"/>
    </contour>
  </outline>
</glyph>
<glyph name="afii57929" format="1">
  <advance width="553"/>
  <unicode hex="02BC"/>
  <outline>
    <contour>
      <point x="143" y="1176" type="line"/>
      <point x="248" y="1176" type="line"/>
      <point x="415" y="1628" type="line"/>
      <point x="277" y="1628" type="line"/>
    </contour>
  </outline>
</glyph>
<glyph name="circumflex" format="1">
  <advance width="811"/>
  <unicode hex="02C6"/>
  <outline>
    <contour>
      <point x="133" y="1304" type="line"/>
      <point x="226" y="1304" type="line"/>
      <point x="401" y="1597" type="line"/>
      <point x="575" y="1304" type="line"/>
      <point x="670" y="1304" type="line"/>
      <point x="497" y="1666" type="line"/>
      <point x="303" y="1666" type="line"/>
    </contour>
    <contour>
      <point x="401.5" y="1096" type="move" name="_top"/>
    </contour>
  </outline>
</glyph>
<glyph name="caron" format="1">
  <advance width="811"/>
  <unicode hex="02C7"/>
  <outline>
    <contour>
      <point x="306" y="1304" type="line"/>
      <point x="500" y="1304" type="line"/>
      <point x="670" y="1666" type="line"/>
      <point x="576" y="1666" type="line"/>
      <point x="402" y="1369" type="line"/>
      <point x="228" y="1666" type="line"/>
      <point x="133" y="1666" type="line"/>
    </contour>
    <contour>
      <point x="401.5" y="1096" type="move" name="_top"/>
    </contour>
  </outline>
</glyph>
<glyph name="breve" format="1">
  <advance width="772"/>
  <unicode hex="02D8"/>
  <outline>
    <contour>
      <point x="388" y="1350" type="curve" smooth="yes"/>
      <point x="512" y="1351"/>
      <point x="625" y="1438"/>
      <point x="625" y="1603" type="curve"/>
      <point x="528" y="1603" type="line"/>
      <point x="528" y="1488"/>
      <point x="472" y="1432"/>
      <point x="388" y="1432" type="curve" smooth="yes"/>
      <point x="302" y="1432"/>
      <point x="250" y="1488"/>
      <point x="250" y="1603" type="curve"/>
      <point x="156" y="1603" type="line"/>
      <point x="156" y="1437"/>
      <point x="265" y="1350"/>
    </contour>
    <contour>
      <point x="390.5" y="1096" type="move" name="_top"/>
    </contour>
  </outline>
</glyph>
<glyph name="dotaccent" format="1">
  <advance width="358"/>
  <unicode hex="02D9"/>
  <outline>
    <contour>
      <point x="108" y="1328" type="line"/>
      <point x="262" y="1328" type="line"/>
      <point x="262" y="1514" type="line"/>
      <point x="108" y="1514" type="line"/>
    </contour>
    <contour>
      <point x="185" y="1096" type="move" name="_top"/>
    </contour>
  </outline>
</glyph>
<glyph name="ring" format="1">
  <advance width="622"/>
  <unicode hex="02DA"/>
  <outline>
    <contour>
      <point x="315" y="1382" type="curve" smooth="yes"/>
      <point x="266" y="1382"/>
      <point x="220" y="1419"/>
      <point x="220" y="1489" type="curve" smooth="yes"/>
      <point x="220" y="1560"/>
      <point x="266" y="1598"/>
      <point x="314" y="1598" type="curve" smooth="yes"/>
      <point x="361" y="1598"/>
      <point x="407" y="1560"/>
      <point x="408" y="1490" type="curve" smooth="yes"/>
      <point x="408" y="1420"/>
      <point x="362" y="1382"/>
    </contour>
    <contour>
      <point x="316" y="1311" type="curve" smooth="yes"/>
      <point x="407" y="1311"/>
      <point x="497" y="1370"/>
      <point x="497" y="1490" type="curve" smooth="yes"/>
      <point x="497" y="1606"/>
      <point x="405" y="1670"/>
      <point x="313" y="1670" type="curve" smooth="yes"/>
      <point x="220" y="1670"/>
      <point x="129" y="1609"/>
      <point x="129" y="1490" type="curve" smooth="yes"/>
      <point x="129" y="1373"/>
      <point x="222" y="1311"/>
    </contour>
    <contour>
      <point x="313" y="1096" type="move" name="_top"/>
    </contour>
  </outline>
</glyph>
<glyph name="ogonek" format="1">
  <advance width="595"/>
  <unicode hex="02DB"/>
  <outline>
    <contour>
      <point x="307" y="-435" type="curve" smooth="yes"/>
      <point x="357" y="-435"/>
      <point x="420" y="-417"/>
      <point x="449" y="-406" type="curve"/>
      <point x="449" y="-303" type="line"/>
      <point x="383" y="-333"/>
      <point x="365" y="-334"/>
      <point x="315" y="-334" type="curve" smooth="yes"/>
      <point x="278" y="-334"/>
      <point x="224" y="-303"/>
      <point x="224" y="-243" type="curve" smooth="yes"/>
      <point x="224" y="-172"/>
      <point x="315" y="-97"/>
      <point x="428" y="-12" type="curve"/>
      <point x="311" y="-12" type="line"/>
      <point x="208" y="-74"/>
      <point x="120" y="-160"/>
      <point x="120" y="-257" type="curve" smooth="yes"/>
      <point x="120" y="-369"/>
      <point x="201" y="-435"/>
    </contour>
    <contour>
      <point x="449" y="10" type="move" name="_ogonek"/>
    </contour>
  </outline>
</glyph>
<glyph name="tilde" format="1">
  <advance width="926"/>
  <unicode hex="02DC"/>
  <outline>
    <contour>
      <point x="147" y="1332" type="curve"/>
      <point x="238" y="1332" type="line"/>
      <point x="242" y="1383"/>
      <point x="257" y="1434"/>
      <point x="299" y="1434" type="curve" smooth="yes"/>
      <point x="347" y="1434"/>
      <point x="498" y="1332"/>
      <point x="580" y="1332" type="curve" smooth="yes"/>
      <point x="666" y="1332"/>
      <point x="716" y="1381"/>
      <point x="722" y="1521" type="curve"/>
      <point x="629" y="1521" type="line"/>
      <point x="625" y="1485"/>
      <point x="619" y="1425"/>
      <point x="574" y="1425" type="curve" smooth="yes"/>
      <point x="524" y="1425"/>
      <point x="395" y="1521"/>
      <point x="307" y="1521" type="curve" smooth="yes"/>
      <point x="220" y="1521"/>
      <point x="150" y="1486"/>
    </contour>
    <contour>
      <point x="434.5" y="1096" type="move" name="_top"/>
    </contour>
  </outline>
</glyph>
<glyph name="hungarumlaut" format="1">
  <advance width="748"/>
  <unicode hex="02DD"/>
  <outline>
    <contour>
      <point x="119" y="1321" type="line"/>
      <point x="204" y="1321" type="line"/>
      <point x="420" y="1641" type="line"/>
      <point x="297" y="1641" type="line"/>
    </contour>
    <contour>
      <point x="319" y="1321" type="line"/>
      <point x="409" y="1321" type="line"/>
      <point x="622" y="1641" type="line"/>
      <point x="503" y="1641" type="line"/>
    </contour>
    <contour>
      <point x="370.5" y="1096" type="move" name="_top"/>
    </contour>
  </outline>
</glyph>
<glyph name="uni0307" format="1">
  <advance width="369"/>
  <unicode hex="0307"/>
  <outline>
    <contour>
      <point x="116" y="1351" type="line"/>
      <point x="283" y="1351" type="line"/>
      <point x="283" y="1522" type="line"/>
      <point x="116" y="1522" type="line"/>
    </contour>
  </outline>
</glyph>
<glyph name="uni030F" format="1">
  <advance width="803"/>
  <unicode hex="030F"/>
  <outline>
    <contour>
      <point x="377" y="1296" type="line"/>
      <point x="450" y="1296" type="line"/>
      <point x="252" y="1629" type="line"/>
      <point x="153" y="1629" type="line"/>
    </contour>
    <contour>
      <point x="605" y="1296" type="line"/>
      <point x="671" y="1296" type="line"/>
      <point x="486" y="1629" type="line"/>
      <point x="379" y="1629" type="line"/>
    </contour>
  </outline>
</glyph>
<glyph name="uni0311" format="1">
  <advance width="790"/>
  <unicode hex="0311"/>
  <outline>
    <contour>
      <point x="164" y="1341" type="curve"/>
      <point x="258" y="1341" type="line"/>
      <point x="258" y="1437"/>
      <point x="327" y="1485"/>
      <point x="397" y="1485" type="curve" smooth="yes"/>
      <point x="467" y="1485"/>
      <point x="536" y="1437"/>
      <point x="536" y="1341" type="curve"/>
      <point x="632" y="1341" type="line"/>
      <point x="632" y="1496"/>
      <point x="514" y="1575"/>
      <point x="397" y="1575" type="curve" smooth="yes"/>
      <point x="280" y="1575"/>
      <point x="164" y="1497"/>
    </contour>
  </outline>
</glyph>
<glyph name="horncmb" format="1">
  <advance width="590"/>
  <unicode hex="031B"/>
  <outline>
    <contour>
      <point x="223" y="156" type="curve" smooth="yes"/>
      <point x="324" y="156"/>
      <point x="374" y="245"/>
      <point x="374" y="351" type="curve" smooth="yes"/>
      <point x="374" y="400"/>
      <point x="364" y="452"/>
      <point x="343" y="501" type="curve"/>
      <point x="226" y="501" type="line"/>
      <point x="241" y="460"/>
      <point x="256" y="403"/>
      <point x="256" y="354" type="curve" smooth="yes"/>
      <point x="256" y="299"/>
      <point x="238" y="254"/>
      <point x="180" y="254" type="curve" smooth="yes"/>
      <point x="163" y="254"/>
      <point x="146" y="256"/>
      <point x="131" y="256" type="curve"/>
      <point x="131" y="162" type="line"/>
      <point x="162" y="159"/>
      <point x="194" y="156"/>
    </contour>
  </outline>
</glyph>
<glyph name="uni0326" format="1">
  <advance width="552"/>
  <unicode hex="0326"/>
  <outline>
    <contour>
      <point x="167" y="-671" type="line"/>
      <point x="264" y="-671" type="line"/>
      <point x="397" y="-184" type="line"/>
      <point x="255" y="-184" type="line"/>
    </contour>
  </outline>
</glyph>
<glyph name="Alpha" format="1">
  <advance width="1279"/>
  <unicode hex="0391"/>
  <outline>
    <component base="A"/>
    <contour>
      <point x="640" y="1487" type="move" name="top"/>
    </contour>
  </outline>
</glyph>
<glyph name="Delta" format="1">
  <advance width="1265"/>
  <unicode hex="0394"/>
  <outline>
    <contour>
      <point x="-10" y="0" type="line"/>
      <point x="1275" y="0" type="line"/>
      <point x="691" y="1489" type="line"/>
      <point x="566" y="1489" type="line"/>
    </contour>
    <contour>
      <point x="177" y="115" type="line"/>
      <point x="631" y="1336" type="line"/>
      <point x="1087" y="115" type="line"/>
    </contour>
  </outline>
</glyph>
<glyph name="Xi" format="1">
  <advance width="468"/>
  <unicode hex="039E"/>
  <outline>
    <contour>
      <point x="237" y="532" type="curve" smooth="yes"/>
      <point x="326" y="532"/>
      <point x="370" y="598"/>
      <point x="370" y="664" type="curve" smooth="yes"/>
      <point x="370" y="730"/>
      <point x="326" y="796"/>
      <point x="237" y="796" type="curve" smooth="yes"/>
      <point x="149" y="796"/>
      <point x="104" y="730"/>
      <point x="104" y="664" type="curve" smooth="yes"/>
      <point x="104" y="598"/>
      <point x="149" y="532"/>
    </contour>
  </outline>
</glyph>
<glyph name="omicron" format="1">
  <advance width="1191"/>
  <unicode hex="03BF"/>
  <outline>
    <component base="o"/>
    <contour>
      <point x="596" y="1096" type="move" name="top"/>
    </contour>
  </outline>
</glyph>
<glyph name="pi" format="1">
  <advance width="1470"/>
  <unicode hex="03C0"/>
  <outline>
    <contour>
      <point x="1163" y="-8" type="curve" smooth="yes"/>
      <point x="1193" y="-8"/>
      <point x="1242" y="-2"/>
      <point x="1287" y="6" type="curve"/>
      <point x="1275" y="112" type="line"/>
      <point x="1256" y="108"/>
      <point x="1199" y="101"/>
      <point x="1187" y="101" type="curve" smooth="yes"/>
      <point x="1113" y="101"/>
      <point x="1109" y="174"/>
      <point x="1109" y="270" type="curve" smooth="yes"/>
      <point x="1109" y="988" type="line"/>
      <point x="1286" y="988" type="line"/>
      <point x="1286" y="1098" type="line"/>
      <point x="488" y="1098" type="line" smooth="yes"/>
      <point x="338" y="1098"/>
      <point x="251" y="1074"/>
      <point x="202" y="1036" type="curve"/>
      <point x="214" y="914" type="line"/>
      <point x="274" y="957"/>
      <point x="364" y="987"/>
      <point x="467" y="988" type="curve"/>
      <point x="457" y="534"/>
      <point x="386" y="173"/>
      <point x="305" y="0" type="curve"/>
      <point x="443" y="0" type="line"/>
      <point x="506" y="107"/>
      <point x="579" y="535"/>
      <point x="596" y="988" type="curve"/>
      <point x="985" y="988" type="line"/>
      <point x="985" y="277" type="line" smooth="yes"/>
      <point x="985" y="34"/>
      <point x="1044" y="-8"/>
    </contour>
  </outline>
</glyph>
<glyph name="afii10053" format="1">
  <advance width="1296"/>
  <unicode hex="0404"/>
  <outline>
    <contour>
      <point x="760" y="-25" type="curve" smooth="yes"/>
      <point x="972" y="-25"/>
      <point x="1115" y="30"/>
      <point x="1200" y="112" type="curve"/>
      <point x="1143" y="212" type="line"/>
      <point x="1071" y="152"/>
      <point x="928" y="94"/>
      <point x="764" y="94" type="curve" smooth="yes"/>
      <point x="416" y="94"/>
      <point x="251" y="376"/>
      <point x="224" y="674" type="curve"/>
      <point x="920" y="674" type="line"/>
      <point x="920" y="800" type="line"/>
      <point x="220" y="800" type="line"/>
      <point x="227" y="1116"/>
      <point x="365" y="1427"/>
      <point x="780" y="1427" type="curve" smooth="yes"/>
      <point x="939" y="1427"/>
      <point x="1074" y="1366"/>
      <point x="1144" y="1308" type="curve"/>
      <point x="1192" y="1420" type="line"/>
      <point x="1110" y="1506"/>
      <point x="973" y="1546"/>
      <point x="766" y="1546" type="curve" smooth="yes"/>
      <point x="268" y="1546"/>
      <point x="60" y="1174"/>
      <point x="60" y="768" type="curve" smooth="yes"/>
      <point x="60" y="331"/>
      <point x="275" y="-25"/>
    </contour>
  </outline>
</glyph>
<glyph name="afii10058" format="1">
  <advance width="1803"/>
  <unicode hex="0409"/>
  <outline>
    <contour>
      <point x="37" y="-30" type="line"/>
      <point x="54" y="-30" type="line" smooth="yes"/>
      <point x="397" y="-30"/>
      <point x="407" y="128"/>
      <point x="407" y="429" type="curve"/>
      <point x="414" y="1394" type="line"/>
      <point x="827" y="1394" type="line"/>
      <point x="813" y="-3" type="line"/>
      <point x="1266" y="-3" type="line" smooth="yes"/>
      <point x="1528" y="-3"/>
      <point x="1685" y="144"/>
      <point x="1685" y="422" type="curve" smooth="yes"/>
      <point x="1685" y="736"/>
      <point x="1525" y="866"/>
      <point x="1268" y="866" type="curve" smooth="yes"/>
      <point x="976" y="866" type="line"/>
      <point x="976" y="1521" type="line"/>
      <point x="265" y="1521" type="line"/>
      <point x="264" y="379" type="line" smooth="yes"/>
      <point x="264" y="235"/>
      <point x="260" y="104"/>
      <point x="71" y="106" type="curve" smooth="yes"/>
      <point x="37" y="107" type="line"/>
    </contour>
    <contour>
      <point x="967" y="120" type="line"/>
      <point x="967" y="741" type="line"/>
      <point x="1260" y="741" type="line" smooth="yes"/>
      <point x="1414" y="741"/>
      <point x="1522" y="610"/>
      <point x="1522" y="423" type="curve" smooth="yes"/>
      <point x="1522" y="237"/>
      <point x="1408" y="120"/>
      <point x="1260" y="120" type="curve" smooth="yes"/>
    </contour>
  </outline>
</glyph>
<glyph name="afii10018" format="1">
  <advance width="1144"/>
  <unicode hex="0411"/>
  <outline>
    <contour>
      <point x="154" y="0" type="line"/>
      <point x="625" y="0" type="line" smooth="yes"/>
      <point x="898" y="0"/>
      <point x="1055" y="145"/>
      <point x="1055" y="424" type="curve" smooth="yes"/>
      <point x="1055" y="741"/>
      <point x="882" y="874"/>
      <point x="615" y="874" type="curve" smooth="yes"/>
      <point x="293" y="874" type="line"/>
      <point x="293" y="1392" type="line"/>
      <point x="996" y="1392" type="line"/>
      <point x="996" y="1519" type="line"/>
      <point x="154" y="1519" type="line"/>
    </contour>
    <contour>
      <point x="293" y="127" type="line"/>
      <point x="293" y="747" type="line"/>
      <point x="620" y="747" type="line" smooth="yes"/>
      <point x="815" y="747"/>
      <point x="907" y="614"/>
      <point x="907" y="427" type="curve" smooth="yes"/>
      <point x="907" y="240"/>
      <point x="809" y="127"/>
      <point x="620" y="127" type="curve" smooth="yes"/>
    </contour>
  </outline>
</glyph>
<glyph name="afii10020" format="1">
  <advance width="824"/>
  <unicode hex="0413"/>
  <outline>
    <contour>
      <point x="152" y="0" type="line"/>
      <point x="292" y="0" type="line"/>
      <point x="292" y="1392" type="line"/>
      <point x="984" y="1392" type="line"/>
      <point x="996" y="1519" type="line"/>
      <point x="152" y="1519" type="line"/>
    </contour>
  </outline>
</glyph>
<glyph name="afii10025" format="1">
  <advance width="1580"/>
  <unicode hex="0417"/>
  <outline>
    <contour>
      <point x="498" y="-23" type="curve" smooth="yes"/>
      <point x="833" y="-23"/>
      <point x="1006" y="144"/>
      <point x="1006" y="388" type="curve" smooth="yes"/>
      <point x="1006" y="592"/>
      <point x="853" y="747"/>
      <point x="710" y="764" type="curve"/>
      <point x="848" y="795"/>
      <point x="970" y="972"/>
      <point x="970" y="1133" type="curve" smooth="yes"/>
      <point x="970" y="1255"/>
      <point x="865" y="1515"/>
      <point x="540" y="1515" type="curve" smooth="yes"/>
      <point x="365" y="1515"/>
      <point x="211" y="1481"/>
      <point x="101" y="1407" type="curve"/>
      <point x="155" y="1303" type="line"/>
      <point x="249" y="1351"/>
      <point x="378" y="1404"/>
      <point x="528" y="1404" type="curve" smooth="yes"/>
      <point x="675" y="1404"/>
      <point x="810" y="1319"/>
      <point x="825" y="1127" type="curve" smooth="yes"/>
      <point x="824" y="985"/>
      <point x="738" y="812"/>
      <point x="507" y="812" type="curve" smooth="yes"/>
      <point x="407" y="812" type="line"/>
      <point x="407" y="682" type="line"/>
      <point x="496" y="682" type="line" smooth="yes"/>
      <point x="780" y="682"/>
      <point x="854" y="529"/>
      <point x="854" y="383" type="curve" smooth="yes"/>
      <point x="854" y="158"/>
      <point x="656" y="87"/>
      <point x="492" y="87" type="curve" smooth="yes"/>
      <point x="347" y="87"/>
      <point x="201" y="138"/>
      <point x="116" y="201" type="curve"/>
      <point x="66" y="86" type="line"/>
      <point x="167" y="33"/>
      <point x="301" y="-23"/>
    </contour>
  </outline>
</glyph>
<glyph name="afii10026" format="1">
  <advance width="1495"/>
  <unicode hex="0418"/>
  <outline>
    <contour>
      <point x="154" y="0" type="line"/>
      <point x="338" y="0" type="line"/>
      <point x="1213" y="1390" type="line"/>
      <point x="1213" y="0" type="line"/>
      <point x="1338" y="0" type="line"/>
      <point x="1338" y="1520" type="line"/>
      <point x="1164" y="1520" type="line"/>
      <point x="1147" y="1491"/>
      <point x="1135" y="1520"/>
      <point x="1118" y="1492" type="curve"/>
      <point x="769" y="922"/>
      <point x="624" y="744"/>
      <point x="283" y="167" type="curve"/>
      <point x="283" y="1520" type="line"/>
      <point x="154" y="1520" type="line"/>
    </contour>
  </outline>
</glyph>
<glyph name="afii10033" format="1">
  <advance width="1466"/>
  <unicode hex="041F"/>
  <outline>
    <contour>
      <point x="154" y="0" type="line"/>
      <point x="293" y="0" type="line"/>
      <point x="293" y="1390" type="line"/>
      <point x="1170" y="1390" type="line"/>
      <point x="1170" y="0" type="line"/>
      <point x="1310" y="0" type="line"/>
      <point x="1310" y="1519" type="line"/>
      <point x="154" y="1519" type="line"/>
    </contour>
  </outline>
</glyph>
<glyph name="afii10038" format="1">
  <advance width="1692"/>
  <unicode hex="0424"/>
  <outline>
    <contour>
      <point x="772" y="0" type="line"/>
      <point x="896" y="0" type="line"/>
      <point x="896" y="105" type="line"/>
      <point x="1330" y="147"/>
      <point x="1581" y="347"/>
      <point x="1581" y="740" type="curve" smooth="yes"/>
      <point x="1581" y="1137"/>
      <point x="1330" y="1342"/>
      <point x="896" y="1385" type="curve"/>
      <point x="896" y="1519" type="line"/>
      <point x="772" y="1519" type="line"/>
      <point x="773" y="1382" type="line"/>
      <point x="331" y="1328"/>
      <point x="109" y="1106"/>
      <point x="109" y="740" type="curve" smooth="yes"/>
      <point x="109" y="378"/>
      <point x="331" y="162"/>
      <point x="773" y="108" type="curve"/>
    </contour>
    <contour>
      <point x="773" y="234" type="line"/>
      <point x="424" y="286"/>
      <point x="268" y="453"/>
      <point x="268" y="742" type="curve" smooth="yes"/>
      <point x="268" y="1035"/>
      <point x="425" y="1204"/>
      <point x="773" y="1256" type="curve"/>
    </contour>
    <contour>
      <point x="896" y="233" type="curve"/>
      <point x="896" y="1258" type="line"/>
      <point x="1264" y="1212"/>
      <point x="1423" y="1036"/>
      <point x="1423" y="742" type="curve" smooth="yes"/>
      <point x="1423" y="453"/>
      <point x="1264" y="279"/>
    </contour>
  </outline>
</glyph>
<glyph name="afii10040" format="1">
  <advance width="1465"/>
  <unicode hex="0426"/>
  <outline>
    <contour>
      <point x="1251" y="-220" type="line"/>
      <point x="1400" y="-220" type="line"/>
      <point x="1400" y="185" type="line"/>
      <point x="1297" y="185" type="line"/>
      <point x="1297" y="1519" type="line"/>
      <point x="1157" y="1519" type="line"/>
      <point x="1157" y="131" type="line"/>
      <point x="293" y="131" type="line"/>
      <point x="293" y="1519" type="line"/>
      <point x="154" y="1519" type="line"/>
      <point x="154" y="0" type="line"/>
      <point x="1251" y="0" type="line"/>
    </contour>
  </outline>
</glyph>
<glyph name="afii10041" format="1">
  <advance width="1002"/>
  <unicode hex="0427"/>
  <outline>
    <contour>
      <point x="850" y="-6" type="line"/>
      <point x="1000" y="-6" type="line"/>
      <point x="1000" y="1521" type="line"/>
      <point x="850" y="1521" type="line"/>
      <point x="850" y="908" type="line"/>
      <point x="850" y="811"/>
      <point x="689" y="617"/>
      <point x="500" y="617" type="curve" smooth="yes"/>
      <point x="338" y="617"/>
      <point x="258" y="756"/>
      <point x="258" y="1016" type="curve" smooth="yes"/>
      <point x="258" y="1521" type="line"/>
      <point x="101" y="1521" type="line"/>
      <point x="101" y="874" type="line" smooth="yes"/>
      <point x="101" y="670"/>
      <point x="225" y="476"/>
      <point x="436" y="476" type="curve" smooth="yes"/>
      <point x="617" y="476"/>
      <point x="746" y="559"/>
      <point x="850" y="730" type="curve"/>
    </contour>
  </outline>
</glyph>
<glyph name="afii10042" format="1">
  <advance width="1604"/>
  <unicode hex="0428"/>
  <outline>
    <contour>
      <point x="154" y="0" type="line"/>
      <point x="1447" y="0" type="line"/>
      <point x="1447" y="1519" type="line"/>
      <point x="1308" y="1519" type="line"/>
      <point x="1308" y="131" type="line"/>
      <point x="862" y="131" type="line"/>
      <point x="862" y="1519" type="line"/>
      <point x="723" y="1519" type="line"/>
      <point x="723" y="131" type="line"/>
      <point x="293" y="131" type="line"/>
      <point x="293" y="1519" type="line"/>
      <point x="154" y="1519" type="line"/>
    </contour>
  </outline>
</glyph>
<glyph name="afii10043" format="1">
  <advance width="1669"/>
  <unicode hex="0429"/>
  <outline>
    <contour>
      <point x="1397" y="-220" type="line"/>
      <point x="1550" y="-220" type="line"/>
      <point x="1550" y="185" type="line"/>
      <point x="1449" y="185" type="line"/>
      <point x="1449" y="1519" type="line"/>
      <point x="1309" y="1519" type="line"/>
      <point x="1309" y="131" type="line"/>
      <point x="864" y="131" type="line"/>
      <point x="864" y="1519" type="line"/>
      <point x="724" y="1519" type="line"/>
      <point x="724" y="131" type="line"/>
      <point x="293" y="131" type="line"/>
      <point x="293" y="1519" type="line"/>
      <point x="154" y="1519" type="line"/>
      <point x="154" y="0" type="line"/>
      <point x="1398" y="0" type="line"/>
    </contour>
  </outline>
</glyph>
<glyph name="afii10044" format="1">
  <advance width="1373"/>
  <unicode hex="042A"/>
  <outline>
    <contour>
      <point x="434" y="-6" type="line"/>
      <point x="767" y="-6" type="line" smooth="yes"/>
      <point x="1099" y="-6"/>
      <point x="1297" y="124"/>
      <point x="1297" y="395" type="curve" smooth="yes"/>
      <point x="1297" y="666"/>
      <point x="1129" y="799"/>
      <point x="772" y="799" type="curve" smooth="yes"/>
      <point x="585" y="799" type="line"/>
      <point x="585" y="1521" type="line"/>
      <point x="31" y="1521" type="line"/>
      <point x="31" y="1394" type="line"/>
      <point x="434" y="1394" type="line"/>
    </contour>
    <contour>
      <point x="585" y="122" type="line"/>
      <point x="585" y="675" type="line"/>
      <point x="793" y="675" type="line" smooth="yes"/>
      <point x="1063" y="675"/>
      <point x="1154" y="571"/>
      <point x="1154" y="405" type="curve" smooth="yes"/>
      <point x="1154" y="220"/>
      <point x="1050" y="122"/>
      <point x="789" y="122" type="curve" smooth="yes"/>
    </contour>
  </outline>
</glyph>
<glyph name="afii10046" format="1">
  <advance width="1084"/>
  <unicode hex="042C"/>
  <outline>
    <contour>
      <point x="134" y="-6" type="line"/>
      <point x="385" y="-6" type="line" smooth="yes"/>
      <point x="773" y="-6"/>
      <point x="941" y="171"/>
      <point x="941" y="412" type="curve" smooth="yes"/>
      <point x="941" y="664"/>
      <point x="722" y="799"/>
      <point x="377" y="799" type="curve" smooth="yes"/>
      <point x="289" y="799" type="line"/>
      <point x="289" y="1521" type="line"/>
      <point x="134" y="1521" type="line"/>
    </contour>
    <contour>
      <point x="289" y="121" type="line"/>
      <point x="289" y="675" type="line"/>
      <point x="396" y="675" type="line" smooth="yes"/>
      <point x="680" y="675"/>
      <point x="798" y="581"/>
      <point x="798" y="405" type="curve" smooth="yes"/>
      <point x="798" y="220"/>
      <point x="675" y="121"/>
      <point x="405" y="121" type="curve" smooth="yes"/>
    </contour>
  </outline>
</glyph>
<glyph name="afii10047" format="1">
  <advance width="1296"/>
  <unicode hex="042D"/>
  <outline>
    <contour>
      <point x="498" y="-25" type="curve" smooth="yes"/>
      <point x="983" y="-25"/>
      <point x="1199" y="331"/>
      <point x="1199" y="768" type="curve" smooth="yes"/>
      <point x="1199" y="1174"/>
      <point x="995" y="1546"/>
      <point x="505" y="1546" type="curve" smooth="yes"/>
      <point x="292" y="1546"/>
      <point x="152" y="1506"/>
      <point x="67" y="1420" type="curve"/>
      <point x="115" y="1308" type="line"/>
      <point x="185" y="1366"/>
      <point x="320" y="1427"/>
      <point x="479" y="1427" type="curve" smooth="yes"/>
      <point x="894" y="1427"/>
      <point x="1032" y="1116"/>
      <point x="1039" y="800" type="curve"/>
      <point x="339" y="800" type="line"/>
      <point x="339" y="674" type="line"/>
      <point x="1035" y="674" type="line"/>
      <point x="1009" y="376"/>
      <point x="843" y="94"/>
      <point x="494" y="94" type="curve" smooth="yes"/>
      <point x="331" y="94"/>
      <point x="188" y="152"/>
      <point x="116" y="212" type="curve"/>
      <point x="59" y="112" type="line"/>
      <point x="143" y="30"/>
      <point x="287" y="-25"/>
    </contour>
  </outline>
</glyph>
<glyph name="afii10048" format="1">
  <advance width="2193"/>
  <unicode hex="042E"/>
  <outline>
    <contour>
      <point x="1275" y="-25" type="curve" smooth="yes"/>
      <point x="1692" y="-25"/>
      <point x="1927" y="327"/>
      <point x="1927" y="748" type="curve" smooth="yes"/>
      <point x="1927" y="1209"/>
      <point x="1678" y="1546"/>
      <point x="1264" y="1546" type="curve" smooth="yes"/>
      <point x="879" y="1546"/>
      <point x="658" y="1255"/>
      <point x="631" y="829" type="curve"/>
      <point x="289" y="829" type="line"/>
      <point x="289" y="1519" type="line"/>
      <point x="134" y="1519" type="line"/>
      <point x="134" y="-6" type="line"/>
      <point x="289" y="-6" type="line"/>
      <point x="289" y="704" type="line"/>
      <point x="629" y="704" type="line"/>
      <point x="656" y="303"/>
      <point x="884" y="-25"/>
    </contour>
    <contour>
      <point x="1278" y="94" type="curve" smooth="yes"/>
      <point x="958" y="94"/>
      <point x="789" y="278"/>
      <point x="789" y="751" type="curve"/>
      <point x="789" y="1097"/>
      <point x="949" y="1427"/>
      <point x="1267" y="1427" type="curve" smooth="yes"/>
      <point x="1598" y="1427"/>
      <point x="1762" y="1085"/>
      <point x="1762" y="753" type="curve" smooth="yes"/>
      <point x="1762" y="401"/>
      <point x="1597" y="94"/>
    </contour>
  </outline>
</glyph>
<glyph name="afii10049" format="1">
  <advance width="1300"/>
  <unicode hex="042F"/>
  <outline>
    <contour>
      <point x="53" y="0" type="curve"/>
      <point x="221" y="0" type="line"/>
      <point x="426" y="429" type="line" smooth="yes"/>
      <point x="414" y="394"/>
      <point x="541" y="671"/>
      <point x="541" y="671" type="curve"/>
      <point x="588" y="667"/>
      <point x="643" y="657"/>
      <point x="829" y="657" type="curve" smooth="yes"/>
      <point x="1005" y="657" type="line"/>
      <point x="1005" y="0" type="line"/>
      <point x="1144" y="0" type="line"/>
      <point x="1144" y="1519" type="line"/>
      <point x="683" y="1519" type="line" smooth="yes"/>
      <point x="306" y="1519"/>
      <point x="110" y="1359"/>
      <point x="110" y="1091" type="curve" smooth="yes"/>
      <point x="110" y="904"/>
      <point x="219" y="759"/>
      <point x="389" y="695" type="curve"/>
      <point x="409" y="726"/>
      <point x="353" y="614"/>
      <point x="285" y="474" type="curve" smooth="yes"/>
      <point x="180" y="244"/>
      <point x="112" y="139"/>
    </contour>
    <contour>
      <point x="632" y="785" type="line"/>
      <point x="323" y="785"/>
      <point x="248" y="917"/>
      <point x="248" y="1091" type="curve" smooth="yes"/>
      <point x="248" y="1283"/>
      <point x="357" y="1392"/>
      <point x="634" y="1392" type="curve" smooth="yes"/>
      <point x="1005" y="1392" type="line"/>
      <point x="1005" y="785" type="line"/>
    </contour>
  </outline>
</glyph>
<glyph name="afii10066" format="1">
  <advance width="984"/>
  <unicode hex="0431"/>
  <outline>
    <contour>
      <point x="119" y="0" type="line"/>
      <point x="536" y="0" type="line" smooth="yes"/>
      <point x="820" y="0"/>
      <point x="929" y="211"/>
      <point x="929" y="372" type="curve" smooth="yes"/>
      <point x="929" y="524"/>
      <point x="832" y="719"/>
      <point x="542" y="719" type="curve" smooth="yes"/>
      <point x="251" y="719" type="line"/>
      <point x="251" y="986" type="line"/>
      <point x="817" y="986" type="line"/>
      <point x="817" y="1098" type="line"/>
      <point x="119" y="1098" type="line"/>
    </contour>
    <contour>
      <point x="250" y="104" type="line"/>
      <point x="250" y="610" type="line"/>
      <point x="570" y="610" type="line" smooth="yes"/>
      <point x="711" y="610"/>
      <point x="795" y="484"/>
      <point x="795" y="375" type="curve" smooth="yes"/>
      <point x="795" y="270"/>
      <point x="712" y="104"/>
      <point x="569" y="104" type="curve" smooth="yes"/>
    </contour>
  </outline>
</glyph>
<glyph name="afii10067" format="1">
  <advance width="1000"/>
  <unicode hex="0432"/>
  <outline>
    <contour>
      <point x="119" y="0" type="line"/>
      <point x="534" y="0" type="line" smooth="yes"/>
      <point x="824" y="0"/>
      <point x="934" y="176"/>
      <point x="934" y="314" type="curve" smooth="yes"/>
      <point x="927" y="403"/>
      <point x="878" y="510"/>
      <point x="760" y="575" type="curve"/>
      <point x="861" y="634"/>
      <point x="898" y="730"/>
      <point x="898" y="813" type="curve" smooth="yes"/>
      <point x="898" y="931"/>
      <point x="810" y="1098"/>
      <point x="542" y="1098" type="curve" smooth="yes"/>
      <point x="119" y="1098" type="line"/>
    </contour>
    <contour>
      <point x="250" y="104" type="line"/>
      <point x="250" y="514" type="line"/>
      <point x="543" y="514" type="line" smooth="yes"/>
      <point x="706" y="514"/>
      <point x="793" y="414"/>
      <point x="799" y="323" type="curve" smooth="yes"/>
      <point x="799" y="188"/>
      <point x="706" y="104"/>
      <point x="543" y="104" type="curve" smooth="yes"/>
    </contour>
    <contour>
      <point x="250" y="632" type="line"/>
      <point x="250" y="987" type="line"/>
      <point x="546" y="987" type="line" smooth="yes"/>
      <point x="693" y="987"/>
      <point x="765" y="912"/>
      <point x="765" y="807" type="curve" smooth="yes"/>
      <point x="765" y="723"/>
      <point x="694" y="632"/>
      <point x="546" y="632" type="curve" smooth="yes"/>
    </contour>
  </outline>
</glyph>
<glyph name="afii10068" format="1">
  <advance width="636"/>
  <unicode hex="0433"/>
  <outline>
    <contour>
      <point x="119" y="0" type="line"/>
      <point x="250" y="0" type="line"/>
      <point x="250" y="989" type="line"/>
      <point x="633" y="989" type="line"/>
      <point x="633" y="1098" type="line"/>
      <point x="119" y="1098" type="line"/>
    </contour>
  </outline>
</glyph>
<glyph name="afii10069" format="1">
  <advance width="1059"/>
  <unicode hex="0434"/>
  <outline>
    <contour>
      <point x="-2" y="-226" type="line"/>
      <point x="128" y="-226" type="line"/>
      <point x="125" y="0" type="line"/>
      <point x="841" y="0" type="line"/>
      <point x="834" y="-226" type="line"/>
      <point x="974" y="-226" type="line"/>
      <point x="974" y="101" type="line"/>
      <point x="900" y="101" type="line"/>
      <point x="900" y="1098" type="line"/>
      <point x="248" y="1098" type="line"/>
      <point x="206" y="449" type="line" smooth="yes"/>
      <point x="196" y="387"/>
      <point x="188" y="194"/>
      <point x="100" y="104" type="curve"/>
      <point x="-2" y="104" type="line"/>
    </contour>
    <contour>
      <point x="247" y="101" type="line"/>
      <point x="311" y="199"/>
      <point x="346" y="466"/>
      <point x="349" y="591" type="curve" smooth="yes"/>
      <point x="349" y="591"/>
      <point x="364" y="1013"/>
      <point x="364" y="989" type="curve"/>
      <point x="768" y="989" type="line"/>
      <point x="768" y="101" type="line"/>
    </contour>
  </outline>
</glyph>
<glyph name="afii10072" format="1">
  <advance width="1478"/>
  <unicode hex="0436"/>
  <outline>
    <contour>
      <point x="13" y="0" type="line"/>
      <point x="180" y="0" type="line"/>
      <point x="671" y="527" type="line"/>
      <point x="671" y="0" type="line"/>
      <point x="806" y="0" type="line"/>
      <point x="806" y="527" type="line"/>
      <point x="1296" y="0" type="line"/>
      <point x="1463" y="0" type="line"/>
      <point x="933" y="567" type="line"/>
      <point x="1457" y="1098" type="line"/>
      <point x="1299" y="1098" type="line"/>
      <point x="806" y="577" type="line"/>
      <point x="806" y="1098" type="line"/>
      <point x="671" y="1098" type="line"/>
      <point x="671" y="577" type="line"/>
      <point x="177" y="1098" type="line"/>
      <point x="20" y="1098" type="line"/>
      <point x="544" y="567" type="line"/>
    </contour>
  </outline>
</glyph>
<glyph name="afii10073" format="1">
  <advance width="938"/>
  <unicode hex="0437"/>
  <outline>
    <contour>
      <point x="403" y="-27" type="curve" smooth="yes"/>
      <point x="745" y="-27"/>
      <point x="844" y="163"/>
      <point x="844" y="315" type="curve" smooth="yes"/>
      <point x="837" y="419"/>
      <point x="804" y="534"/>
      <point x="636" y="579" type="curve"/>
      <point x="786" y="645"/>
      <point x="806" y="741"/>
      <point x="806" y="828" type="curve" smooth="yes"/>
      <point x="806" y="958"/>
      <point x="731" y="1142"/>
      <point x="414" y="1142" type="curve" smooth="yes"/>
      <point x="291" y="1142"/>
      <point x="148" y="1110"/>
      <point x="70" y="1015" type="curve"/>
      <point x="71" y="1011"/>
      <point x="130" y="920"/>
      <point x="130" y="920" type="curve"/>
      <point x="171" y="970"/>
      <point x="308" y="1030"/>
      <point x="409" y="1030" type="curve" smooth="yes"/>
      <point x="595" y="1030"/>
      <point x="669" y="934"/>
      <point x="669" y="827" type="curve" smooth="yes"/>
      <point x="669" y="742"/>
      <point x="612" y="630"/>
      <point x="464" y="630" type="curve" smooth="yes"/>
      <point x="281" y="630" type="line"/>
      <point x="281" y="526" type="line"/>
      <point x="464" y="526" type="line" smooth="yes"/>
      <point x="632" y="526"/>
      <point x="704" y="411"/>
      <point x="704" y="312" type="curve" smooth="yes"/>
      <point x="704" y="190"/>
      <point x="604" y="81"/>
      <point x="417" y="81" type="curve" smooth="yes"/>
      <point x="309" y="81"/>
      <point x="195" y="109"/>
      <point x="131" y="169" type="curve"/>
      <point x="129" y="165"/>
      <point x="69" y="91"/>
      <point x="67" y="86" type="curve"/>
      <point x="140" y="-1"/>
      <point x="294" y="-27"/>
    </contour>
  </outline>
</glyph>
<glyph name="afii10074" format="1">
  <advance width="1090"/>
  <unicode hex="0438"/>
  <outline>
    <contour>
      <point x="119" y="0" type="line"/>
      <point x="250" y="0" type="line"/>
      <point x="829" y="806" type="line"/>
      <point x="829" y="0" type="line"/>
      <point x="969" y="0" type="line"/>
      <point x="969" y="1098" type="line"/>
      <point x="829" y="1098" type="line"/>
      <point x="829" y="1001" type="line"/>
      <point x="257" y="201" type="line"/>
      <point x="257" y="1098" type="line"/>
      <point x="119" y="1098" type="line"/>
    </contour>
  </outline>
</glyph>
<glyph name="afii10076" format="1">
  <advance width="944"/>
  <unicode hex="043A"/>
  <outline>
    <contour>
      <point x="119" y="0" type="line"/>
      <point x="250" y="0" type="line"/>
      <point x="250" y="497" type="line"/>
      <point x="744" y="0" type="line"/>
      <point x="929" y="0" type="line"/>
      <point x="371" y="543" type="line"/>
      <point x="371" y="543"/>
      <point x="437" y="592"/>
      <point x="419" y="565" type="curve"/>
      <point x="623" y="783"/>
      <point x="722" y="988"/>
      <point x="832" y="988" type="curve" smooth="yes"/>
      <point x="851" y="988"/>
      <point x="855" y="988"/>
      <point x="890" y="982" type="curve"/>
      <point x="890" y="1101" type="line"/>
      <point x="843" y="1111"/>
      <point x="845" y="1111"/>
      <point x="833" y="1111" type="curve" smooth="yes"/>
      <point x="663" y="1111"/>
      <point x="623" y="1014"/>
      <point x="413" y="755" type="curve" smooth="yes"/>
      <point x="434" y="789"/>
      <point x="250" y="577"/>
      <point x="250" y="577" type="curve"/>
      <point x="250" y="1098" type="line"/>
      <point x="119" y="1098" type="line"/>
    </contour>
  </outline>
</glyph>
<glyph name="afii10077" format="1">
  <advance width="1149"/>
  <unicode hex="043B"/>
  <outline>
    <contour>
      <point x="43" y="-23" type="line"/>
      <point x="79" y="-23" type="line" smooth="yes"/>
      <point x="397" y="-29"/>
      <point x="345" y="87"/>
      <point x="345" y="438" type="curve" smooth="yes"/>
      <point x="345" y="990" type="line"/>
      <point x="898" y="990" type="line"/>
      <point x="898" y="0" type="line"/>
      <point x="1030" y="0" type="line"/>
      <point x="1030" y="1098" type="line"/>
      <point x="213" y="1098" type="line"/>
      <point x="213" y="406" type="line" smooth="yes"/>
      <point x="213" y="159"/>
      <point x="216" y="89"/>
      <point x="83" y="97" type="curve"/>
      <point x="30" y="100" type="line"/>
    </contour>
  </outline>
</glyph>
<glyph name="afii10078" format="1">
  <advance width="1129"/>
  <unicode hex="043C"/>
  <outline>
    <contour>
      <point x="117" y="0" type="line"/>
      <point x="256" y="0" type="line"/>
      <point x="256" y="865" type="line"/>
      <point x="518" y="408" type="line"/>
      <point x="624" y="408" type="line"/>
      <point x="868" y="865" type="line"/>
      <point x="868" y="0" type="line"/>
      <point x="1009" y="0" type="line"/>
      <point x="1009" y="1098" type="line"/>
      <point x="896" y="1098" type="line"/>
      <point x="562" y="553" type="line"/>
      <point x="230" y="1098" type="line"/>
      <point x="117" y="1098" type="line"/>
    </contour>
  </outline>
</glyph>
